%FSLAX46Y46*%
G04 Gerber Fmt 4.6, Leading zero omitted, Abs format (unit mm)*
G04 Created by KiCad (PCBNEW (2014-jul-16 BZR unknown)-product) date Sat 22 Nov 2014 08:56:03 PM CET*
%MOMM*%
G01*
G04 APERTURE LIST*
%ADD10C,0.150000*%
%ADD11C,2.000000*%
%ADD12R,3.000000X3.000000*%
%ADD13C,1.600000*%
%ADD14R,1.000760X1.000760*%
%ADD15C,2.200000*%
%ADD16R,0.701040X1.000760*%
%ADD17R,0.599440X1.399540*%
%ADD18R,1.397000X0.889000*%
%ADD19R,0.889000X1.397000*%
%ADD20C,1.524000*%
%ADD21R,0.599440X2.199640*%
%ADD22C,0.800000*%
G04 APERTURE END LIST*
D10*
D11*
X217183000Y-109139000D03*
X219636452Y-109796400D03*
X214729548Y-108481600D03*
D12*
X167868000Y-109565000D03*
X176668000Y-109565000D03*
D10*
G36*
X240908000Y-127735000D02*
X237908000Y-127735000D01*
X238908000Y-125735000D01*
X239908000Y-125735000D01*
X240908000Y-127735000D01*
X240908000Y-127735000D01*
G37*
G36*
X213151248Y-124256715D02*
X212737137Y-125802196D01*
X211191656Y-125388085D01*
X211605767Y-123842604D01*
X213151248Y-124256715D01*
X213151248Y-124256715D01*
G37*
D13*
X209718000Y-124165000D03*
X207264548Y-123507600D03*
D14*
X166947540Y-112734840D03*
X166947540Y-117835160D03*
X176848000Y-117835000D03*
X176848000Y-112735000D03*
D10*
G36*
X202142894Y-117190797D02*
X201366437Y-120088574D01*
X198468660Y-119312117D01*
X199245117Y-116414340D01*
X202142894Y-117190797D01*
X202142894Y-117190797D01*
G37*
G36*
X196347340Y-115637883D02*
X195570883Y-118535660D01*
X192673106Y-117759203D01*
X193449563Y-114861426D01*
X196347340Y-115637883D01*
X196347340Y-115637883D01*
G37*
D15*
X172778000Y-109485000D03*
X235278000Y-124685000D03*
D13*
X172778000Y-139885000D03*
D16*
X197528000Y-111405000D03*
X196575500Y-113945000D03*
X198480500Y-113945000D03*
X193988000Y-108005000D03*
X193035500Y-110545000D03*
X194940500Y-110545000D03*
D17*
X183013000Y-115732000D03*
X183013000Y-110398000D03*
X184283000Y-115732000D03*
X185553000Y-115732000D03*
X186823000Y-115732000D03*
X184283000Y-110398000D03*
X185553000Y-110398000D03*
X186823000Y-110398000D03*
D18*
X191418000Y-111517500D03*
X191418000Y-109612500D03*
X189508000Y-114342500D03*
X189508000Y-116247500D03*
D19*
X199465500Y-110465000D03*
X201370500Y-110465000D03*
D10*
G36*
X228318183Y-128401871D02*
X227956613Y-129751269D01*
X227097905Y-129521179D01*
X227459475Y-128171781D01*
X228318183Y-128401871D01*
X228318183Y-128401871D01*
G37*
G36*
X226478095Y-127908821D02*
X226116525Y-129258219D01*
X225257817Y-129028129D01*
X225619387Y-127678731D01*
X226478095Y-127908821D01*
X226478095Y-127908821D01*
G37*
G36*
X228998183Y-126271871D02*
X228636613Y-127621269D01*
X227777905Y-127391179D01*
X228139475Y-126041781D01*
X228998183Y-126271871D01*
X228998183Y-126271871D01*
G37*
G36*
X227158095Y-125778821D02*
X226796525Y-127128219D01*
X225937817Y-126898129D01*
X226299387Y-125548731D01*
X227158095Y-125778821D01*
X227158095Y-125778821D01*
G37*
D18*
X233028000Y-111557500D03*
X233028000Y-109652500D03*
X235168000Y-109672500D03*
X235168000Y-111577500D03*
X180968000Y-110432500D03*
X180968000Y-112337500D03*
D19*
X178715500Y-115285000D03*
X180620500Y-115285000D03*
D18*
X243848000Y-118387500D03*
X243848000Y-116482500D03*
X231968000Y-129337500D03*
X231968000Y-127432500D03*
X234688000Y-127452500D03*
X234688000Y-129357500D03*
X189218000Y-109612500D03*
X189218000Y-111517500D03*
X191618000Y-116217500D03*
X191618000Y-114312500D03*
D10*
G36*
X224102592Y-112073140D02*
X224497033Y-110601069D01*
X225969104Y-110995510D01*
X225574663Y-112467581D01*
X224102592Y-112073140D01*
X224102592Y-112073140D01*
G37*
D20*
X225693249Y-109080874D03*
X227489300Y-112191726D03*
X228146700Y-109738274D03*
X229942751Y-112849126D03*
X230600152Y-110395675D03*
D21*
X241893000Y-119923420D03*
X240623000Y-119923420D03*
X239353000Y-119923420D03*
X238083000Y-119923420D03*
X236813000Y-119923420D03*
X235543000Y-119923420D03*
X234273000Y-119923420D03*
X234273000Y-114726580D03*
X235543000Y-114726580D03*
X236813000Y-114726580D03*
X238083000Y-114726580D03*
X239353000Y-114726580D03*
X240623000Y-114726580D03*
X241893000Y-114726580D03*
D10*
G36*
X221951248Y-126556715D02*
X221537137Y-128102196D01*
X219991656Y-127688085D01*
X220405767Y-126142604D01*
X221951248Y-126556715D01*
X221951248Y-126556715D01*
G37*
D13*
X218518000Y-126465000D03*
X216064548Y-125807600D03*
D11*
X177521902Y-103880902D03*
X175068450Y-103223502D03*
X179975354Y-104538302D03*
D12*
X226836902Y-103454902D03*
X218036902Y-103454902D03*
D10*
G36*
X153796902Y-85284902D02*
X156796902Y-85284902D01*
X155796902Y-87284902D01*
X154796902Y-87284902D01*
X153796902Y-85284902D01*
X153796902Y-85284902D01*
G37*
G36*
X181553654Y-88763187D02*
X181967765Y-87217706D01*
X183513246Y-87631817D01*
X183099135Y-89177298D01*
X181553654Y-88763187D01*
X181553654Y-88763187D01*
G37*
D13*
X184986902Y-88854902D03*
X187440354Y-89512302D03*
D14*
X227757362Y-100285062D03*
X227757362Y-95184742D03*
X217856902Y-95184902D03*
X217856902Y-100284902D03*
D10*
G36*
X192562008Y-95829105D02*
X193338465Y-92931328D01*
X196236242Y-93707785D01*
X195459785Y-96605562D01*
X192562008Y-95829105D01*
X192562008Y-95829105D01*
G37*
G36*
X198357562Y-97382019D02*
X199134019Y-94484242D01*
X202031796Y-95260699D01*
X201255339Y-98158476D01*
X198357562Y-97382019D01*
X198357562Y-97382019D01*
G37*
D15*
X221926902Y-103534902D03*
X159426902Y-88334902D03*
D13*
X221926902Y-73134902D03*
D16*
X197176902Y-101614902D03*
X198129402Y-99074902D03*
X196224402Y-99074902D03*
X200716902Y-105014902D03*
X201669402Y-102474902D03*
X199764402Y-102474902D03*
D17*
X211691902Y-97287902D03*
X211691902Y-102621902D03*
X210421902Y-97287902D03*
X209151902Y-97287902D03*
X207881902Y-97287902D03*
X210421902Y-102621902D03*
X209151902Y-102621902D03*
X207881902Y-102621902D03*
D18*
X203286902Y-101502402D03*
X203286902Y-103407402D03*
X205196902Y-98677402D03*
X205196902Y-96772402D03*
D19*
X195239402Y-102554902D03*
X193334402Y-102554902D03*
D10*
G36*
X166386719Y-84618031D02*
X166748289Y-83268633D01*
X167606997Y-83498723D01*
X167245427Y-84848121D01*
X166386719Y-84618031D01*
X166386719Y-84618031D01*
G37*
G36*
X168226807Y-85111081D02*
X168588377Y-83761683D01*
X169447085Y-83991773D01*
X169085515Y-85341171D01*
X168226807Y-85111081D01*
X168226807Y-85111081D01*
G37*
G36*
X165706719Y-86748031D02*
X166068289Y-85398633D01*
X166926997Y-85628723D01*
X166565427Y-86978121D01*
X165706719Y-86748031D01*
X165706719Y-86748031D01*
G37*
G36*
X167546807Y-87241081D02*
X167908377Y-85891683D01*
X168767085Y-86121773D01*
X168405515Y-87471171D01*
X167546807Y-87241081D01*
X167546807Y-87241081D01*
G37*
D18*
X161676902Y-101462402D03*
X161676902Y-103367402D03*
X159536902Y-103347402D03*
X159536902Y-101442402D03*
X213736902Y-102587402D03*
X213736902Y-100682402D03*
D19*
X215989402Y-97734902D03*
X214084402Y-97734902D03*
D18*
X150856902Y-94632402D03*
X150856902Y-96537402D03*
X162736902Y-83682402D03*
X162736902Y-85587402D03*
X160016902Y-85567402D03*
X160016902Y-83662402D03*
X205486902Y-103407402D03*
X205486902Y-101502402D03*
X203086902Y-96802402D03*
X203086902Y-98707402D03*
D10*
G36*
X170602310Y-100946762D02*
X170207869Y-102418833D01*
X168735798Y-102024392D01*
X169130239Y-100552321D01*
X170602310Y-100946762D01*
X170602310Y-100946762D01*
G37*
D20*
X169011653Y-103939028D03*
X167215602Y-100828176D03*
X166558202Y-103281628D03*
X164762151Y-100170776D03*
X164104750Y-102624227D03*
D21*
X152811902Y-93096482D03*
X154081902Y-93096482D03*
X155351902Y-93096482D03*
X156621902Y-93096482D03*
X157891902Y-93096482D03*
X159161902Y-93096482D03*
X160431902Y-93096482D03*
X160431902Y-98293322D03*
X159161902Y-98293322D03*
X157891902Y-98293322D03*
X156621902Y-98293322D03*
X155351902Y-98293322D03*
X154081902Y-98293322D03*
X152811902Y-98293322D03*
D10*
G36*
X172753654Y-86463187D02*
X173167765Y-84917706D01*
X174713246Y-85331817D01*
X174299135Y-86877298D01*
X172753654Y-86463187D01*
X172753654Y-86463187D01*
G37*
D13*
X176186902Y-86554902D03*
X178640354Y-87212302D03*
D22*
X197000000Y-106509951D03*
X198500000Y-106509951D03*
X195500000Y-106509951D03*
X174000000Y-106509951D03*
X175500000Y-106509951D03*
X172500000Y-106509951D03*
D11*
X206818964Y-115267758D03*
X229325036Y-121298242D03*
X201120002Y-113740726D03*
X187885938Y-97752144D03*
X165379866Y-91721660D03*
X193584900Y-99279176D03*
M02*
