%FSLAX46Y46*%
G04 Gerber Fmt 4.6, Leading zero omitted, Abs format (unit mm)*
G04 Created by KiCad (PCBNEW (2014-jul-16 BZR unknown)-product) date Sat 22 Nov 2014 08:56:03 PM CET*
%MOMM*%
G01*
G04 APERTURE LIST*
%ADD10C,0.150000*%
%ADD11C,2.000000*%
%ADD12R,3.000000X3.000000*%
%ADD13C,1.600000*%
%ADD14C,1.524000*%
%ADD15R,2.000000X2.000000*%
%ADD16C,1.000000*%
%ADD17C,0.889000*%
%ADD18C,0.600000*%
%ADD19C,0.254000*%
G04 APERTURE END LIST*
D10*
X239408000Y-128235000D02*
X239408000Y-127585000D01*
X155296902Y-84784902D02*
X155296902Y-85434902D01*
D11*
X217183000Y-109139000D03*
X219636452Y-109796400D03*
X214729548Y-108481600D03*
D12*
X178118000Y-115565000D03*
X184118000Y-115565000D03*
X176668000Y-109565000D03*
X167868000Y-109565000D03*
D10*
G36*
X240908000Y-127735000D02*
X237908000Y-127735000D01*
X238908000Y-125735000D01*
X239908000Y-125735000D01*
X240908000Y-127735000D01*
X240908000Y-127735000D01*
G37*
G36*
X237908000Y-128135000D02*
X240908000Y-128135000D01*
X239908000Y-130135000D01*
X238908000Y-130135000D01*
X237908000Y-128135000D01*
X237908000Y-128135000D01*
G37*
G36*
X213151248Y-124256715D02*
X212737137Y-125802196D01*
X211191656Y-125388085D01*
X211605767Y-123842604D01*
X213151248Y-124256715D01*
X213151248Y-124256715D01*
G37*
D13*
X209718000Y-124165000D03*
X207264548Y-123507600D03*
D10*
G36*
X202142894Y-117190797D02*
X201366437Y-120088574D01*
X198468660Y-119312117D01*
X199245117Y-116414340D01*
X202142894Y-117190797D01*
X202142894Y-117190797D01*
G37*
G36*
X196347340Y-115637883D02*
X195570883Y-118535660D01*
X192673106Y-117759203D01*
X193449563Y-114861426D01*
X196347340Y-115637883D01*
X196347340Y-115637883D01*
G37*
G36*
X224102592Y-112073140D02*
X224497033Y-110601069D01*
X225969104Y-110995510D01*
X225574663Y-112467581D01*
X224102592Y-112073140D01*
X224102592Y-112073140D01*
G37*
D14*
X225693249Y-109080874D03*
X227489300Y-112191726D03*
X228146700Y-109738274D03*
X229942751Y-112849126D03*
X230600152Y-110395675D03*
D15*
X237688000Y-109755000D03*
X240468000Y-109775000D03*
X243188000Y-109775000D03*
D10*
G36*
X221951248Y-126556715D02*
X221537137Y-128102196D01*
X219991656Y-127688085D01*
X220405767Y-126142604D01*
X221951248Y-126556715D01*
X221951248Y-126556715D01*
G37*
D13*
X218518000Y-126465000D03*
X216064548Y-125807600D03*
D15*
X243726000Y-121331000D03*
X243726000Y-114092000D03*
X243218000Y-127935000D03*
X243218000Y-125395000D03*
D11*
X177521902Y-103880902D03*
X175068450Y-103223502D03*
X179975354Y-104538302D03*
D12*
X216586902Y-97454902D03*
X210586902Y-97454902D03*
X218036902Y-103454902D03*
X226836902Y-103454902D03*
D10*
G36*
X153796902Y-85284902D02*
X156796902Y-85284902D01*
X155796902Y-87284902D01*
X154796902Y-87284902D01*
X153796902Y-85284902D01*
X153796902Y-85284902D01*
G37*
G36*
X156796902Y-84884902D02*
X153796902Y-84884902D01*
X154796902Y-82884902D01*
X155796902Y-82884902D01*
X156796902Y-84884902D01*
X156796902Y-84884902D01*
G37*
G36*
X181553654Y-88763187D02*
X181967765Y-87217706D01*
X183513246Y-87631817D01*
X183099135Y-89177298D01*
X181553654Y-88763187D01*
X181553654Y-88763187D01*
G37*
D13*
X184986902Y-88854902D03*
X187440354Y-89512302D03*
D10*
G36*
X192562008Y-95829105D02*
X193338465Y-92931328D01*
X196236242Y-93707785D01*
X195459785Y-96605562D01*
X192562008Y-95829105D01*
X192562008Y-95829105D01*
G37*
G36*
X198357562Y-97382019D02*
X199134019Y-94484242D01*
X202031796Y-95260699D01*
X201255339Y-98158476D01*
X198357562Y-97382019D01*
X198357562Y-97382019D01*
G37*
G36*
X170602310Y-100946762D02*
X170207869Y-102418833D01*
X168735798Y-102024392D01*
X169130239Y-100552321D01*
X170602310Y-100946762D01*
X170602310Y-100946762D01*
G37*
D14*
X169011653Y-103939028D03*
X167215602Y-100828176D03*
X166558202Y-103281628D03*
X164762151Y-100170776D03*
X164104750Y-102624227D03*
D15*
X157016902Y-103264902D03*
X154236902Y-103244902D03*
X151516902Y-103244902D03*
D10*
G36*
X172753654Y-86463187D02*
X173167765Y-84917706D01*
X174713246Y-85331817D01*
X174299135Y-86877298D01*
X172753654Y-86463187D01*
X172753654Y-86463187D01*
G37*
D13*
X176186902Y-86554902D03*
X178640354Y-87212302D03*
D15*
X150978902Y-91688902D03*
X150978902Y-98927902D03*
X151486902Y-85084902D03*
X151486902Y-87624902D03*
D16*
X201518000Y-108565000D03*
X221488000Y-111379000D03*
X176657000Y-102108000D03*
X193186902Y-104454902D03*
X241821000Y-122474000D03*
X152883902Y-90545902D03*
X174618000Y-111565000D03*
X220086902Y-101454902D03*
X205018000Y-113365000D03*
X189686902Y-99654902D03*
D17*
X194118000Y-112365000D03*
X235918000Y-112765000D03*
X200586902Y-100654902D03*
X158786902Y-100254902D03*
D16*
X223418000Y-110365000D03*
X227711000Y-119126000D03*
X171286902Y-102654902D03*
X166878000Y-93853000D03*
X232418000Y-121065000D03*
X197118000Y-116815000D03*
X181868000Y-117065000D03*
X233308000Y-123255000D03*
X232918000Y-116345000D03*
X232088000Y-126195000D03*
X243599000Y-112060000D03*
X162286902Y-91954902D03*
X197586902Y-96204902D03*
X212836902Y-95954902D03*
X161396902Y-89764902D03*
X161786902Y-96674902D03*
X162616902Y-86824902D03*
X151105902Y-100959902D03*
D17*
X236818000Y-111845000D03*
X235508000Y-122045000D03*
X157886902Y-101174902D03*
X159196902Y-90974902D03*
X227218000Y-127865000D03*
X167486902Y-85154902D03*
X230118000Y-119265000D03*
X164586902Y-93754902D03*
X175368000Y-114565000D03*
X219336902Y-98454902D03*
X187918000Y-110165000D03*
X191618000Y-117365000D03*
X206786902Y-102854902D03*
X203086902Y-95654902D03*
X239408000Y-122855000D03*
X243218000Y-123363000D03*
X155296902Y-90164902D03*
X151486902Y-89656902D03*
X238138000Y-122855000D03*
X243218000Y-129840000D03*
X156566902Y-90164902D03*
X151486902Y-83179902D03*
X236868000Y-122855000D03*
X157836902Y-90164902D03*
X225418000Y-125665000D03*
X169286902Y-87354902D03*
X235118000Y-110865000D03*
X159586902Y-102154902D03*
X178689000Y-101092000D03*
X198018000Y-109765000D03*
X215913000Y-112187000D03*
X196686902Y-103254902D03*
X230098000Y-128125000D03*
X164606902Y-84894902D03*
D16*
X188338000Y-113035000D03*
X167008000Y-116235000D03*
X206366902Y-99984902D03*
X227696902Y-96784902D03*
X207118000Y-121065000D03*
X200305777Y-121115000D03*
X187586902Y-91954902D03*
X194399125Y-91904902D03*
D17*
X193898000Y-113945000D03*
X190018000Y-117765000D03*
X200806902Y-99074902D03*
X204686902Y-95254902D03*
D18*
X201518000Y-108565000D02*
X203318000Y-110365000D01*
X203318000Y-110365000D02*
X215519000Y-110365000D01*
X215519000Y-110365000D02*
X216533000Y-111379000D01*
X216533000Y-111379000D02*
X221488000Y-111379000D01*
X178626000Y-102108000D02*
X176657000Y-102108000D01*
X193186902Y-104454902D02*
X191386902Y-102654902D01*
X191386902Y-102654902D02*
X179172902Y-102654902D01*
X179172902Y-102654902D02*
X178626000Y-102108000D01*
X215519000Y-110365000D02*
X215532000Y-110365000D01*
X242964000Y-121331000D02*
X241821000Y-122474000D01*
X243726000Y-121331000D02*
X242964000Y-121331000D01*
X151740902Y-91688902D02*
X152883902Y-90545902D01*
X150978902Y-91688902D02*
X151740902Y-91688902D01*
X176668000Y-109565000D02*
X174668000Y-111565000D01*
X174668000Y-111565000D02*
X174618000Y-111565000D01*
X218036902Y-103454902D02*
X220036902Y-101454902D01*
X220036902Y-101454902D02*
X220086902Y-101454902D01*
X216064548Y-125807600D02*
X214760600Y-125807600D01*
X208107148Y-122665000D02*
X207264548Y-123507600D01*
X212418000Y-122665000D02*
X208107148Y-122665000D01*
X213718000Y-123965000D02*
X212418000Y-122665000D01*
X213718000Y-124765000D02*
X213718000Y-123965000D01*
X214760600Y-125807600D02*
X213718000Y-124765000D01*
X205018000Y-113365000D02*
X205018000Y-121261052D01*
X205018000Y-121261052D02*
X207264548Y-123507600D01*
X178640354Y-87212302D02*
X179944302Y-87212302D01*
X186597754Y-90354902D02*
X187440354Y-89512302D01*
X182286902Y-90354902D02*
X186597754Y-90354902D01*
X180986902Y-89054902D02*
X182286902Y-90354902D01*
X180986902Y-88254902D02*
X180986902Y-89054902D01*
X179944302Y-87212302D02*
X180986902Y-88254902D01*
X189686902Y-99654902D02*
X189686902Y-91758850D01*
X189686902Y-91758850D02*
X187440354Y-89512302D01*
D19*
X180340000Y-101146900D02*
X179886900Y-101146900D01*
X171302776Y-103939028D02*
X171494776Y-103939028D01*
X171302776Y-103939028D02*
X169011653Y-103939028D01*
X171494776Y-103939028D02*
X172314902Y-103118902D01*
X173706804Y-101727000D02*
X172314902Y-103118902D01*
X175514000Y-101727000D02*
X173706804Y-101727000D01*
X176911000Y-100330000D02*
X175514000Y-101727000D01*
X179070000Y-100330000D02*
X176911000Y-100330000D01*
X179886900Y-101146900D02*
X179070000Y-100330000D01*
X215564000Y-113000000D02*
X219483000Y-113000000D01*
X215513000Y-112949000D02*
X215564000Y-113000000D01*
X214437002Y-111873002D02*
X215513000Y-112949000D01*
X194609998Y-111873002D02*
X214437002Y-111873002D01*
X194118000Y-112365000D02*
X194609998Y-111873002D01*
X225693249Y-109080874D02*
X226301121Y-108473002D01*
X235818000Y-112765000D02*
X235918000Y-112765000D01*
X234118000Y-111065000D02*
X235818000Y-112765000D01*
X234118000Y-110665000D02*
X234118000Y-111065000D01*
X231926002Y-108473002D02*
X234118000Y-110665000D01*
X226301121Y-108473002D02*
X231926002Y-108473002D01*
X223210126Y-109080874D02*
X222390000Y-109901000D01*
X222390000Y-109901000D02*
X222390000Y-112314000D01*
X222390000Y-112314000D02*
X221755000Y-112949000D01*
X221755000Y-112949000D02*
X215513000Y-112949000D01*
X225693249Y-109080874D02*
X223402126Y-109080874D01*
X223402126Y-109080874D02*
X223210126Y-109080874D01*
X200094904Y-101146900D02*
X180340000Y-101146900D01*
X180340000Y-101146900D02*
X180267900Y-101146900D01*
X200586902Y-100654902D02*
X200094904Y-101146900D01*
X169011653Y-103939028D02*
X168403781Y-104546900D01*
X168403781Y-104546900D02*
X162778900Y-104546900D01*
X162778900Y-104546900D02*
X160586902Y-102354902D01*
X160586902Y-102354902D02*
X160586902Y-101954902D01*
X160586902Y-101954902D02*
X158886902Y-100254902D01*
X158886902Y-100254902D02*
X158786902Y-100254902D01*
D18*
X227118000Y-116165000D02*
X227711000Y-116758000D01*
X223418000Y-110365000D02*
X223418000Y-112465000D01*
X223418000Y-112465000D02*
X227118000Y-116165000D01*
X227711000Y-116758000D02*
X227711000Y-119126000D01*
X167586902Y-96854902D02*
X166878000Y-96146000D01*
X171286902Y-102654902D02*
X171286902Y-100554902D01*
X171286902Y-100554902D02*
X167586902Y-96854902D01*
X166878000Y-96146000D02*
X166878000Y-93853000D01*
X233308000Y-123255000D02*
X233308000Y-121955000D01*
X233308000Y-121955000D02*
X232418000Y-121065000D01*
X194510223Y-116698543D02*
X197001543Y-116698543D01*
X197001543Y-116698543D02*
X197118000Y-116815000D01*
X182618000Y-117065000D02*
X184118000Y-115565000D01*
X181868000Y-117065000D02*
X182618000Y-117065000D01*
X232088000Y-126195000D02*
X233308000Y-124975000D01*
X233308000Y-124975000D02*
X233308000Y-123255000D01*
X232918000Y-116353523D02*
X233298000Y-116733523D01*
X232918000Y-116345000D02*
X232918000Y-116353523D01*
X233298000Y-116733523D02*
X233298000Y-124985000D01*
X233298000Y-124985000D02*
X232088000Y-126195000D01*
X231518000Y-114945000D02*
X231518000Y-111313523D01*
X231518000Y-111313523D02*
X230600152Y-110395675D01*
X232918000Y-116345000D02*
X231518000Y-114945000D01*
X243726000Y-112187000D02*
X243726000Y-114092000D01*
X243599000Y-112060000D02*
X243726000Y-112187000D01*
X161396902Y-89764902D02*
X161396902Y-91064902D01*
X161396902Y-91064902D02*
X162286902Y-91954902D01*
X200194679Y-96321359D02*
X197703359Y-96321359D01*
X197703359Y-96321359D02*
X197586902Y-96204902D01*
X212086902Y-95954902D02*
X210586902Y-97454902D01*
X212836902Y-95954902D02*
X212086902Y-95954902D01*
X162616902Y-86824902D02*
X161396902Y-88044902D01*
X161396902Y-88044902D02*
X161396902Y-89764902D01*
X161786902Y-96666379D02*
X161406902Y-96286379D01*
X161786902Y-96674902D02*
X161786902Y-96666379D01*
X161406902Y-96286379D02*
X161406902Y-88034902D01*
X161406902Y-88034902D02*
X162616902Y-86824902D01*
X163186902Y-98074902D02*
X163186902Y-101706379D01*
X163186902Y-101706379D02*
X164104750Y-102624227D01*
X161786902Y-96674902D02*
X163186902Y-98074902D01*
X150978902Y-100832902D02*
X150978902Y-98927902D01*
X151105902Y-100959902D02*
X150978902Y-100832902D01*
D19*
X236818000Y-120735000D02*
X236818000Y-111845000D01*
X235508000Y-122045000D02*
X236818000Y-120735000D01*
X157886902Y-92284902D02*
X157886902Y-101174902D01*
X159196902Y-90974902D02*
X157886902Y-92284902D01*
X225035848Y-111534325D02*
X228727000Y-115225477D01*
X227218000Y-121065000D02*
X227218000Y-127865000D01*
X228727000Y-119556000D02*
X227218000Y-121065000D01*
X228727000Y-115225477D02*
X228727000Y-119556000D01*
X169669054Y-101485577D02*
X165951902Y-97768425D01*
X167486902Y-91954902D02*
X167486902Y-85154902D01*
X165951902Y-93489902D02*
X167486902Y-91954902D01*
X165951902Y-97768425D02*
X165951902Y-93489902D01*
X228146700Y-109738274D02*
X228146700Y-110693700D01*
X229235000Y-118373000D02*
X230118000Y-119265000D01*
X228718000Y-111265000D02*
X228718000Y-113665000D01*
X228718000Y-113665000D02*
X229235000Y-115189000D01*
X229235000Y-115189000D02*
X229235000Y-118373000D01*
X228146700Y-110693700D02*
X228718000Y-111265000D01*
X166558202Y-103281628D02*
X166558202Y-102326202D01*
X165478902Y-94646902D02*
X164586902Y-93754902D01*
X165986902Y-101754902D02*
X165986902Y-99187000D01*
X165986902Y-99187000D02*
X165478902Y-98298000D01*
X165478902Y-98298000D02*
X165478902Y-94646902D01*
X166558202Y-102326202D02*
X165986902Y-101754902D01*
X178118000Y-115565000D02*
X176368000Y-115565000D01*
X176368000Y-115565000D02*
X175368000Y-114565000D01*
X216586902Y-97454902D02*
X218336902Y-97454902D01*
X218336902Y-97454902D02*
X219336902Y-98454902D01*
X191618000Y-113865000D02*
X187918000Y-110165000D01*
X191618000Y-117365000D02*
X191618000Y-113865000D01*
X203086902Y-99154902D02*
X206786902Y-102854902D01*
X203086902Y-95654902D02*
X203086902Y-99154902D01*
X241948000Y-125395000D02*
X239408000Y-122855000D01*
X243218000Y-125395000D02*
X241948000Y-125395000D01*
X243218000Y-123363000D02*
X243218000Y-125395000D01*
X152756902Y-87624902D02*
X155296902Y-90164902D01*
X151486902Y-87624902D02*
X152756902Y-87624902D01*
X151486902Y-89656902D02*
X151486902Y-87624902D01*
X240805000Y-125522000D02*
X238138000Y-122855000D01*
X240805000Y-125903000D02*
X240805000Y-125522000D01*
X242837000Y-127935000D02*
X240805000Y-125903000D01*
X243218000Y-127935000D02*
X242837000Y-127935000D01*
X243218000Y-127935000D02*
X243218000Y-129840000D01*
X153899902Y-87497902D02*
X156566902Y-90164902D01*
X153899902Y-87116902D02*
X153899902Y-87497902D01*
X151867902Y-85084902D02*
X153899902Y-87116902D01*
X151486902Y-85084902D02*
X151867902Y-85084902D01*
X151486902Y-85084902D02*
X151486902Y-83179902D01*
X240688000Y-127335000D02*
X240728000Y-127295000D01*
X239408000Y-125395000D02*
X236868000Y-122855000D01*
X239408000Y-126735000D02*
X239408000Y-125395000D01*
X154016902Y-85684902D02*
X153976902Y-85724902D01*
X155296902Y-87624902D02*
X157836902Y-90164902D01*
X155296902Y-86284902D02*
X155296902Y-87624902D01*
X212171452Y-124822400D02*
X213918000Y-126565000D01*
X220318000Y-125665000D02*
X225418000Y-125665000D01*
X219718000Y-126265000D02*
X220318000Y-125665000D01*
X219718000Y-127065000D02*
X219718000Y-126265000D01*
X219121948Y-127661052D02*
X219718000Y-127065000D01*
X218118000Y-127665000D02*
X219121948Y-127661052D01*
X213918000Y-126565000D02*
X218118000Y-127665000D01*
X212171452Y-124822400D02*
X212171452Y-125018452D01*
X182533450Y-88197502D02*
X180786902Y-86454902D01*
X174386902Y-87354902D02*
X169286902Y-87354902D01*
X174986902Y-86754902D02*
X174386902Y-87354902D01*
X174986902Y-85954902D02*
X174986902Y-86754902D01*
X175582954Y-85358850D02*
X174986902Y-85954902D01*
X176586902Y-85354902D02*
X175582954Y-85358850D01*
X180786902Y-86454902D02*
X176586902Y-85354902D01*
X182533450Y-88197502D02*
X182533450Y-88001450D01*
X220071452Y-109422400D02*
X221728852Y-107765000D01*
X236218000Y-109765000D02*
X235118000Y-110865000D01*
X236218000Y-109065000D02*
X236218000Y-109765000D01*
X235718000Y-108565000D02*
X236218000Y-109065000D01*
X232818000Y-108565000D02*
X235718000Y-108565000D01*
X232218000Y-107965000D02*
X232818000Y-108565000D01*
X229318000Y-107965000D02*
X232218000Y-107965000D01*
X229318000Y-107765000D02*
X229318000Y-107965000D01*
X221728852Y-107765000D02*
X229318000Y-107765000D01*
X174633450Y-103597502D02*
X172976050Y-105254902D01*
X158486902Y-103254902D02*
X159586902Y-102154902D01*
X158486902Y-103954902D02*
X158486902Y-103254902D01*
X158986902Y-104454902D02*
X158486902Y-103954902D01*
X161886902Y-104454902D02*
X158986902Y-104454902D01*
X162486902Y-105054902D02*
X161886902Y-104454902D01*
X165386902Y-105054902D02*
X162486902Y-105054902D01*
X165386902Y-105254902D02*
X165386902Y-105054902D01*
X172976050Y-105254902D02*
X165386902Y-105254902D01*
X179705000Y-101654902D02*
X179251902Y-101654902D01*
X179251902Y-101654902D02*
X178689000Y-101092000D01*
X215024000Y-111298000D02*
X215024000Y-111365000D01*
X198018000Y-109765000D02*
X199618000Y-111365000D01*
X199618000Y-111365000D02*
X215024000Y-111365000D01*
X215913000Y-112187000D02*
X215091000Y-111365000D01*
X215091000Y-111365000D02*
X215024000Y-111298000D01*
X195086902Y-101654902D02*
X179705000Y-101654902D01*
X179705000Y-101654902D02*
X179680902Y-101654902D01*
X196686902Y-103254902D02*
X195086902Y-101654902D01*
X230098000Y-123385000D02*
X231118000Y-122365000D01*
X231118000Y-122365000D02*
X231118000Y-116465000D01*
X231118000Y-116465000D02*
X229942751Y-115289751D01*
X229942751Y-115289751D02*
X229942751Y-112849126D01*
X230098000Y-128125000D02*
X230098000Y-123385000D01*
X231108000Y-129135000D02*
X230098000Y-128125000D01*
X239408000Y-129135000D02*
X231108000Y-129135000D01*
X164606902Y-89634902D02*
X163586902Y-90654902D01*
X163586902Y-90654902D02*
X163586902Y-96554902D01*
X163586902Y-96554902D02*
X164762151Y-97730151D01*
X164762151Y-97730151D02*
X164762151Y-100170776D01*
X164606902Y-84894902D02*
X164606902Y-89634902D01*
X163596902Y-83884902D02*
X164606902Y-84894902D01*
X155296902Y-83884902D02*
X163596902Y-83884902D01*
D18*
X188338000Y-113035000D02*
X170208000Y-113035000D01*
X170208000Y-113035000D02*
X167008000Y-116235000D01*
X167008000Y-116235000D02*
X165868000Y-115095000D01*
X165868000Y-111565000D02*
X167868000Y-109565000D01*
X165868000Y-115095000D02*
X165868000Y-111565000D01*
X206366902Y-99984902D02*
X224496902Y-99984902D01*
X224496902Y-99984902D02*
X227696902Y-96784902D01*
X227696902Y-96784902D02*
X228836902Y-97924902D01*
X228836902Y-101454902D02*
X226836902Y-103454902D01*
X228836902Y-97924902D02*
X228836902Y-101454902D01*
X218518000Y-126465000D02*
X218518000Y-126265000D01*
X218518000Y-126265000D02*
X216618000Y-124365000D01*
X216618000Y-124365000D02*
X215325742Y-124365000D01*
X215325742Y-124365000D02*
X212725742Y-121765000D01*
X212725742Y-121765000D02*
X207818000Y-121765000D01*
X207818000Y-121765000D02*
X207118000Y-121065000D01*
X200305777Y-121115000D02*
X200305777Y-118251457D01*
X176186902Y-86554902D02*
X176186902Y-86754902D01*
X176186902Y-86754902D02*
X178086902Y-88654902D01*
X178086902Y-88654902D02*
X179379160Y-88654902D01*
X179379160Y-88654902D02*
X181979160Y-91254902D01*
X181979160Y-91254902D02*
X186886902Y-91254902D01*
X186886902Y-91254902D02*
X187586902Y-91954902D01*
X194399125Y-91904902D02*
X194399125Y-94768445D01*
D19*
X194618000Y-114665000D02*
X196718000Y-114665000D01*
X196718000Y-114665000D02*
X198218000Y-116165000D01*
X198218000Y-116165000D02*
X198218000Y-117365000D01*
X198218000Y-117365000D02*
X196518000Y-119065000D01*
X196518000Y-119065000D02*
X191318000Y-119065000D01*
X191318000Y-119065000D02*
X190018000Y-117765000D01*
X194618000Y-114665000D02*
X193898000Y-113945000D01*
X200086902Y-98354902D02*
X197986902Y-98354902D01*
X197986902Y-98354902D02*
X196486902Y-96854902D01*
X196486902Y-96854902D02*
X196486902Y-95654902D01*
X196486902Y-95654902D02*
X198186902Y-93954902D01*
X198186902Y-93954902D02*
X203386902Y-93954902D01*
X203386902Y-93954902D02*
X204686902Y-95254902D01*
X200086902Y-98354902D02*
X200806902Y-99074902D01*
M02*
