M48
INCH,TZ
T1C0.025
T2C0.031
T3C0.039
T4C0.040
T5C0.063
T6C0.079
T7C0.087
%
G90
G05
T1
X5.9491Y-3.9748
X5.9641Y-3.2748
X5.9641Y-3.5298
X6.0191Y-3.5648
X6.1141Y-3.5498
X6.1641Y-3.5498
X6.2141Y-3.5498
X6.216Y-3.9833
X6.2515Y-3.947
X6.2676Y-3.5817
X6.2829Y-4.0218
X6.3542Y-3.5341
X6.3696Y-3.8061
X6.3892Y-3.6203
X6.4022Y-3.4183
X6.4798Y-3.6911
X6.4806Y-3.3423
X6.57Y-3.695
X6.5751Y-4.5762
X6.594Y-3.3526
X6.6648Y-3.4392
X6.7436Y-4.0415
X6.8747Y-4.3923
X6.9043Y-4.5104
X6.955Y-4.02
X7.035Y-3.98
X7.1602Y-4.6089
X7.3853Y-3.6203
X7.3983Y-4.3372
X7.4149Y-4.4502
X7.468Y-3.9234
X7.481Y-4.6364
X7.544Y-4.6207
X7.6058Y-4.1124
X7.6338Y-4.486
X7.6424Y-4.4238
X7.6535Y-3.6183
X7.7436Y-4.0652
X7.7606Y-4.599
X7.779Y-3.7876
X7.796Y-4.3215
X7.8861Y-4.7683
X7.8971Y-3.9628
X7.9058Y-3.9006
X7.9338Y-4.2742
X7.9955Y-3.7659
X8.0585Y-3.7502
X8.0716Y-4.4632
X8.1247Y-3.9364
X8.1412Y-4.0494
X8.1543Y-4.7663
X8.3794Y-3.7778
X8.5005Y-4.4168
X8.6353Y-3.8762
X8.6648Y-3.9943
X8.72Y-4.385
X8.796Y-4.3451
X8.8747Y-4.9474
X8.9456Y-5.0341
X8.9644Y-3.8104
X8.965Y-4.69
X9.059Y-5.0443
X9.0598Y-4.6955
X9.1373Y-4.9683
X9.1503Y-4.7663
X9.17Y-4.5805
X9.1854Y-4.8526
X9.2566Y-4.3648
X9.272Y-4.8049
X9.2881Y-4.4396
X9.3235Y-4.4033
X9.3255Y-4.8368
X9.3755Y-4.8368
X9.4255Y-4.8368
X9.5205Y-4.8218
X9.5755Y-4.8568
X9.5755Y-5.1118
X9.5905Y-4.4118
T2
X6.7913Y-4.1933
X6.8504Y-4.1933
X6.9094Y-4.1933
X7.6969Y-4.1933
X7.7559Y-4.1933
X7.815Y-4.1933
T3
X6.1141Y-3.397
X6.8399Y-3.3818
X6.9365Y-3.4077
X7.0331Y-3.4336
X7.1864Y-3.4723
X7.2829Y-3.4982
X7.3795Y-3.5241
X8.16Y-4.8625
X8.2566Y-4.8884
X8.3532Y-4.9143
X8.5065Y-4.9531
X8.6031Y-4.9789
X8.6997Y-5.0048
X9.4255Y-4.9896
T4
X6.4608Y-4.0403
X6.4867Y-3.9437
X6.5574Y-4.0662
X6.5833Y-3.9696
X6.654Y-4.0921
X6.6799Y-3.9955
X6.8925Y-4.0639
X6.9891Y-4.0898
X7.0856Y-4.1157
X8.4539Y-4.2709
X8.5505Y-4.2968
X8.6471Y-4.3227
X8.8597Y-4.3911
X8.8856Y-4.2945
X8.9563Y-4.417
X8.9822Y-4.3204
X9.0529Y-4.4429
X9.0787Y-4.3463
T5
X6.8023Y-5.5073
X8.7373Y-2.8793
T6
X6.511Y-3.6111
X7.3971Y-3.8485
X7.6215Y-3.9086
X7.9181Y-4.478
X8.1425Y-4.5381
X9.0285Y-4.7755
T7
X6.2766Y-3.4778
X6.8023Y-4.3104
X8.7373Y-4.0762
X9.2629Y-4.9089
T0
M30
