%FSLAX46Y46*%
G04 Gerber Fmt 4.6, Leading zero omitted, Abs format (unit mm)*
G04 Created by KiCad (PCBNEW (2014-jul-16 BZR unknown)-product) date Sat 22 Nov 2014 08:56:03 PM CET*
%MOMM*%
G01*
G04 APERTURE LIST*
%ADD10C,0.150000*%
%ADD11C,2.000000*%
%ADD12R,3.000000X3.000000*%
%ADD13C,1.600000*%
%ADD14C,2.200000*%
%ADD15C,1.524000*%
%ADD16R,2.000000X2.000000*%
%ADD17C,0.800000*%
G04 APERTURE END LIST*
D10*
X239408000Y-127535000D02*
X239408000Y-128285000D01*
X155296902Y-85484902D02*
X155296902Y-84734902D01*
D11*
X217183000Y-109139000D03*
X219636452Y-109796400D03*
X214729548Y-108481600D03*
D12*
X178118000Y-115565000D03*
X184118000Y-115565000D03*
X176668000Y-109565000D03*
X167868000Y-109565000D03*
D10*
G36*
X240908000Y-127735000D02*
X237908000Y-127735000D01*
X238908000Y-125735000D01*
X239908000Y-125735000D01*
X240908000Y-127735000D01*
X240908000Y-127735000D01*
G37*
G36*
X237908000Y-128135000D02*
X240908000Y-128135000D01*
X239908000Y-130135000D01*
X238908000Y-130135000D01*
X237908000Y-128135000D01*
X237908000Y-128135000D01*
G37*
G36*
X213151248Y-124256715D02*
X212737137Y-125802196D01*
X211191656Y-125388085D01*
X211605767Y-123842604D01*
X213151248Y-124256715D01*
X213151248Y-124256715D01*
G37*
D13*
X209718000Y-124165000D03*
X207264548Y-123507600D03*
D10*
G36*
X202142894Y-117190797D02*
X201366437Y-120088574D01*
X198468660Y-119312117D01*
X199245117Y-116414340D01*
X202142894Y-117190797D01*
X202142894Y-117190797D01*
G37*
G36*
X196347340Y-115637883D02*
X195570883Y-118535660D01*
X192673106Y-117759203D01*
X193449563Y-114861426D01*
X196347340Y-115637883D01*
X196347340Y-115637883D01*
G37*
D14*
X172778000Y-109485000D03*
X235278000Y-124685000D03*
D13*
X172778000Y-139885000D03*
D10*
G36*
X224102592Y-112073140D02*
X224497033Y-110601069D01*
X225969104Y-110995510D01*
X225574663Y-112467581D01*
X224102592Y-112073140D01*
X224102592Y-112073140D01*
G37*
D15*
X225693249Y-109080874D03*
X227489300Y-112191726D03*
X228146700Y-109738274D03*
X229942751Y-112849126D03*
X230600152Y-110395675D03*
D16*
X237688000Y-109755000D03*
X237688000Y-109755000D03*
X240468000Y-109775000D03*
X240468000Y-109775000D03*
X243188000Y-109775000D03*
X243188000Y-109775000D03*
D10*
G36*
X221951248Y-126556715D02*
X221537137Y-128102196D01*
X219991656Y-127688085D01*
X220405767Y-126142604D01*
X221951248Y-126556715D01*
X221951248Y-126556715D01*
G37*
D13*
X218518000Y-126465000D03*
X216064548Y-125807600D03*
D16*
X243726000Y-121331000D03*
X243726000Y-121331000D03*
X243726000Y-114092000D03*
X243726000Y-114092000D03*
X243218000Y-127935000D03*
X243218000Y-127935000D03*
X243218000Y-125395000D03*
X243218000Y-125395000D03*
D11*
X177521902Y-103880902D03*
X175068450Y-103223502D03*
X179975354Y-104538302D03*
D12*
X216586902Y-97454902D03*
X210586902Y-97454902D03*
X218036902Y-103454902D03*
X226836902Y-103454902D03*
D10*
G36*
X153796902Y-85284902D02*
X156796902Y-85284902D01*
X155796902Y-87284902D01*
X154796902Y-87284902D01*
X153796902Y-85284902D01*
X153796902Y-85284902D01*
G37*
G36*
X156796902Y-84884902D02*
X153796902Y-84884902D01*
X154796902Y-82884902D01*
X155796902Y-82884902D01*
X156796902Y-84884902D01*
X156796902Y-84884902D01*
G37*
G36*
X181553654Y-88763187D02*
X181967765Y-87217706D01*
X183513246Y-87631817D01*
X183099135Y-89177298D01*
X181553654Y-88763187D01*
X181553654Y-88763187D01*
G37*
D13*
X184986902Y-88854902D03*
X187440354Y-89512302D03*
D10*
G36*
X192562008Y-95829105D02*
X193338465Y-92931328D01*
X196236242Y-93707785D01*
X195459785Y-96605562D01*
X192562008Y-95829105D01*
X192562008Y-95829105D01*
G37*
G36*
X198357562Y-97382019D02*
X199134019Y-94484242D01*
X202031796Y-95260699D01*
X201255339Y-98158476D01*
X198357562Y-97382019D01*
X198357562Y-97382019D01*
G37*
D14*
X221926902Y-103534902D03*
X159426902Y-88334902D03*
D13*
X221926902Y-73134902D03*
D10*
G36*
X170602310Y-100946762D02*
X170207869Y-102418833D01*
X168735798Y-102024392D01*
X169130239Y-100552321D01*
X170602310Y-100946762D01*
X170602310Y-100946762D01*
G37*
D15*
X169011653Y-103939028D03*
X167215602Y-100828176D03*
X166558202Y-103281628D03*
X164762151Y-100170776D03*
X164104750Y-102624227D03*
D16*
X157016902Y-103264902D03*
X157016902Y-103264902D03*
X154236902Y-103244902D03*
X154236902Y-103244902D03*
X151516902Y-103244902D03*
X151516902Y-103244902D03*
D10*
G36*
X172753654Y-86463187D02*
X173167765Y-84917706D01*
X174713246Y-85331817D01*
X174299135Y-86877298D01*
X172753654Y-86463187D01*
X172753654Y-86463187D01*
G37*
D13*
X176186902Y-86554902D03*
X178640354Y-87212302D03*
D16*
X150978902Y-91688902D03*
X150978902Y-91688902D03*
X150978902Y-98927902D03*
X150978902Y-98927902D03*
X151486902Y-85084902D03*
X151486902Y-85084902D03*
X151486902Y-87624902D03*
X151486902Y-87624902D03*
D17*
X197000000Y-106509951D03*
X198500000Y-106509951D03*
X195500000Y-106509951D03*
X174000000Y-106509951D03*
X175500000Y-106509951D03*
X172500000Y-106509951D03*
D11*
X206818964Y-115267758D03*
X229325036Y-121298242D03*
X201120002Y-113740726D03*
X187885938Y-97752144D03*
X165379866Y-91721660D03*
X193584900Y-99279176D03*
M02*
