%FSLAX46Y46*%
G04 Gerber Fmt 4.6, Leading zero omitted, Abs format (unit mm)*
G04 Created by KiCad (PCBNEW (2014-jul-16 BZR unknown)-product) date Sat 22 Nov 2014 08:56:03 PM CET*
%MOMM*%
G01*
G04 APERTURE LIST*
%ADD10C,0.150000*%
%ADD11C,2.000000*%
%ADD12R,3.000000X3.000000*%
%ADD13C,1.600000*%
%ADD14R,1.000760X1.000760*%
%ADD15R,0.701040X1.000760*%
%ADD16R,0.599440X1.399540*%
%ADD17R,1.397000X0.889000*%
%ADD18R,0.889000X1.397000*%
%ADD19C,1.524000*%
%ADD20R,0.599440X2.199640*%
%ADD21R,2.000000X2.000000*%
%ADD22C,1.000000*%
%ADD23C,0.889000*%
%ADD24C,0.600000*%
%ADD25C,0.254000*%
G04 APERTURE END LIST*
D10*
D11*
X217183000Y-109139000D03*
X219636452Y-109796400D03*
X214729548Y-108481600D03*
D12*
X167868000Y-109565000D03*
X176668000Y-109565000D03*
D10*
G36*
X240908000Y-127735000D02*
X237908000Y-127735000D01*
X238908000Y-125735000D01*
X239908000Y-125735000D01*
X240908000Y-127735000D01*
X240908000Y-127735000D01*
G37*
G36*
X213151248Y-124256715D02*
X212737137Y-125802196D01*
X211191656Y-125388085D01*
X211605767Y-123842604D01*
X213151248Y-124256715D01*
X213151248Y-124256715D01*
G37*
D13*
X209718000Y-124165000D03*
X207264548Y-123507600D03*
D14*
X166947540Y-112734840D03*
X166947540Y-117835160D03*
X176848000Y-117835000D03*
X176848000Y-112735000D03*
D10*
G36*
X202142894Y-117190797D02*
X201366437Y-120088574D01*
X198468660Y-119312117D01*
X199245117Y-116414340D01*
X202142894Y-117190797D01*
X202142894Y-117190797D01*
G37*
G36*
X196347340Y-115637883D02*
X195570883Y-118535660D01*
X192673106Y-117759203D01*
X193449563Y-114861426D01*
X196347340Y-115637883D01*
X196347340Y-115637883D01*
G37*
D15*
X197528000Y-111405000D03*
X196575500Y-113945000D03*
X198480500Y-113945000D03*
X193988000Y-108005000D03*
X193035500Y-110545000D03*
X194940500Y-110545000D03*
D16*
X183013000Y-115732000D03*
X183013000Y-110398000D03*
X184283000Y-115732000D03*
X185553000Y-115732000D03*
X186823000Y-115732000D03*
X184283000Y-110398000D03*
X185553000Y-110398000D03*
X186823000Y-110398000D03*
D17*
X191418000Y-111517500D03*
X191418000Y-109612500D03*
X189508000Y-114342500D03*
X189508000Y-116247500D03*
D18*
X199465500Y-110465000D03*
X201370500Y-110465000D03*
D10*
G36*
X228318183Y-128401871D02*
X227956613Y-129751269D01*
X227097905Y-129521179D01*
X227459475Y-128171781D01*
X228318183Y-128401871D01*
X228318183Y-128401871D01*
G37*
G36*
X226478095Y-127908821D02*
X226116525Y-129258219D01*
X225257817Y-129028129D01*
X225619387Y-127678731D01*
X226478095Y-127908821D01*
X226478095Y-127908821D01*
G37*
G36*
X228998183Y-126271871D02*
X228636613Y-127621269D01*
X227777905Y-127391179D01*
X228139475Y-126041781D01*
X228998183Y-126271871D01*
X228998183Y-126271871D01*
G37*
G36*
X227158095Y-125778821D02*
X226796525Y-127128219D01*
X225937817Y-126898129D01*
X226299387Y-125548731D01*
X227158095Y-125778821D01*
X227158095Y-125778821D01*
G37*
D17*
X233028000Y-111557500D03*
X233028000Y-109652500D03*
X235168000Y-109672500D03*
X235168000Y-111577500D03*
X180968000Y-110432500D03*
X180968000Y-112337500D03*
D18*
X178715500Y-115285000D03*
X180620500Y-115285000D03*
D17*
X243848000Y-118387500D03*
X243848000Y-116482500D03*
X231968000Y-129337500D03*
X231968000Y-127432500D03*
X234688000Y-127452500D03*
X234688000Y-129357500D03*
X189218000Y-109612500D03*
X189218000Y-111517500D03*
X191618000Y-116217500D03*
X191618000Y-114312500D03*
D10*
G36*
X224102592Y-112073140D02*
X224497033Y-110601069D01*
X225969104Y-110995510D01*
X225574663Y-112467581D01*
X224102592Y-112073140D01*
X224102592Y-112073140D01*
G37*
D19*
X225693249Y-109080874D03*
X227489300Y-112191726D03*
X228146700Y-109738274D03*
X229942751Y-112849126D03*
X230600152Y-110395675D03*
D20*
X241893000Y-119923420D03*
X240623000Y-119923420D03*
X239353000Y-119923420D03*
X238083000Y-119923420D03*
X236813000Y-119923420D03*
X235543000Y-119923420D03*
X234273000Y-119923420D03*
X234273000Y-114726580D03*
X235543000Y-114726580D03*
X236813000Y-114726580D03*
X238083000Y-114726580D03*
X239353000Y-114726580D03*
X240623000Y-114726580D03*
X241893000Y-114726580D03*
D21*
X237688000Y-109755000D03*
X240468000Y-109775000D03*
X243188000Y-109775000D03*
D10*
G36*
X221951248Y-126556715D02*
X221537137Y-128102196D01*
X219991656Y-127688085D01*
X220405767Y-126142604D01*
X221951248Y-126556715D01*
X221951248Y-126556715D01*
G37*
D13*
X218518000Y-126465000D03*
X216064548Y-125807600D03*
D21*
X243726000Y-121331000D03*
X243726000Y-114092000D03*
X243218000Y-127935000D03*
X243218000Y-125395000D03*
D11*
X177521902Y-103880902D03*
X175068450Y-103223502D03*
X179975354Y-104538302D03*
D12*
X226836902Y-103454902D03*
X218036902Y-103454902D03*
D10*
G36*
X153796902Y-85284902D02*
X156796902Y-85284902D01*
X155796902Y-87284902D01*
X154796902Y-87284902D01*
X153796902Y-85284902D01*
X153796902Y-85284902D01*
G37*
G36*
X181553654Y-88763187D02*
X181967765Y-87217706D01*
X183513246Y-87631817D01*
X183099135Y-89177298D01*
X181553654Y-88763187D01*
X181553654Y-88763187D01*
G37*
D13*
X184986902Y-88854902D03*
X187440354Y-89512302D03*
D14*
X227757362Y-100285062D03*
X227757362Y-95184742D03*
X217856902Y-95184902D03*
X217856902Y-100284902D03*
D10*
G36*
X192562008Y-95829105D02*
X193338465Y-92931328D01*
X196236242Y-93707785D01*
X195459785Y-96605562D01*
X192562008Y-95829105D01*
X192562008Y-95829105D01*
G37*
G36*
X198357562Y-97382019D02*
X199134019Y-94484242D01*
X202031796Y-95260699D01*
X201255339Y-98158476D01*
X198357562Y-97382019D01*
X198357562Y-97382019D01*
G37*
D15*
X197176902Y-101614902D03*
X198129402Y-99074902D03*
X196224402Y-99074902D03*
X200716902Y-105014902D03*
X201669402Y-102474902D03*
X199764402Y-102474902D03*
D16*
X211691902Y-97287902D03*
X211691902Y-102621902D03*
X210421902Y-97287902D03*
X209151902Y-97287902D03*
X207881902Y-97287902D03*
X210421902Y-102621902D03*
X209151902Y-102621902D03*
X207881902Y-102621902D03*
D17*
X203286902Y-101502402D03*
X203286902Y-103407402D03*
X205196902Y-98677402D03*
X205196902Y-96772402D03*
D18*
X195239402Y-102554902D03*
X193334402Y-102554902D03*
D10*
G36*
X166386719Y-84618031D02*
X166748289Y-83268633D01*
X167606997Y-83498723D01*
X167245427Y-84848121D01*
X166386719Y-84618031D01*
X166386719Y-84618031D01*
G37*
G36*
X168226807Y-85111081D02*
X168588377Y-83761683D01*
X169447085Y-83991773D01*
X169085515Y-85341171D01*
X168226807Y-85111081D01*
X168226807Y-85111081D01*
G37*
G36*
X165706719Y-86748031D02*
X166068289Y-85398633D01*
X166926997Y-85628723D01*
X166565427Y-86978121D01*
X165706719Y-86748031D01*
X165706719Y-86748031D01*
G37*
G36*
X167546807Y-87241081D02*
X167908377Y-85891683D01*
X168767085Y-86121773D01*
X168405515Y-87471171D01*
X167546807Y-87241081D01*
X167546807Y-87241081D01*
G37*
D17*
X161676902Y-101462402D03*
X161676902Y-103367402D03*
X159536902Y-103347402D03*
X159536902Y-101442402D03*
X213736902Y-102587402D03*
X213736902Y-100682402D03*
D18*
X215989402Y-97734902D03*
X214084402Y-97734902D03*
D17*
X150856902Y-94632402D03*
X150856902Y-96537402D03*
X162736902Y-83682402D03*
X162736902Y-85587402D03*
X160016902Y-85567402D03*
X160016902Y-83662402D03*
X205486902Y-103407402D03*
X205486902Y-101502402D03*
X203086902Y-96802402D03*
X203086902Y-98707402D03*
D10*
G36*
X170602310Y-100946762D02*
X170207869Y-102418833D01*
X168735798Y-102024392D01*
X169130239Y-100552321D01*
X170602310Y-100946762D01*
X170602310Y-100946762D01*
G37*
D19*
X169011653Y-103939028D03*
X167215602Y-100828176D03*
X166558202Y-103281628D03*
X164762151Y-100170776D03*
X164104750Y-102624227D03*
D20*
X152811902Y-93096482D03*
X154081902Y-93096482D03*
X155351902Y-93096482D03*
X156621902Y-93096482D03*
X157891902Y-93096482D03*
X159161902Y-93096482D03*
X160431902Y-93096482D03*
X160431902Y-98293322D03*
X159161902Y-98293322D03*
X157891902Y-98293322D03*
X156621902Y-98293322D03*
X155351902Y-98293322D03*
X154081902Y-98293322D03*
X152811902Y-98293322D03*
D21*
X157016902Y-103264902D03*
X154236902Y-103244902D03*
X151516902Y-103244902D03*
D10*
G36*
X172753654Y-86463187D02*
X173167765Y-84917706D01*
X174713246Y-85331817D01*
X174299135Y-86877298D01*
X172753654Y-86463187D01*
X172753654Y-86463187D01*
G37*
D13*
X176186902Y-86554902D03*
X178640354Y-87212302D03*
D21*
X150978902Y-91688902D03*
X150978902Y-98927902D03*
X151486902Y-85084902D03*
X151486902Y-87624902D03*
D22*
X201518000Y-108565000D03*
X221488000Y-111379000D03*
X176657000Y-102108000D03*
X193186902Y-104454902D03*
X241821000Y-122474000D03*
X152883902Y-90545902D03*
X174618000Y-111565000D03*
X220086902Y-101454902D03*
X205018000Y-113365000D03*
X189686902Y-99654902D03*
D23*
X194118000Y-112365000D03*
X235918000Y-112765000D03*
X200586902Y-100654902D03*
X158786902Y-100254902D03*
D22*
X223418000Y-110365000D03*
X227711000Y-119126000D03*
X171286902Y-102654902D03*
X166878000Y-93853000D03*
X232418000Y-121065000D03*
X197118000Y-116815000D03*
X181868000Y-117065000D03*
X233308000Y-123255000D03*
X232918000Y-116345000D03*
X232088000Y-126195000D03*
X243599000Y-112060000D03*
X162286902Y-91954902D03*
X197586902Y-96204902D03*
X212836902Y-95954902D03*
X161396902Y-89764902D03*
X161786902Y-96674902D03*
X162616902Y-86824902D03*
X151105902Y-100959902D03*
D23*
X236818000Y-111845000D03*
X235508000Y-122045000D03*
X157886902Y-101174902D03*
X159196902Y-90974902D03*
X227218000Y-127865000D03*
X167486902Y-85154902D03*
X230118000Y-119265000D03*
X164586902Y-93754902D03*
X175368000Y-114565000D03*
X219336902Y-98454902D03*
X187918000Y-110165000D03*
X191618000Y-117365000D03*
X206786902Y-102854902D03*
X203086902Y-95654902D03*
X239408000Y-122855000D03*
X243218000Y-123363000D03*
X155296902Y-90164902D03*
X151486902Y-89656902D03*
X238138000Y-122855000D03*
X243218000Y-129840000D03*
X156566902Y-90164902D03*
X151486902Y-83179902D03*
X236868000Y-122855000D03*
X157836902Y-90164902D03*
X225418000Y-125665000D03*
X169286902Y-87354902D03*
X235118000Y-110865000D03*
X159586902Y-102154902D03*
X178689000Y-101092000D03*
X198018000Y-109765000D03*
X215913000Y-112187000D03*
X196686902Y-103254902D03*
X230098000Y-128125000D03*
X164606902Y-84894902D03*
D22*
X188338000Y-113035000D03*
X167008000Y-116235000D03*
X206366902Y-99984902D03*
X227696902Y-96784902D03*
X207118000Y-121065000D03*
X200305777Y-121115000D03*
X187586902Y-91954902D03*
X194399125Y-91904902D03*
D23*
X193898000Y-113945000D03*
X190018000Y-117765000D03*
X200806902Y-99074902D03*
X204686902Y-95254902D03*
D24*
X189672000Y-108011000D02*
X189678000Y-108005000D01*
X189678000Y-108005000D02*
X193988000Y-108005000D01*
X193988000Y-108005000D02*
X200958000Y-108005000D01*
X200958000Y-108005000D02*
X201518000Y-108565000D01*
X221488000Y-111379000D02*
X222495082Y-111379000D01*
X222495082Y-111379000D02*
X223354541Y-112238459D01*
X225806000Y-113411000D02*
X230055541Y-117660541D01*
X224023541Y-112907459D02*
X225806000Y-113411000D01*
X223354541Y-112238459D02*
X224023541Y-112907459D01*
X230055541Y-117660541D02*
X243125500Y-117665000D01*
X243125500Y-117665000D02*
X243848000Y-118387500D01*
X171350361Y-100781443D02*
X170517918Y-99949000D01*
X176657000Y-102108000D02*
X176022000Y-101473000D01*
X176022000Y-101473000D02*
X172041918Y-101473000D01*
X172041918Y-101473000D02*
X171350361Y-100781443D01*
X200716902Y-105014902D02*
X193746902Y-105014902D01*
X193746902Y-105014902D02*
X193186902Y-104454902D01*
X169291000Y-99949000D02*
X164696902Y-95354902D01*
X170517918Y-99949000D02*
X169291000Y-99949000D01*
X164719000Y-95354902D02*
X151579402Y-95354902D01*
X151579402Y-95354902D02*
X150856902Y-94632402D01*
X183013000Y-110398000D02*
X181002500Y-110398000D01*
X181002500Y-110398000D02*
X180968000Y-110432500D01*
X183818000Y-109065000D02*
X183013000Y-109870000D01*
X186618000Y-109065000D02*
X183818000Y-109065000D01*
X187118000Y-108565000D02*
X186618000Y-109065000D01*
X189118000Y-108565000D02*
X187118000Y-108565000D01*
X189672000Y-108011000D02*
X189118000Y-108565000D01*
X183013000Y-109870000D02*
X183013000Y-110398000D01*
X237068000Y-126475000D02*
X237068000Y-125195000D01*
X237068000Y-125195000D02*
X238138000Y-124125000D01*
X238138000Y-124125000D02*
X240608000Y-124125000D01*
X240608000Y-124125000D02*
X241893000Y-122840000D01*
X241893000Y-122840000D02*
X241893000Y-119923420D01*
X234688000Y-127452500D02*
X236090500Y-127452500D01*
X236090500Y-127452500D02*
X237068000Y-126475000D01*
X241893000Y-119923420D02*
X242312080Y-119923420D01*
X242312080Y-119923420D02*
X243848000Y-118387500D01*
X243848000Y-121209000D02*
X243726000Y-121331000D01*
X243848000Y-118387500D02*
X243848000Y-121209000D01*
X242964000Y-121331000D02*
X243726000Y-121331000D01*
X241821000Y-122474000D02*
X242964000Y-121331000D01*
X211691902Y-102621902D02*
X213702402Y-102621902D01*
X213702402Y-102621902D02*
X213736902Y-102587402D01*
X200716902Y-105014902D02*
X205026902Y-105014902D01*
X210886902Y-103954902D02*
X211691902Y-103149902D01*
X208086902Y-103954902D02*
X210886902Y-103954902D01*
X207586902Y-104454902D02*
X208086902Y-103954902D01*
X205586902Y-104454902D02*
X207586902Y-104454902D01*
X205026902Y-105014902D02*
X205586902Y-104454902D01*
X211691902Y-103149902D02*
X211691902Y-102621902D01*
X157636902Y-86544902D02*
X157636902Y-87824902D01*
X157636902Y-87824902D02*
X156566902Y-88894902D01*
X156566902Y-88894902D02*
X154096902Y-88894902D01*
X154096902Y-88894902D02*
X152811902Y-90179902D01*
X152811902Y-90179902D02*
X152811902Y-93096482D01*
X160016902Y-85567402D02*
X158614402Y-85567402D01*
X158614402Y-85567402D02*
X157636902Y-86544902D01*
X152811902Y-93096482D02*
X152392822Y-93096482D01*
X152392822Y-93096482D02*
X150856902Y-94632402D01*
X150856902Y-91810902D02*
X150978902Y-91688902D01*
X150856902Y-94632402D02*
X150856902Y-91810902D01*
X151740902Y-91688902D02*
X150978902Y-91688902D01*
X152883902Y-90545902D02*
X151740902Y-91688902D01*
X174618000Y-111565000D02*
X174643000Y-111590000D01*
X174643000Y-111590000D02*
X174618000Y-111565000D01*
X174618000Y-111565000D02*
X174618000Y-111615000D01*
X166947540Y-112734840D02*
X173498160Y-112734840D01*
X173498160Y-112734840D02*
X174618000Y-111615000D01*
X174618000Y-111615000D02*
X176668000Y-109565000D01*
X220086902Y-101454902D02*
X220061902Y-101429902D01*
X220061902Y-101429902D02*
X220086902Y-101454902D01*
X220086902Y-101454902D02*
X220086902Y-101404902D01*
X227757362Y-100285062D02*
X221206742Y-100285062D01*
X221206742Y-100285062D02*
X220086902Y-101404902D01*
X220086902Y-101404902D02*
X218036902Y-103454902D01*
X214518000Y-111865000D02*
X206518000Y-111865000D01*
X206518000Y-111865000D02*
X205018000Y-113365000D01*
X217618000Y-108765000D02*
X214518000Y-111865000D01*
X180186902Y-101154902D02*
X188186902Y-101154902D01*
X188186902Y-101154902D02*
X189686902Y-99654902D01*
X177086902Y-104254902D02*
X180186902Y-101154902D01*
D25*
X191418000Y-111517500D02*
X193270500Y-111517500D01*
X193270500Y-111517500D02*
X194118000Y-112365000D01*
X235918000Y-112765000D02*
X236813000Y-113660000D01*
X236813000Y-113660000D02*
X236813000Y-114726580D01*
X203286902Y-101502402D02*
X201434402Y-101502402D01*
X201434402Y-101502402D02*
X200586902Y-100654902D01*
X158786902Y-100254902D02*
X157891902Y-99359902D01*
X157891902Y-99359902D02*
X157891902Y-98293322D01*
D24*
X216075400Y-108107600D02*
X216918000Y-107265000D01*
X216918000Y-107265000D02*
X221618000Y-107265000D01*
X221618000Y-107265000D02*
X223418000Y-109065000D01*
X223418000Y-109065000D02*
X223418000Y-110365000D01*
X215164548Y-108107600D02*
X216075400Y-108107600D01*
X178629502Y-104912302D02*
X177786902Y-105754902D01*
X177786902Y-105754902D02*
X173086902Y-105754902D01*
X173086902Y-105754902D02*
X171286902Y-103954902D01*
X171286902Y-103954902D02*
X171286902Y-102654902D01*
X179540354Y-104912302D02*
X178629502Y-104912302D01*
X166878000Y-93599000D02*
X167132000Y-93345000D01*
X166878000Y-93853000D02*
X166878000Y-93599000D01*
X194510223Y-116698543D02*
X192124180Y-114312500D01*
X192124180Y-114312500D02*
X191618000Y-114312500D01*
X191618000Y-114312500D02*
X189538000Y-114312500D01*
X189538000Y-114312500D02*
X189508000Y-114342500D01*
X189508000Y-114342500D02*
X186795500Y-114342500D01*
X186795500Y-114342500D02*
X185553000Y-113100000D01*
X185553000Y-115732000D02*
X185553000Y-113100000D01*
X185553000Y-113100000D02*
X185553000Y-110398000D01*
X180968000Y-112337500D02*
X183445500Y-112337500D01*
X184283000Y-111500000D02*
X184283000Y-110398000D01*
X183445500Y-112337500D02*
X184283000Y-111500000D01*
D25*
X230572877Y-109859950D02*
X231039666Y-110329042D01*
D24*
X197001543Y-116698543D02*
X194510223Y-116698543D01*
X197118000Y-116815000D02*
X197001543Y-116698543D01*
X176848000Y-117835000D02*
X177618000Y-117065000D01*
X177618000Y-117065000D02*
X181868000Y-117065000D01*
X180620500Y-116062500D02*
X180620500Y-115285000D01*
X179618000Y-117065000D02*
X180620500Y-116062500D01*
X177618000Y-117065000D02*
X179618000Y-117065000D01*
X233308000Y-124975000D02*
X232088000Y-126195000D01*
X233308000Y-123255000D02*
X233308000Y-124975000D01*
X232088000Y-127312500D02*
X231968000Y-127432500D01*
X232088000Y-126195000D02*
X232088000Y-127312500D01*
X193793766Y-117415000D02*
X194510223Y-116698543D01*
X194510223Y-116698543D02*
X195726957Y-116698543D01*
X189508000Y-114342500D02*
X189705500Y-114342500D01*
X189508000Y-114342500D02*
X189048000Y-114342500D01*
X241893000Y-114726580D02*
X241893000Y-115950000D01*
X241893000Y-115950000D02*
X241098000Y-116745000D01*
X243848000Y-116482500D02*
X243648920Y-116482500D01*
X243648920Y-116482500D02*
X241893000Y-114726580D01*
D25*
X229928000Y-110465000D02*
X230188000Y-110725000D01*
D24*
X233518000Y-116345000D02*
X232918000Y-116345000D01*
X241098000Y-116745000D02*
X233918000Y-116745000D01*
X233918000Y-116745000D02*
X233518000Y-116345000D01*
X216007148Y-107265000D02*
X215164548Y-108107600D01*
X219618000Y-107265000D02*
X216007148Y-107265000D01*
X219918000Y-107565000D02*
X219618000Y-107265000D01*
X226418000Y-107565000D02*
X219918000Y-107565000D01*
X226818000Y-107965000D02*
X226418000Y-107565000D01*
X229418000Y-107965000D02*
X226818000Y-107965000D01*
X230600152Y-109147152D02*
X229418000Y-107965000D01*
X230600152Y-110395675D02*
X230600152Y-109147152D01*
X232284825Y-110395675D02*
X233028000Y-109652500D01*
X230600152Y-110395675D02*
X232284825Y-110395675D01*
X201370500Y-110465000D02*
X201370500Y-110912500D01*
X203727900Y-108107600D02*
X204627900Y-108107600D01*
X204627900Y-108107600D02*
X215164548Y-108107600D01*
X201370500Y-110465000D02*
X203727900Y-108107600D01*
X243726000Y-112187000D02*
X243599000Y-112060000D01*
X243726000Y-114092000D02*
X243726000Y-112187000D01*
X243848000Y-114214000D02*
X243726000Y-114092000D01*
X243848000Y-116482500D02*
X243848000Y-114214000D01*
X200194679Y-96321359D02*
X202580722Y-98707402D01*
X202580722Y-98707402D02*
X203086902Y-98707402D01*
X203086902Y-98707402D02*
X205166902Y-98707402D01*
X205166902Y-98707402D02*
X205196902Y-98677402D01*
X205196902Y-98677402D02*
X207909402Y-98677402D01*
X207909402Y-98677402D02*
X209151902Y-99919902D01*
X209151902Y-97287902D02*
X209151902Y-99919902D01*
X209151902Y-99919902D02*
X209151902Y-102621902D01*
X213736902Y-100682402D02*
X211259402Y-100682402D01*
X210421902Y-101519902D02*
X210421902Y-102621902D01*
X211259402Y-100682402D02*
X210421902Y-101519902D01*
D25*
X164132025Y-103159952D02*
X163665236Y-102690860D01*
D24*
X197703359Y-96321359D02*
X200194679Y-96321359D01*
X197586902Y-96204902D02*
X197703359Y-96321359D01*
X217856902Y-95184902D02*
X217086902Y-95954902D01*
X217086902Y-95954902D02*
X212836902Y-95954902D01*
X214084402Y-96957402D02*
X214084402Y-97734902D01*
X215086902Y-95954902D02*
X214084402Y-96957402D01*
X217086902Y-95954902D02*
X215086902Y-95954902D01*
X161396902Y-88044902D02*
X162616902Y-86824902D01*
X161396902Y-89764902D02*
X161396902Y-88044902D01*
X162616902Y-85707402D02*
X162736902Y-85587402D01*
X162616902Y-86824902D02*
X162616902Y-85707402D01*
X200911136Y-95604902D02*
X200194679Y-96321359D01*
X200194679Y-96321359D02*
X198977945Y-96321359D01*
X205196902Y-98677402D02*
X204999402Y-98677402D01*
X205196902Y-98677402D02*
X205656902Y-98677402D01*
X152811902Y-98293322D02*
X152811902Y-97069902D01*
X152811902Y-97069902D02*
X153606902Y-96274902D01*
X150856902Y-96537402D02*
X151055982Y-96537402D01*
X151055982Y-96537402D02*
X152811902Y-98293322D01*
D25*
X164776902Y-102554902D02*
X164516902Y-102294902D01*
D24*
X161186902Y-96674902D02*
X161786902Y-96674902D01*
X153606902Y-96274902D02*
X160786902Y-96274902D01*
X160786902Y-96274902D02*
X161186902Y-96674902D01*
X178697754Y-105754902D02*
X179540354Y-104912302D01*
X175086902Y-105754902D02*
X178697754Y-105754902D01*
X174786902Y-105454902D02*
X175086902Y-105754902D01*
X168286902Y-105454902D02*
X174786902Y-105454902D01*
X167886902Y-105054902D02*
X168286902Y-105454902D01*
X165286902Y-105054902D02*
X167886902Y-105054902D01*
X164104750Y-103872750D02*
X165286902Y-105054902D01*
X164104750Y-102624227D02*
X164104750Y-103872750D01*
X162420077Y-102624227D02*
X161676902Y-103367402D01*
X164104750Y-102624227D02*
X162420077Y-102624227D01*
X193334402Y-102554902D02*
X193334402Y-102107402D01*
X190977002Y-104912302D02*
X190077002Y-104912302D01*
X190077002Y-104912302D02*
X179540354Y-104912302D01*
X193334402Y-102554902D02*
X190977002Y-104912302D01*
X150978902Y-100832902D02*
X151105902Y-100959902D01*
X150978902Y-98927902D02*
X150978902Y-100832902D01*
X150856902Y-98805902D02*
X150978902Y-98927902D01*
X150856902Y-96537402D02*
X150856902Y-98805902D01*
D25*
X235543000Y-119923420D02*
X235543000Y-122010000D01*
X236308000Y-110812500D02*
X235168000Y-109672500D01*
X236308000Y-111335000D02*
X236308000Y-110812500D01*
X236818000Y-111845000D02*
X236308000Y-111335000D01*
X235543000Y-122010000D02*
X235508000Y-122045000D01*
X159161902Y-93096482D02*
X159161902Y-91009902D01*
X158396902Y-102207402D02*
X159536902Y-103347402D01*
X158396902Y-101684902D02*
X158396902Y-102207402D01*
X157886902Y-101174902D02*
X158396902Y-101684902D01*
X159161902Y-91009902D02*
X159196902Y-90974902D01*
X227218000Y-127865000D02*
X227218000Y-128471481D01*
X227218000Y-128471481D02*
X227708044Y-128961525D01*
X234273000Y-114726580D02*
X228228103Y-114726580D01*
X228228103Y-114726580D02*
X225035848Y-111534325D01*
X167486902Y-85154902D02*
X167486902Y-84548421D01*
X167486902Y-84548421D02*
X166996858Y-84058377D01*
X160431902Y-98293322D02*
X166476799Y-98293322D01*
X166476799Y-98293322D02*
X169669054Y-101485577D01*
X230776420Y-119923420D02*
X234273000Y-119923420D01*
X230118000Y-119265000D02*
X230776420Y-119923420D01*
X228388044Y-126831525D02*
X234273000Y-120946569D01*
X234273000Y-120946569D02*
X234273000Y-119923420D01*
X163928482Y-93096482D02*
X160431902Y-93096482D01*
X164586902Y-93754902D02*
X163928482Y-93096482D01*
X166316858Y-86188377D02*
X160431902Y-92073333D01*
X160431902Y-92073333D02*
X160431902Y-93096482D01*
X183013000Y-115732000D02*
X183013000Y-115260000D01*
X183013000Y-115260000D02*
X181718000Y-113965000D01*
X181718000Y-113965000D02*
X180035500Y-113965000D01*
X180035500Y-113965000D02*
X178715500Y-115285000D01*
X175368000Y-114215000D02*
X176848000Y-112735000D01*
X175368000Y-114565000D02*
X175368000Y-114215000D01*
D24*
X178715500Y-115285000D02*
X178715500Y-114607500D01*
X176848000Y-112735000D02*
X178715500Y-114602500D01*
X178715500Y-114602500D02*
X178715500Y-115285000D01*
D25*
X211691902Y-97287902D02*
X211691902Y-97759902D01*
X211691902Y-97759902D02*
X212986902Y-99054902D01*
X212986902Y-99054902D02*
X214669402Y-99054902D01*
X214669402Y-99054902D02*
X215989402Y-97734902D01*
X219336902Y-98804902D02*
X217856902Y-100284902D01*
X219336902Y-98454902D02*
X219336902Y-98804902D01*
D24*
X215989402Y-97734902D02*
X215989402Y-98412402D01*
X217856902Y-100284902D02*
X215989402Y-98417402D01*
X215989402Y-98417402D02*
X215989402Y-97734902D01*
D25*
X197528000Y-111405000D02*
X195800500Y-111405000D01*
X195800500Y-111405000D02*
X194940500Y-110545000D01*
X197528000Y-111405000D02*
X197528000Y-110575000D01*
X196135500Y-109182500D02*
X193035500Y-109182500D01*
X197528000Y-110575000D02*
X196135500Y-109182500D01*
X189218000Y-109612500D02*
X190144498Y-108686002D01*
X192539002Y-108686002D02*
X193035500Y-109182500D01*
X192418000Y-108686002D02*
X192539002Y-108686002D01*
X190144498Y-108686002D02*
X192418000Y-108686002D01*
X191618000Y-116217500D02*
X191618000Y-117365000D01*
X188665500Y-110165000D02*
X189218000Y-109612500D01*
X187918000Y-110165000D02*
X188665500Y-110165000D01*
X194940500Y-110545000D02*
X194940500Y-110927500D01*
X197176902Y-101614902D02*
X198904402Y-101614902D01*
X198904402Y-101614902D02*
X199764402Y-102474902D01*
X197176902Y-101614902D02*
X197176902Y-102444902D01*
X198569402Y-103837402D02*
X201669402Y-103837402D01*
X197176902Y-102444902D02*
X198569402Y-103837402D01*
X205486902Y-103407402D02*
X204560404Y-104333900D01*
X202165900Y-104333900D02*
X201669402Y-103837402D01*
X202286902Y-104333900D02*
X202165900Y-104333900D01*
X204560404Y-104333900D02*
X202286902Y-104333900D01*
X203086902Y-96802402D02*
X203086902Y-95654902D01*
X206039402Y-102854902D02*
X205486902Y-103407402D01*
X206786902Y-102854902D02*
X206039402Y-102854902D01*
X199764402Y-102474902D02*
X199764402Y-102092402D01*
X237708000Y-108755000D02*
X237708000Y-112775000D01*
X238083000Y-113150000D02*
X238083000Y-114726580D01*
X237708000Y-112775000D02*
X238083000Y-113150000D01*
X156996902Y-104264902D02*
X156996902Y-100244902D01*
X156621902Y-99869902D02*
X156621902Y-98293322D01*
X156996902Y-100244902D02*
X156621902Y-99869902D01*
X239353000Y-114726580D02*
X239353000Y-112830000D01*
X240468000Y-111715000D02*
X240468000Y-109775000D01*
X239353000Y-112830000D02*
X240468000Y-111715000D01*
X155351902Y-98293322D02*
X155351902Y-100189902D01*
X154236902Y-101304902D02*
X154236902Y-103244902D01*
X155351902Y-100189902D02*
X154236902Y-101304902D01*
X240623000Y-114726580D02*
X240623000Y-113010000D01*
X243128000Y-110505000D02*
X243128000Y-108755000D01*
X240623000Y-113010000D02*
X243128000Y-110505000D01*
X154081902Y-98293322D02*
X154081902Y-100009902D01*
X151576902Y-102514902D02*
X151576902Y-104264902D01*
X154081902Y-100009902D02*
X151576902Y-102514902D01*
X239408000Y-122855000D02*
X240623000Y-121640000D01*
X240623000Y-121640000D02*
X240623000Y-119923420D01*
X243218000Y-125395000D02*
X243218000Y-123363000D01*
X155296902Y-90164902D02*
X154081902Y-91379902D01*
X154081902Y-91379902D02*
X154081902Y-93096482D01*
X151486902Y-87624902D02*
X151486902Y-89656902D01*
X239353000Y-121640000D02*
X239353000Y-119923420D01*
X238138000Y-122855000D02*
X239353000Y-121640000D01*
X243218000Y-129840000D02*
X243218000Y-127935000D01*
X155351902Y-91379902D02*
X155351902Y-93096482D01*
X156566902Y-90164902D02*
X155351902Y-91379902D01*
X151486902Y-83179902D02*
X151486902Y-85084902D01*
X236868000Y-122855000D02*
X238083000Y-121640000D01*
X238083000Y-121640000D02*
X238083000Y-119923420D01*
X157836902Y-90164902D02*
X156621902Y-91379902D01*
X156621902Y-91379902D02*
X156621902Y-93096482D01*
X225418000Y-125665000D02*
X226091475Y-126338475D01*
X226091475Y-126338475D02*
X226547956Y-126338475D01*
X212528852Y-124465000D02*
X212171452Y-124822400D01*
X212171452Y-124611548D02*
X212171452Y-124822400D01*
X169286902Y-87354902D02*
X168613427Y-86681427D01*
X168613427Y-86681427D02*
X168156946Y-86681427D01*
X182176050Y-88554902D02*
X182533450Y-88197502D01*
X182533450Y-88408354D02*
X182533450Y-88197502D01*
X222317527Y-128468475D02*
X220971452Y-127122400D01*
X225867956Y-128468475D02*
X222317527Y-128468475D01*
X172387375Y-84551427D02*
X173733450Y-85897502D01*
X168836946Y-84551427D02*
X172387375Y-84551427D01*
X235168000Y-110915000D02*
X235168000Y-111577500D01*
X235118000Y-110865000D02*
X235168000Y-110915000D01*
X233028000Y-111557500D02*
X235148000Y-111557500D01*
X235148000Y-111557500D02*
X235168000Y-111577500D01*
X159536902Y-102104902D02*
X159536902Y-101442402D01*
X159586902Y-102154902D02*
X159536902Y-102104902D01*
X161676902Y-101462402D02*
X159556902Y-101462402D01*
X159556902Y-101462402D02*
X159536902Y-101442402D01*
X223180000Y-113027000D02*
X222421000Y-112268000D01*
X236813000Y-118860000D02*
X236318000Y-118365000D01*
X223180000Y-113027000D02*
X223859500Y-113706500D01*
X223859500Y-113706500D02*
X225488500Y-114236500D01*
X225488500Y-114236500D02*
X229575500Y-118323500D01*
X229575500Y-118323500D02*
X236318000Y-118365000D01*
X215994000Y-112268000D02*
X215913000Y-112187000D01*
X222421000Y-112268000D02*
X215994000Y-112268000D01*
X171529000Y-99997000D02*
X170847143Y-99315143D01*
X169673143Y-99315143D02*
X165012902Y-94654902D01*
X170847143Y-99315143D02*
X169673143Y-99315143D01*
X158386902Y-94654902D02*
X157891902Y-94159902D01*
X165012902Y-94654902D02*
X158386902Y-94654902D01*
X172377998Y-100845998D02*
X171529000Y-99997000D01*
X171529000Y-99997000D02*
X171524902Y-99992902D01*
X178442998Y-100845998D02*
X172377998Y-100845998D01*
X178689000Y-101092000D02*
X178442998Y-100845998D01*
X193035500Y-110545000D02*
X193443000Y-110545000D01*
X195363000Y-112465000D02*
X198218000Y-112465000D01*
X193443000Y-110545000D02*
X195363000Y-112465000D01*
X198218000Y-112465000D02*
X199465500Y-111217500D01*
X198718000Y-110465000D02*
X198018000Y-109765000D01*
X199465500Y-110465000D02*
X198718000Y-110465000D01*
X236813000Y-119923420D02*
X236813000Y-118850000D01*
X199465500Y-111217500D02*
X199465500Y-110465000D01*
X236813000Y-118860000D02*
X236813000Y-119923420D01*
X201669402Y-102474902D02*
X201261902Y-102474902D01*
X201261902Y-102474902D02*
X199341902Y-100554902D01*
X157891902Y-93096482D02*
X157891902Y-94169902D01*
X157891902Y-94159902D02*
X157891902Y-93096482D01*
X199341902Y-100554902D02*
X196486902Y-100554902D01*
X196486902Y-100554902D02*
X195239402Y-101802402D01*
X195239402Y-101802402D02*
X195239402Y-102554902D01*
X195239402Y-102554902D02*
X195986902Y-102554902D01*
X195986902Y-102554902D02*
X196686902Y-103254902D01*
X231968000Y-129337500D02*
X234668000Y-129337500D01*
X234668000Y-129337500D02*
X234688000Y-129357500D01*
X231310500Y-129337500D02*
X230098000Y-128125000D01*
X231310500Y-129337500D02*
X231968000Y-129337500D01*
X162736902Y-83682402D02*
X160036902Y-83682402D01*
X160036902Y-83682402D02*
X160016902Y-83662402D01*
X163394402Y-83682402D02*
X164606902Y-84894902D01*
X163394402Y-83682402D02*
X162736902Y-83682402D01*
X235543000Y-114726580D02*
X235543000Y-113790000D01*
X235543000Y-113790000D02*
X234418000Y-112665000D01*
X234418000Y-112665000D02*
X231418000Y-112665000D01*
X231418000Y-112665000D02*
X230318000Y-111565000D01*
X230318000Y-111565000D02*
X228116026Y-111565000D01*
X228116026Y-111565000D02*
X227489300Y-112191726D01*
X227678000Y-111925000D02*
X227678000Y-112283026D01*
X159161902Y-98293322D02*
X159161902Y-99229902D01*
X159161902Y-99229902D02*
X160286902Y-100354902D01*
X160286902Y-100354902D02*
X163286902Y-100354902D01*
X163286902Y-100354902D02*
X164386902Y-101454902D01*
X164386902Y-101454902D02*
X166588876Y-101454902D01*
X166588876Y-101454902D02*
X167215602Y-100828176D01*
X167026902Y-101094902D02*
X167026902Y-100736876D01*
D24*
X189218000Y-111517500D02*
X188338000Y-112397500D01*
X188338000Y-112397500D02*
X188338000Y-113035000D01*
X167008000Y-116235000D02*
X165868000Y-115095000D01*
X165868000Y-111565000D02*
X167868000Y-109565000D01*
X165868000Y-115095000D02*
X165868000Y-111565000D01*
X189588000Y-111847500D02*
X189525500Y-111847500D01*
X167008000Y-117774700D02*
X166947540Y-117835160D01*
X167008000Y-116235000D02*
X167008000Y-117774700D01*
X205486902Y-101502402D02*
X206366902Y-100622402D01*
X206366902Y-100622402D02*
X206366902Y-99984902D01*
X227696902Y-96784902D02*
X228836902Y-97924902D01*
X228836902Y-101454902D02*
X226836902Y-103454902D01*
X228836902Y-97924902D02*
X228836902Y-101454902D01*
X205116902Y-101172402D02*
X205179402Y-101172402D01*
X227696902Y-95245202D02*
X227757362Y-95184742D01*
X227696902Y-96784902D02*
X227696902Y-95245202D01*
X207118000Y-121065000D02*
X207118000Y-121115000D01*
X207118000Y-121115000D02*
X207168000Y-121115000D01*
X200305777Y-118251457D02*
X200305777Y-121115000D01*
X207168000Y-121115000D02*
X200305777Y-121115000D01*
X208518000Y-122465000D02*
X207168000Y-121115000D01*
X209718000Y-123665000D02*
X208518000Y-122465000D01*
X209718000Y-124165000D02*
X209718000Y-123665000D01*
X187586902Y-91954902D02*
X187586902Y-91904902D01*
X187586902Y-91904902D02*
X187536902Y-91904902D01*
X194399125Y-94768445D02*
X194399125Y-91904902D01*
X187536902Y-91904902D02*
X194399125Y-91904902D01*
X186186902Y-90554902D02*
X187536902Y-91904902D01*
X184986902Y-89354902D02*
X186186902Y-90554902D01*
X184986902Y-88854902D02*
X184986902Y-89354902D01*
D25*
X198480500Y-113945000D02*
X197611500Y-113076000D01*
X194767000Y-113076000D02*
X193898000Y-113945000D01*
X197611500Y-113076000D02*
X194767000Y-113076000D01*
X190018000Y-117765000D02*
X189508000Y-117255000D01*
X189508000Y-116247500D02*
X189508000Y-117255000D01*
X193898000Y-113945000D02*
X193018000Y-113065000D01*
X193018000Y-113065000D02*
X191018000Y-113065000D01*
X191018000Y-113065000D02*
X190318000Y-112365000D01*
X190318000Y-112365000D02*
X190318000Y-110712500D01*
X190318000Y-110712500D02*
X191418000Y-109612500D01*
D24*
X198480500Y-114357500D02*
X198480500Y-113945000D01*
X198480500Y-113802500D02*
X198480500Y-113945000D01*
D25*
X196224402Y-99074902D02*
X197093402Y-99943902D01*
X199937902Y-99943902D02*
X200806902Y-99074902D01*
X197093402Y-99943902D02*
X199937902Y-99943902D01*
X204686902Y-95254902D02*
X205196902Y-95764902D01*
X205196902Y-96772402D02*
X205196902Y-95764902D01*
X200806902Y-99074902D02*
X201686902Y-99954902D01*
X201686902Y-99954902D02*
X203686902Y-99954902D01*
X203686902Y-99954902D02*
X204386902Y-100654902D01*
X204386902Y-100654902D02*
X204386902Y-102307402D01*
X204386902Y-102307402D02*
X203286902Y-103407402D01*
D24*
X196224402Y-98662402D02*
X196224402Y-99074902D01*
X196224402Y-99217402D02*
X196224402Y-99074902D01*
D25*
G36*
X168541644Y-105256513D02*
X165651898Y-105039782D01*
X168120044Y-105023244D01*
X168219283Y-105122657D01*
X168541644Y-105256513D01*
X168541644Y-105256513D01*
G37*
X168541644Y-105256513D02*
X165651898Y-105039782D01*
X168120044Y-105023244D01*
X168219283Y-105122657D01*
X168541644Y-105256513D01*
G36*
X176798827Y-105351007D02*
X176679692Y-105374706D01*
X176423751Y-105480720D01*
X176269634Y-105583698D01*
X176153615Y-105699717D01*
X176087046Y-105633032D01*
X175706777Y-105475131D01*
X175295029Y-105474772D01*
X174914485Y-105632009D01*
X174749968Y-105796238D01*
X174587046Y-105633032D01*
X174206777Y-105475131D01*
X173795029Y-105474772D01*
X173414485Y-105632009D01*
X173249968Y-105796238D01*
X173087046Y-105633032D01*
X172706777Y-105475131D01*
X172295029Y-105474772D01*
X171914485Y-105632009D01*
X171846521Y-105699853D01*
X171795661Y-105648993D01*
X171730366Y-105583698D01*
X171730364Y-105583697D01*
X171576249Y-105480720D01*
X171320308Y-105374706D01*
X171138515Y-105338545D01*
X171068587Y-105338545D01*
X171000000Y-105324902D01*
X169453496Y-105324902D01*
X169336976Y-105316163D01*
X169801956Y-105124038D01*
X169914973Y-105011218D01*
X176297332Y-104968453D01*
X176594539Y-105266180D01*
X176798827Y-105351007D01*
X176798827Y-105351007D01*
G37*
X176798827Y-105351007D02*
X176679692Y-105374706D01*
X176423751Y-105480720D01*
X176269634Y-105583698D01*
X176153615Y-105699717D01*
X176087046Y-105633032D01*
X175706777Y-105475131D01*
X175295029Y-105474772D01*
X174914485Y-105632009D01*
X174749968Y-105796238D01*
X174587046Y-105633032D01*
X174206777Y-105475131D01*
X173795029Y-105474772D01*
X173414485Y-105632009D01*
X173249968Y-105796238D01*
X173087046Y-105633032D01*
X172706777Y-105475131D01*
X172295029Y-105474772D01*
X171914485Y-105632009D01*
X171846521Y-105699853D01*
X171795661Y-105648993D01*
X171730366Y-105583698D01*
X171730364Y-105583697D01*
X171576249Y-105480720D01*
X171320308Y-105374706D01*
X171138515Y-105338545D01*
X171068587Y-105338545D01*
X171000000Y-105324902D01*
X169453496Y-105324902D01*
X169336976Y-105316163D01*
X169801956Y-105124038D01*
X169914973Y-105011218D01*
X176297332Y-104968453D01*
X176594539Y-105266180D01*
X176798827Y-105351007D01*
G36*
X192451651Y-105324902D02*
X181422086Y-105324902D01*
X181496712Y-105219819D01*
X181562260Y-104933177D01*
X192127200Y-104862388D01*
X192224135Y-105096988D01*
X192451651Y-105324902D01*
X192451651Y-105324902D01*
G37*
X192451651Y-105324902D02*
X181422086Y-105324902D01*
X181496712Y-105219819D01*
X181562260Y-104933177D01*
X192127200Y-104862388D01*
X192224135Y-105096988D01*
X192451651Y-105324902D01*
G36*
X218046028Y-125107342D02*
X217706200Y-125247757D01*
X217479432Y-125474129D01*
X217281791Y-124995800D01*
X216878471Y-124591776D01*
X216351239Y-124372850D01*
X215780361Y-124372352D01*
X215252748Y-124590357D01*
X214848724Y-124993677D01*
X214629798Y-125520909D01*
X214629300Y-126091787D01*
X214703388Y-126271095D01*
X213363001Y-125919890D01*
X213383191Y-125844541D01*
X213797302Y-124299060D01*
X213764329Y-124048602D01*
X213638020Y-123829828D01*
X213437604Y-123676043D01*
X213193593Y-123610661D01*
X211648112Y-123196550D01*
X211397654Y-123229523D01*
X211178880Y-123355832D01*
X211025095Y-123556248D01*
X211022752Y-123564989D01*
X210935243Y-123353200D01*
X210531923Y-122949176D01*
X210177152Y-122801862D01*
X209179145Y-121803855D01*
X208253164Y-120877874D01*
X208253197Y-120840225D01*
X208080767Y-120422914D01*
X207761765Y-120103355D01*
X207344756Y-119930197D01*
X206893225Y-119929803D01*
X206475914Y-120102233D01*
X206398011Y-120180000D01*
X201999339Y-120180000D01*
X202012491Y-120130919D01*
X202788948Y-117233142D01*
X202755975Y-116982685D01*
X202755286Y-116981491D01*
X202755286Y-113416931D01*
X202506896Y-112815783D01*
X202450000Y-112758787D01*
X202450000Y-111289810D01*
X202450000Y-111037191D01*
X202450000Y-110750750D01*
X202291250Y-110592000D01*
X201497500Y-110592000D01*
X201497500Y-111639750D01*
X201656250Y-111798500D01*
X201941309Y-111798500D01*
X202174698Y-111701827D01*
X202353327Y-111523199D01*
X202450000Y-111289810D01*
X202450000Y-112758787D01*
X202047365Y-112355448D01*
X201446650Y-112106010D01*
X200796207Y-112105442D01*
X200195059Y-112353832D01*
X199734724Y-112813363D01*
X199485286Y-113414078D01*
X199484718Y-114064521D01*
X199733108Y-114665669D01*
X200192639Y-115126004D01*
X200793354Y-115375442D01*
X201443797Y-115376010D01*
X202044945Y-115127620D01*
X202505280Y-114668089D01*
X202754718Y-114067374D01*
X202755286Y-113416931D01*
X202755286Y-116981491D01*
X202629666Y-116763910D01*
X202429250Y-116610125D01*
X202185239Y-116544743D01*
X199287462Y-115768286D01*
X199037005Y-115801259D01*
X198818230Y-115927568D01*
X198664445Y-116127984D01*
X198599063Y-116371995D01*
X197822606Y-119269772D01*
X197855579Y-119520229D01*
X197981888Y-119739004D01*
X198182304Y-119892789D01*
X198426315Y-119958171D01*
X199370777Y-120211238D01*
X199370777Y-120444636D01*
X199344132Y-120471235D01*
X199170974Y-120888244D01*
X199170580Y-121339775D01*
X199343010Y-121757086D01*
X199662012Y-122076645D01*
X200079021Y-122249803D01*
X200530552Y-122250197D01*
X200947863Y-122077767D01*
X200975678Y-122050000D01*
X206530479Y-122050000D01*
X206781845Y-122154376D01*
X206452748Y-122290357D01*
X206048724Y-122693677D01*
X205829798Y-123220909D01*
X205829300Y-123791787D01*
X205900721Y-123964640D01*
X196993395Y-121630762D01*
X196498517Y-121501095D01*
X196498517Y-117527135D01*
X196386264Y-117332707D01*
X194600026Y-116854086D01*
X194121404Y-118640324D01*
X194233658Y-118834752D01*
X195528538Y-119181714D01*
X195778995Y-119148741D01*
X195997770Y-119022432D01*
X196151555Y-118822016D01*
X196216937Y-118578005D01*
X196498517Y-117527135D01*
X196498517Y-121501095D01*
X187757720Y-119210852D01*
X187757720Y-116558080D01*
X187757720Y-116305461D01*
X187757720Y-114905921D01*
X187661047Y-114672532D01*
X187482419Y-114493903D01*
X187249030Y-114397230D01*
X186996411Y-114397230D01*
X186396971Y-114397230D01*
X186188000Y-114483788D01*
X185979029Y-114397230D01*
X185838750Y-114397230D01*
X185680000Y-114555980D01*
X185680000Y-115605000D01*
X185700000Y-115605000D01*
X185700000Y-115859000D01*
X185680000Y-115859000D01*
X185680000Y-116908020D01*
X185838750Y-117066770D01*
X185979029Y-117066770D01*
X186187999Y-116980211D01*
X186396970Y-117066770D01*
X186649589Y-117066770D01*
X187249029Y-117066770D01*
X187482418Y-116970097D01*
X187661047Y-116791469D01*
X187757720Y-116558080D01*
X187757720Y-119210852D01*
X185426000Y-118599900D01*
X185426000Y-116908020D01*
X185426000Y-115859000D01*
X185426000Y-115605000D01*
X185426000Y-114555980D01*
X185426000Y-111574020D01*
X185426000Y-110525000D01*
X185058970Y-110525000D01*
X184777030Y-110525000D01*
X184410000Y-110525000D01*
X184410000Y-111574020D01*
X184568750Y-111732770D01*
X184709029Y-111732770D01*
X184918000Y-111646211D01*
X185126971Y-111732770D01*
X185267250Y-111732770D01*
X185426000Y-111574020D01*
X185426000Y-114555980D01*
X185267250Y-114397230D01*
X185126971Y-114397230D01*
X184918000Y-114483788D01*
X184709029Y-114397230D01*
X184568750Y-114397230D01*
X184410000Y-114555980D01*
X184410000Y-115605000D01*
X184777030Y-115605000D01*
X185058970Y-115605000D01*
X185426000Y-115605000D01*
X185426000Y-115859000D01*
X185058970Y-115859000D01*
X184777030Y-115859000D01*
X184410000Y-115859000D01*
X184410000Y-116908020D01*
X184568750Y-117066770D01*
X184709029Y-117066770D01*
X184918000Y-116980211D01*
X185126971Y-117066770D01*
X185267250Y-117066770D01*
X185426000Y-116908020D01*
X185426000Y-118599900D01*
X181700000Y-117623622D01*
X181700000Y-116109810D01*
X181700000Y-115857191D01*
X181700000Y-115570750D01*
X181541250Y-115412000D01*
X180747500Y-115412000D01*
X180747500Y-116459750D01*
X180906250Y-116618500D01*
X181191309Y-116618500D01*
X181424698Y-116521827D01*
X181603327Y-116343199D01*
X181700000Y-116109810D01*
X181700000Y-117623622D01*
X180457958Y-117298185D01*
X180367187Y-117292740D01*
X180278000Y-117275000D01*
X178278000Y-117275000D01*
X178006295Y-117329046D01*
X177983380Y-117344357D01*
X177983380Y-117208311D01*
X177886707Y-116974922D01*
X177708079Y-116796293D01*
X177474690Y-116699620D01*
X177222071Y-116699620D01*
X177133750Y-116699620D01*
X176975000Y-116858370D01*
X176975000Y-117708000D01*
X176995000Y-117708000D01*
X176995000Y-117962000D01*
X176975000Y-117962000D01*
X176975000Y-118811630D01*
X177133750Y-118970380D01*
X177222071Y-118970380D01*
X177474690Y-118970380D01*
X177568000Y-118931729D01*
X177568000Y-136691929D01*
X176721000Y-137543101D01*
X176721000Y-118811630D01*
X176721000Y-117962000D01*
X176721000Y-117708000D01*
X176721000Y-116858370D01*
X176562250Y-116699620D01*
X176473929Y-116699620D01*
X176221310Y-116699620D01*
X175987921Y-116796293D01*
X175809293Y-116974922D01*
X175712620Y-117208311D01*
X175712620Y-117549250D01*
X175871370Y-117708000D01*
X176721000Y-117708000D01*
X176721000Y-117962000D01*
X175871370Y-117962000D01*
X175712620Y-118120750D01*
X175712620Y-118461689D01*
X175809293Y-118695078D01*
X175987921Y-118873707D01*
X176221310Y-118970380D01*
X176473929Y-118970380D01*
X176562250Y-118970380D01*
X176721000Y-118811630D01*
X176721000Y-137543101D01*
X174212844Y-140063612D01*
X174213248Y-139600813D01*
X173995243Y-139073200D01*
X173591923Y-138669176D01*
X173064691Y-138450250D01*
X172493813Y-138449752D01*
X171966200Y-138667757D01*
X171562176Y-139071077D01*
X171343250Y-139598309D01*
X171342752Y-140169187D01*
X171419528Y-140355000D01*
X171341389Y-140355000D01*
X165988000Y-139391389D01*
X165988000Y-118774405D01*
X166087461Y-118873867D01*
X166320850Y-118970540D01*
X166573469Y-118970540D01*
X167574229Y-118970540D01*
X167807618Y-118873867D01*
X167986247Y-118695239D01*
X168082920Y-118461850D01*
X168082920Y-118209231D01*
X168082920Y-117208471D01*
X167986247Y-116975082D01*
X167943000Y-116931834D01*
X167943000Y-116905363D01*
X167969645Y-116878765D01*
X168142803Y-116461756D01*
X168143197Y-116010225D01*
X167970767Y-115592914D01*
X167651765Y-115273355D01*
X167234756Y-115100197D01*
X167195452Y-115100162D01*
X166803000Y-114707710D01*
X166803000Y-113870220D01*
X167574229Y-113870220D01*
X167807618Y-113773547D01*
X167911325Y-113669840D01*
X173498160Y-113669840D01*
X173855969Y-113598667D01*
X174159305Y-113395985D01*
X174863766Y-112691523D01*
X175260086Y-112527767D01*
X175579645Y-112208765D01*
X175745182Y-111810107D01*
X175855290Y-111700000D01*
X175984214Y-111700000D01*
X175809293Y-111874921D01*
X175712620Y-112108310D01*
X175712620Y-112360929D01*
X175712620Y-112792750D01*
X174925590Y-113579779D01*
X174757311Y-113649311D01*
X174453378Y-113952714D01*
X174288687Y-114349332D01*
X174288313Y-114778784D01*
X174452311Y-115175689D01*
X174755714Y-115479622D01*
X175152332Y-115644313D01*
X175581784Y-115644687D01*
X175978689Y-115480689D01*
X176282622Y-115177286D01*
X176447313Y-114780668D01*
X176447687Y-114351216D01*
X176407258Y-114253371D01*
X176725670Y-113934960D01*
X177636000Y-114845290D01*
X177636000Y-116109809D01*
X177732673Y-116343198D01*
X177911301Y-116521827D01*
X178144690Y-116618500D01*
X178397309Y-116618500D01*
X179286309Y-116618500D01*
X179519698Y-116521827D01*
X179668000Y-116373525D01*
X179816302Y-116521827D01*
X180049691Y-116618500D01*
X180334750Y-116618500D01*
X180493500Y-116459750D01*
X180493500Y-115412000D01*
X180473500Y-115412000D01*
X180473500Y-115158000D01*
X180493500Y-115158000D01*
X180493500Y-115138000D01*
X180747500Y-115138000D01*
X180747500Y-115158000D01*
X181541250Y-115158000D01*
X181687309Y-115011940D01*
X182078280Y-115402910D01*
X182078280Y-116558079D01*
X182174953Y-116791468D01*
X182353581Y-116970097D01*
X182586970Y-117066770D01*
X182839589Y-117066770D01*
X183439029Y-117066770D01*
X183648000Y-116980211D01*
X183856971Y-117066770D01*
X183997250Y-117066770D01*
X184156000Y-116908020D01*
X184156000Y-115859000D01*
X184136000Y-115859000D01*
X184136000Y-115605000D01*
X184156000Y-115605000D01*
X184156000Y-114555980D01*
X183997250Y-114397230D01*
X183856971Y-114397230D01*
X183648000Y-114483788D01*
X183439030Y-114397230D01*
X183227860Y-114397230D01*
X182256815Y-113426185D01*
X182055113Y-113291412D01*
X182204827Y-113141698D01*
X182301500Y-112908309D01*
X182301500Y-112623250D01*
X182142750Y-112464500D01*
X181095000Y-112464500D01*
X181095000Y-112484500D01*
X180841000Y-112484500D01*
X180841000Y-112464500D01*
X179793250Y-112464500D01*
X179634500Y-112623250D01*
X179634500Y-112908309D01*
X179731173Y-113141698D01*
X179832795Y-113243320D01*
X179743895Y-113261004D01*
X179496685Y-113426185D01*
X179179080Y-113743790D01*
X177983380Y-112548090D01*
X177983380Y-112108311D01*
X177886707Y-111874922D01*
X177711785Y-111700000D01*
X178294309Y-111700000D01*
X178527698Y-111603327D01*
X178706327Y-111424699D01*
X178803000Y-111191310D01*
X178803000Y-110938691D01*
X178803000Y-107938691D01*
X178721452Y-107741817D01*
X178793224Y-107789774D01*
X178853074Y-107879344D01*
X178901642Y-108123513D01*
X178977762Y-108506196D01*
X179008813Y-108581160D01*
X179083776Y-108762138D01*
X179300549Y-109086561D01*
X179300550Y-109086562D01*
X179496438Y-109282451D01*
X179820862Y-109499223D01*
X179820863Y-109499223D01*
X179848714Y-109510759D01*
X179731173Y-109628301D01*
X179634500Y-109861690D01*
X179634500Y-110114309D01*
X179634500Y-111003309D01*
X179731173Y-111236698D01*
X179879474Y-111385000D01*
X179731173Y-111533302D01*
X179634500Y-111766691D01*
X179634500Y-112051750D01*
X179793250Y-112210500D01*
X180841000Y-112210500D01*
X180841000Y-112190500D01*
X181095000Y-112190500D01*
X181095000Y-112210500D01*
X182142750Y-112210500D01*
X182301500Y-112051750D01*
X182301500Y-111766691D01*
X182204827Y-111533302D01*
X182056525Y-111384999D01*
X182108525Y-111333000D01*
X182123396Y-111333000D01*
X182174953Y-111457468D01*
X182353581Y-111636097D01*
X182586970Y-111732770D01*
X182839589Y-111732770D01*
X183439029Y-111732770D01*
X183648000Y-111646211D01*
X183856971Y-111732770D01*
X183997250Y-111732770D01*
X184156000Y-111574020D01*
X184156000Y-110525000D01*
X184136000Y-110525000D01*
X184136000Y-110271000D01*
X184156000Y-110271000D01*
X184156000Y-110251000D01*
X184410000Y-110251000D01*
X184410000Y-110271000D01*
X184777030Y-110271000D01*
X185058970Y-110271000D01*
X185426000Y-110271000D01*
X185426000Y-110251000D01*
X185680000Y-110251000D01*
X185680000Y-110271000D01*
X185700000Y-110271000D01*
X185700000Y-110525000D01*
X185680000Y-110525000D01*
X185680000Y-111574020D01*
X185838750Y-111732770D01*
X185979029Y-111732770D01*
X186187999Y-111646211D01*
X186396970Y-111732770D01*
X186649589Y-111732770D01*
X187249029Y-111732770D01*
X187482418Y-111636097D01*
X187661047Y-111457469D01*
X187749322Y-111244353D01*
X187884500Y-111244471D01*
X187884500Y-111528710D01*
X187676855Y-111736355D01*
X187474173Y-112039691D01*
X187411156Y-112356494D01*
X187376355Y-112391235D01*
X187203197Y-112808244D01*
X187202803Y-113259775D01*
X187375233Y-113677086D01*
X187694235Y-113996645D01*
X188111244Y-114169803D01*
X188287706Y-114169956D01*
X188333250Y-114215500D01*
X189381000Y-114215500D01*
X189381000Y-113482841D01*
X189472803Y-113261756D01*
X189473197Y-112810225D01*
X189456031Y-112768681D01*
X189525500Y-112782500D01*
X189588000Y-112782500D01*
X189685205Y-112763164D01*
X189779185Y-112903815D01*
X190138369Y-113263000D01*
X190080191Y-113263000D01*
X189793750Y-113263000D01*
X189635000Y-113421750D01*
X189635000Y-114215500D01*
X190682750Y-114215500D01*
X190712750Y-114185500D01*
X191491000Y-114185500D01*
X191491000Y-114165500D01*
X191745000Y-114165500D01*
X191745000Y-114185500D01*
X191765000Y-114185500D01*
X191765000Y-114439500D01*
X191745000Y-114439500D01*
X191745000Y-114459500D01*
X191491000Y-114459500D01*
X191491000Y-114439500D01*
X190443250Y-114439500D01*
X190413250Y-114469500D01*
X189635000Y-114469500D01*
X189635000Y-114489500D01*
X189381000Y-114489500D01*
X189381000Y-114469500D01*
X188333250Y-114469500D01*
X188174500Y-114628250D01*
X188174500Y-114913309D01*
X188271173Y-115146698D01*
X188419474Y-115295000D01*
X188271173Y-115443301D01*
X188174500Y-115676690D01*
X188174500Y-115929309D01*
X188174500Y-116818309D01*
X188271173Y-117051698D01*
X188449801Y-117230327D01*
X188683190Y-117327000D01*
X188760321Y-117327000D01*
X188804004Y-117546605D01*
X188938514Y-117747912D01*
X188938313Y-117978784D01*
X189102311Y-118375689D01*
X189405714Y-118679622D01*
X189802332Y-118844313D01*
X190231784Y-118844687D01*
X190628689Y-118680689D01*
X190932622Y-118377286D01*
X190982734Y-118256602D01*
X191005714Y-118279622D01*
X191402332Y-118444313D01*
X191831784Y-118444687D01*
X192228689Y-118280689D01*
X192263861Y-118245578D01*
X192386750Y-118339875D01*
X193681631Y-118686837D01*
X193876059Y-118574584D01*
X194354680Y-116788346D01*
X194335361Y-116783169D01*
X194401101Y-116537823D01*
X194420420Y-116543000D01*
X194899042Y-114756762D01*
X194794384Y-114575491D01*
X194812622Y-114557286D01*
X194977313Y-114160668D01*
X194977502Y-113943128D01*
X195082630Y-113838000D01*
X196722500Y-113838000D01*
X196722500Y-114072000D01*
X196702500Y-114072000D01*
X196702500Y-114092000D01*
X196448500Y-114092000D01*
X196448500Y-114072000D01*
X195748730Y-114072000D01*
X195589980Y-114230750D01*
X195589980Y-114319071D01*
X195589980Y-114571690D01*
X195685894Y-114803248D01*
X195338815Y-114710249D01*
X195144387Y-114822502D01*
X194665766Y-116608740D01*
X196452004Y-117087362D01*
X196646432Y-116975108D01*
X196928012Y-115924238D01*
X196993395Y-115680227D01*
X196960421Y-115429770D01*
X196834111Y-115210996D01*
X196663890Y-115080380D01*
X196702502Y-115080380D01*
X196702502Y-114921632D01*
X196861250Y-115080380D01*
X197052329Y-115080380D01*
X197285718Y-114983707D01*
X197464347Y-114805079D01*
X197528000Y-114651406D01*
X197591653Y-114805078D01*
X197770281Y-114983707D01*
X197805856Y-114998442D01*
X197819355Y-115018645D01*
X198122691Y-115221327D01*
X198480500Y-115292500D01*
X198838309Y-115221327D01*
X199141645Y-115018645D01*
X199155144Y-114998442D01*
X199190718Y-114983707D01*
X199369347Y-114805079D01*
X199466020Y-114571690D01*
X199466020Y-114319071D01*
X199466020Y-113318311D01*
X199369347Y-113084922D01*
X199190719Y-112906293D01*
X198957330Y-112809620D01*
X198951010Y-112809620D01*
X199962130Y-111798500D01*
X200036309Y-111798500D01*
X200269698Y-111701827D01*
X200418000Y-111553525D01*
X200566302Y-111701827D01*
X200799691Y-111798500D01*
X201084750Y-111798500D01*
X201243500Y-111639750D01*
X201243500Y-110592000D01*
X201223500Y-110592000D01*
X201223500Y-110338000D01*
X201243500Y-110338000D01*
X201243500Y-110318000D01*
X201497500Y-110318000D01*
X201497500Y-110338000D01*
X202291250Y-110338000D01*
X202450000Y-110179250D01*
X202450000Y-109892809D01*
X202450000Y-109640190D01*
X202353327Y-109406801D01*
X202317326Y-109370800D01*
X202479645Y-109208765D01*
X202652803Y-108791756D01*
X202653197Y-108340225D01*
X202480767Y-107922914D01*
X202253250Y-107695000D01*
X213282815Y-107695000D01*
X213208190Y-107800083D01*
X213063191Y-108434159D01*
X213132250Y-108958710D01*
X213364476Y-109123078D01*
X214522710Y-108454370D01*
X214535799Y-108467459D01*
X214715407Y-108287851D01*
X214137227Y-107709671D01*
X214128757Y-107695000D01*
X214422050Y-107695000D01*
X214756777Y-108274762D01*
X214743689Y-108287851D01*
X214923297Y-108467459D01*
X215501475Y-107889280D01*
X215837979Y-107695000D01*
X216396263Y-107695000D01*
X216258057Y-107752106D01*
X216138660Y-107871293D01*
X216094620Y-107840122D01*
X214936385Y-108508829D01*
X214923297Y-108495741D01*
X214743689Y-108675349D01*
X215321868Y-109253528D01*
X215499505Y-109561204D01*
X215313564Y-109747145D01*
X214683063Y-108655085D01*
X213491476Y-109343048D01*
X213517710Y-109626346D01*
X214048031Y-110002958D01*
X214682107Y-110147957D01*
X214947722Y-110112987D01*
X214130710Y-110930000D01*
X206518000Y-110930000D01*
X206160191Y-111001173D01*
X205856855Y-111203855D01*
X204830874Y-112229835D01*
X204793225Y-112229803D01*
X204375914Y-112402233D01*
X204056355Y-112721235D01*
X203883197Y-113138244D01*
X203882803Y-113589775D01*
X204055233Y-114007086D01*
X204374235Y-114326645D01*
X204791244Y-114499803D01*
X205242775Y-114500197D01*
X205393126Y-114438072D01*
X205184248Y-114941110D01*
X205183680Y-115591553D01*
X205432070Y-116192701D01*
X205891601Y-116653036D01*
X206492316Y-116902474D01*
X207142759Y-116903042D01*
X207358145Y-116814045D01*
X207717100Y-118618629D01*
X208786873Y-120219658D01*
X210387902Y-121289431D01*
X212276445Y-121665086D01*
X214164988Y-121289431D01*
X214420106Y-121118966D01*
X214503865Y-121540050D01*
X215952991Y-123708820D01*
X218046028Y-125107342D01*
X218046028Y-125107342D01*
G37*
X218046028Y-125107342D02*
X217706200Y-125247757D01*
X217479432Y-125474129D01*
X217281791Y-124995800D01*
X216878471Y-124591776D01*
X216351239Y-124372850D01*
X215780361Y-124372352D01*
X215252748Y-124590357D01*
X214848724Y-124993677D01*
X214629798Y-125520909D01*
X214629300Y-126091787D01*
X214703388Y-126271095D01*
X213363001Y-125919890D01*
X213383191Y-125844541D01*
X213797302Y-124299060D01*
X213764329Y-124048602D01*
X213638020Y-123829828D01*
X213437604Y-123676043D01*
X213193593Y-123610661D01*
X211648112Y-123196550D01*
X211397654Y-123229523D01*
X211178880Y-123355832D01*
X211025095Y-123556248D01*
X211022752Y-123564989D01*
X210935243Y-123353200D01*
X210531923Y-122949176D01*
X210177152Y-122801862D01*
X209179145Y-121803855D01*
X208253164Y-120877874D01*
X208253197Y-120840225D01*
X208080767Y-120422914D01*
X207761765Y-120103355D01*
X207344756Y-119930197D01*
X206893225Y-119929803D01*
X206475914Y-120102233D01*
X206398011Y-120180000D01*
X201999339Y-120180000D01*
X202012491Y-120130919D01*
X202788948Y-117233142D01*
X202755975Y-116982685D01*
X202755286Y-116981491D01*
X202755286Y-113416931D01*
X202506896Y-112815783D01*
X202450000Y-112758787D01*
X202450000Y-111289810D01*
X202450000Y-111037191D01*
X202450000Y-110750750D01*
X202291250Y-110592000D01*
X201497500Y-110592000D01*
X201497500Y-111639750D01*
X201656250Y-111798500D01*
X201941309Y-111798500D01*
X202174698Y-111701827D01*
X202353327Y-111523199D01*
X202450000Y-111289810D01*
X202450000Y-112758787D01*
X202047365Y-112355448D01*
X201446650Y-112106010D01*
X200796207Y-112105442D01*
X200195059Y-112353832D01*
X199734724Y-112813363D01*
X199485286Y-113414078D01*
X199484718Y-114064521D01*
X199733108Y-114665669D01*
X200192639Y-115126004D01*
X200793354Y-115375442D01*
X201443797Y-115376010D01*
X202044945Y-115127620D01*
X202505280Y-114668089D01*
X202754718Y-114067374D01*
X202755286Y-113416931D01*
X202755286Y-116981491D01*
X202629666Y-116763910D01*
X202429250Y-116610125D01*
X202185239Y-116544743D01*
X199287462Y-115768286D01*
X199037005Y-115801259D01*
X198818230Y-115927568D01*
X198664445Y-116127984D01*
X198599063Y-116371995D01*
X197822606Y-119269772D01*
X197855579Y-119520229D01*
X197981888Y-119739004D01*
X198182304Y-119892789D01*
X198426315Y-119958171D01*
X199370777Y-120211238D01*
X199370777Y-120444636D01*
X199344132Y-120471235D01*
X199170974Y-120888244D01*
X199170580Y-121339775D01*
X199343010Y-121757086D01*
X199662012Y-122076645D01*
X200079021Y-122249803D01*
X200530552Y-122250197D01*
X200947863Y-122077767D01*
X200975678Y-122050000D01*
X206530479Y-122050000D01*
X206781845Y-122154376D01*
X206452748Y-122290357D01*
X206048724Y-122693677D01*
X205829798Y-123220909D01*
X205829300Y-123791787D01*
X205900721Y-123964640D01*
X196993395Y-121630762D01*
X196498517Y-121501095D01*
X196498517Y-117527135D01*
X196386264Y-117332707D01*
X194600026Y-116854086D01*
X194121404Y-118640324D01*
X194233658Y-118834752D01*
X195528538Y-119181714D01*
X195778995Y-119148741D01*
X195997770Y-119022432D01*
X196151555Y-118822016D01*
X196216937Y-118578005D01*
X196498517Y-117527135D01*
X196498517Y-121501095D01*
X187757720Y-119210852D01*
X187757720Y-116558080D01*
X187757720Y-116305461D01*
X187757720Y-114905921D01*
X187661047Y-114672532D01*
X187482419Y-114493903D01*
X187249030Y-114397230D01*
X186996411Y-114397230D01*
X186396971Y-114397230D01*
X186188000Y-114483788D01*
X185979029Y-114397230D01*
X185838750Y-114397230D01*
X185680000Y-114555980D01*
X185680000Y-115605000D01*
X185700000Y-115605000D01*
X185700000Y-115859000D01*
X185680000Y-115859000D01*
X185680000Y-116908020D01*
X185838750Y-117066770D01*
X185979029Y-117066770D01*
X186187999Y-116980211D01*
X186396970Y-117066770D01*
X186649589Y-117066770D01*
X187249029Y-117066770D01*
X187482418Y-116970097D01*
X187661047Y-116791469D01*
X187757720Y-116558080D01*
X187757720Y-119210852D01*
X185426000Y-118599900D01*
X185426000Y-116908020D01*
X185426000Y-115859000D01*
X185426000Y-115605000D01*
X185426000Y-114555980D01*
X185426000Y-111574020D01*
X185426000Y-110525000D01*
X185058970Y-110525000D01*
X184777030Y-110525000D01*
X184410000Y-110525000D01*
X184410000Y-111574020D01*
X184568750Y-111732770D01*
X184709029Y-111732770D01*
X184918000Y-111646211D01*
X185126971Y-111732770D01*
X185267250Y-111732770D01*
X185426000Y-111574020D01*
X185426000Y-114555980D01*
X185267250Y-114397230D01*
X185126971Y-114397230D01*
X184918000Y-114483788D01*
X184709029Y-114397230D01*
X184568750Y-114397230D01*
X184410000Y-114555980D01*
X184410000Y-115605000D01*
X184777030Y-115605000D01*
X185058970Y-115605000D01*
X185426000Y-115605000D01*
X185426000Y-115859000D01*
X185058970Y-115859000D01*
X184777030Y-115859000D01*
X184410000Y-115859000D01*
X184410000Y-116908020D01*
X184568750Y-117066770D01*
X184709029Y-117066770D01*
X184918000Y-116980211D01*
X185126971Y-117066770D01*
X185267250Y-117066770D01*
X185426000Y-116908020D01*
X185426000Y-118599900D01*
X181700000Y-117623622D01*
X181700000Y-116109810D01*
X181700000Y-115857191D01*
X181700000Y-115570750D01*
X181541250Y-115412000D01*
X180747500Y-115412000D01*
X180747500Y-116459750D01*
X180906250Y-116618500D01*
X181191309Y-116618500D01*
X181424698Y-116521827D01*
X181603327Y-116343199D01*
X181700000Y-116109810D01*
X181700000Y-117623622D01*
X180457958Y-117298185D01*
X180367187Y-117292740D01*
X180278000Y-117275000D01*
X178278000Y-117275000D01*
X178006295Y-117329046D01*
X177983380Y-117344357D01*
X177983380Y-117208311D01*
X177886707Y-116974922D01*
X177708079Y-116796293D01*
X177474690Y-116699620D01*
X177222071Y-116699620D01*
X177133750Y-116699620D01*
X176975000Y-116858370D01*
X176975000Y-117708000D01*
X176995000Y-117708000D01*
X176995000Y-117962000D01*
X176975000Y-117962000D01*
X176975000Y-118811630D01*
X177133750Y-118970380D01*
X177222071Y-118970380D01*
X177474690Y-118970380D01*
X177568000Y-118931729D01*
X177568000Y-136691929D01*
X176721000Y-137543101D01*
X176721000Y-118811630D01*
X176721000Y-117962000D01*
X176721000Y-117708000D01*
X176721000Y-116858370D01*
X176562250Y-116699620D01*
X176473929Y-116699620D01*
X176221310Y-116699620D01*
X175987921Y-116796293D01*
X175809293Y-116974922D01*
X175712620Y-117208311D01*
X175712620Y-117549250D01*
X175871370Y-117708000D01*
X176721000Y-117708000D01*
X176721000Y-117962000D01*
X175871370Y-117962000D01*
X175712620Y-118120750D01*
X175712620Y-118461689D01*
X175809293Y-118695078D01*
X175987921Y-118873707D01*
X176221310Y-118970380D01*
X176473929Y-118970380D01*
X176562250Y-118970380D01*
X176721000Y-118811630D01*
X176721000Y-137543101D01*
X174212844Y-140063612D01*
X174213248Y-139600813D01*
X173995243Y-139073200D01*
X173591923Y-138669176D01*
X173064691Y-138450250D01*
X172493813Y-138449752D01*
X171966200Y-138667757D01*
X171562176Y-139071077D01*
X171343250Y-139598309D01*
X171342752Y-140169187D01*
X171419528Y-140355000D01*
X171341389Y-140355000D01*
X165988000Y-139391389D01*
X165988000Y-118774405D01*
X166087461Y-118873867D01*
X166320850Y-118970540D01*
X166573469Y-118970540D01*
X167574229Y-118970540D01*
X167807618Y-118873867D01*
X167986247Y-118695239D01*
X168082920Y-118461850D01*
X168082920Y-118209231D01*
X168082920Y-117208471D01*
X167986247Y-116975082D01*
X167943000Y-116931834D01*
X167943000Y-116905363D01*
X167969645Y-116878765D01*
X168142803Y-116461756D01*
X168143197Y-116010225D01*
X167970767Y-115592914D01*
X167651765Y-115273355D01*
X167234756Y-115100197D01*
X167195452Y-115100162D01*
X166803000Y-114707710D01*
X166803000Y-113870220D01*
X167574229Y-113870220D01*
X167807618Y-113773547D01*
X167911325Y-113669840D01*
X173498160Y-113669840D01*
X173855969Y-113598667D01*
X174159305Y-113395985D01*
X174863766Y-112691523D01*
X175260086Y-112527767D01*
X175579645Y-112208765D01*
X175745182Y-111810107D01*
X175855290Y-111700000D01*
X175984214Y-111700000D01*
X175809293Y-111874921D01*
X175712620Y-112108310D01*
X175712620Y-112360929D01*
X175712620Y-112792750D01*
X174925590Y-113579779D01*
X174757311Y-113649311D01*
X174453378Y-113952714D01*
X174288687Y-114349332D01*
X174288313Y-114778784D01*
X174452311Y-115175689D01*
X174755714Y-115479622D01*
X175152332Y-115644313D01*
X175581784Y-115644687D01*
X175978689Y-115480689D01*
X176282622Y-115177286D01*
X176447313Y-114780668D01*
X176447687Y-114351216D01*
X176407258Y-114253371D01*
X176725670Y-113934960D01*
X177636000Y-114845290D01*
X177636000Y-116109809D01*
X177732673Y-116343198D01*
X177911301Y-116521827D01*
X178144690Y-116618500D01*
X178397309Y-116618500D01*
X179286309Y-116618500D01*
X179519698Y-116521827D01*
X179668000Y-116373525D01*
X179816302Y-116521827D01*
X180049691Y-116618500D01*
X180334750Y-116618500D01*
X180493500Y-116459750D01*
X180493500Y-115412000D01*
X180473500Y-115412000D01*
X180473500Y-115158000D01*
X180493500Y-115158000D01*
X180493500Y-115138000D01*
X180747500Y-115138000D01*
X180747500Y-115158000D01*
X181541250Y-115158000D01*
X181687309Y-115011940D01*
X182078280Y-115402910D01*
X182078280Y-116558079D01*
X182174953Y-116791468D01*
X182353581Y-116970097D01*
X182586970Y-117066770D01*
X182839589Y-117066770D01*
X183439029Y-117066770D01*
X183648000Y-116980211D01*
X183856971Y-117066770D01*
X183997250Y-117066770D01*
X184156000Y-116908020D01*
X184156000Y-115859000D01*
X184136000Y-115859000D01*
X184136000Y-115605000D01*
X184156000Y-115605000D01*
X184156000Y-114555980D01*
X183997250Y-114397230D01*
X183856971Y-114397230D01*
X183648000Y-114483788D01*
X183439030Y-114397230D01*
X183227860Y-114397230D01*
X182256815Y-113426185D01*
X182055113Y-113291412D01*
X182204827Y-113141698D01*
X182301500Y-112908309D01*
X182301500Y-112623250D01*
X182142750Y-112464500D01*
X181095000Y-112464500D01*
X181095000Y-112484500D01*
X180841000Y-112484500D01*
X180841000Y-112464500D01*
X179793250Y-112464500D01*
X179634500Y-112623250D01*
X179634500Y-112908309D01*
X179731173Y-113141698D01*
X179832795Y-113243320D01*
X179743895Y-113261004D01*
X179496685Y-113426185D01*
X179179080Y-113743790D01*
X177983380Y-112548090D01*
X177983380Y-112108311D01*
X177886707Y-111874922D01*
X177711785Y-111700000D01*
X178294309Y-111700000D01*
X178527698Y-111603327D01*
X178706327Y-111424699D01*
X178803000Y-111191310D01*
X178803000Y-110938691D01*
X178803000Y-107938691D01*
X178721452Y-107741817D01*
X178793224Y-107789774D01*
X178853074Y-107879344D01*
X178901642Y-108123513D01*
X178977762Y-108506196D01*
X179008813Y-108581160D01*
X179083776Y-108762138D01*
X179300549Y-109086561D01*
X179300550Y-109086562D01*
X179496438Y-109282451D01*
X179820862Y-109499223D01*
X179820863Y-109499223D01*
X179848714Y-109510759D01*
X179731173Y-109628301D01*
X179634500Y-109861690D01*
X179634500Y-110114309D01*
X179634500Y-111003309D01*
X179731173Y-111236698D01*
X179879474Y-111385000D01*
X179731173Y-111533302D01*
X179634500Y-111766691D01*
X179634500Y-112051750D01*
X179793250Y-112210500D01*
X180841000Y-112210500D01*
X180841000Y-112190500D01*
X181095000Y-112190500D01*
X181095000Y-112210500D01*
X182142750Y-112210500D01*
X182301500Y-112051750D01*
X182301500Y-111766691D01*
X182204827Y-111533302D01*
X182056525Y-111384999D01*
X182108525Y-111333000D01*
X182123396Y-111333000D01*
X182174953Y-111457468D01*
X182353581Y-111636097D01*
X182586970Y-111732770D01*
X182839589Y-111732770D01*
X183439029Y-111732770D01*
X183648000Y-111646211D01*
X183856971Y-111732770D01*
X183997250Y-111732770D01*
X184156000Y-111574020D01*
X184156000Y-110525000D01*
X184136000Y-110525000D01*
X184136000Y-110271000D01*
X184156000Y-110271000D01*
X184156000Y-110251000D01*
X184410000Y-110251000D01*
X184410000Y-110271000D01*
X184777030Y-110271000D01*
X185058970Y-110271000D01*
X185426000Y-110271000D01*
X185426000Y-110251000D01*
X185680000Y-110251000D01*
X185680000Y-110271000D01*
X185700000Y-110271000D01*
X185700000Y-110525000D01*
X185680000Y-110525000D01*
X185680000Y-111574020D01*
X185838750Y-111732770D01*
X185979029Y-111732770D01*
X186187999Y-111646211D01*
X186396970Y-111732770D01*
X186649589Y-111732770D01*
X187249029Y-111732770D01*
X187482418Y-111636097D01*
X187661047Y-111457469D01*
X187749322Y-111244353D01*
X187884500Y-111244471D01*
X187884500Y-111528710D01*
X187676855Y-111736355D01*
X187474173Y-112039691D01*
X187411156Y-112356494D01*
X187376355Y-112391235D01*
X187203197Y-112808244D01*
X187202803Y-113259775D01*
X187375233Y-113677086D01*
X187694235Y-113996645D01*
X188111244Y-114169803D01*
X188287706Y-114169956D01*
X188333250Y-114215500D01*
X189381000Y-114215500D01*
X189381000Y-113482841D01*
X189472803Y-113261756D01*
X189473197Y-112810225D01*
X189456031Y-112768681D01*
X189525500Y-112782500D01*
X189588000Y-112782500D01*
X189685205Y-112763164D01*
X189779185Y-112903815D01*
X190138369Y-113263000D01*
X190080191Y-113263000D01*
X189793750Y-113263000D01*
X189635000Y-113421750D01*
X189635000Y-114215500D01*
X190682750Y-114215500D01*
X190712750Y-114185500D01*
X191491000Y-114185500D01*
X191491000Y-114165500D01*
X191745000Y-114165500D01*
X191745000Y-114185500D01*
X191765000Y-114185500D01*
X191765000Y-114439500D01*
X191745000Y-114439500D01*
X191745000Y-114459500D01*
X191491000Y-114459500D01*
X191491000Y-114439500D01*
X190443250Y-114439500D01*
X190413250Y-114469500D01*
X189635000Y-114469500D01*
X189635000Y-114489500D01*
X189381000Y-114489500D01*
X189381000Y-114469500D01*
X188333250Y-114469500D01*
X188174500Y-114628250D01*
X188174500Y-114913309D01*
X188271173Y-115146698D01*
X188419474Y-115295000D01*
X188271173Y-115443301D01*
X188174500Y-115676690D01*
X188174500Y-115929309D01*
X188174500Y-116818309D01*
X188271173Y-117051698D01*
X188449801Y-117230327D01*
X188683190Y-117327000D01*
X188760321Y-117327000D01*
X188804004Y-117546605D01*
X188938514Y-117747912D01*
X188938313Y-117978784D01*
X189102311Y-118375689D01*
X189405714Y-118679622D01*
X189802332Y-118844313D01*
X190231784Y-118844687D01*
X190628689Y-118680689D01*
X190932622Y-118377286D01*
X190982734Y-118256602D01*
X191005714Y-118279622D01*
X191402332Y-118444313D01*
X191831784Y-118444687D01*
X192228689Y-118280689D01*
X192263861Y-118245578D01*
X192386750Y-118339875D01*
X193681631Y-118686837D01*
X193876059Y-118574584D01*
X194354680Y-116788346D01*
X194335361Y-116783169D01*
X194401101Y-116537823D01*
X194420420Y-116543000D01*
X194899042Y-114756762D01*
X194794384Y-114575491D01*
X194812622Y-114557286D01*
X194977313Y-114160668D01*
X194977502Y-113943128D01*
X195082630Y-113838000D01*
X196722500Y-113838000D01*
X196722500Y-114072000D01*
X196702500Y-114072000D01*
X196702500Y-114092000D01*
X196448500Y-114092000D01*
X196448500Y-114072000D01*
X195748730Y-114072000D01*
X195589980Y-114230750D01*
X195589980Y-114319071D01*
X195589980Y-114571690D01*
X195685894Y-114803248D01*
X195338815Y-114710249D01*
X195144387Y-114822502D01*
X194665766Y-116608740D01*
X196452004Y-117087362D01*
X196646432Y-116975108D01*
X196928012Y-115924238D01*
X196993395Y-115680227D01*
X196960421Y-115429770D01*
X196834111Y-115210996D01*
X196663890Y-115080380D01*
X196702502Y-115080380D01*
X196702502Y-114921632D01*
X196861250Y-115080380D01*
X197052329Y-115080380D01*
X197285718Y-114983707D01*
X197464347Y-114805079D01*
X197528000Y-114651406D01*
X197591653Y-114805078D01*
X197770281Y-114983707D01*
X197805856Y-114998442D01*
X197819355Y-115018645D01*
X198122691Y-115221327D01*
X198480500Y-115292500D01*
X198838309Y-115221327D01*
X199141645Y-115018645D01*
X199155144Y-114998442D01*
X199190718Y-114983707D01*
X199369347Y-114805079D01*
X199466020Y-114571690D01*
X199466020Y-114319071D01*
X199466020Y-113318311D01*
X199369347Y-113084922D01*
X199190719Y-112906293D01*
X198957330Y-112809620D01*
X198951010Y-112809620D01*
X199962130Y-111798500D01*
X200036309Y-111798500D01*
X200269698Y-111701827D01*
X200418000Y-111553525D01*
X200566302Y-111701827D01*
X200799691Y-111798500D01*
X201084750Y-111798500D01*
X201243500Y-111639750D01*
X201243500Y-110592000D01*
X201223500Y-110592000D01*
X201223500Y-110338000D01*
X201243500Y-110338000D01*
X201243500Y-110318000D01*
X201497500Y-110318000D01*
X201497500Y-110338000D01*
X202291250Y-110338000D01*
X202450000Y-110179250D01*
X202450000Y-109892809D01*
X202450000Y-109640190D01*
X202353327Y-109406801D01*
X202317326Y-109370800D01*
X202479645Y-109208765D01*
X202652803Y-108791756D01*
X202653197Y-108340225D01*
X202480767Y-107922914D01*
X202253250Y-107695000D01*
X213282815Y-107695000D01*
X213208190Y-107800083D01*
X213063191Y-108434159D01*
X213132250Y-108958710D01*
X213364476Y-109123078D01*
X214522710Y-108454370D01*
X214535799Y-108467459D01*
X214715407Y-108287851D01*
X214137227Y-107709671D01*
X214128757Y-107695000D01*
X214422050Y-107695000D01*
X214756777Y-108274762D01*
X214743689Y-108287851D01*
X214923297Y-108467459D01*
X215501475Y-107889280D01*
X215837979Y-107695000D01*
X216396263Y-107695000D01*
X216258057Y-107752106D01*
X216138660Y-107871293D01*
X216094620Y-107840122D01*
X214936385Y-108508829D01*
X214923297Y-108495741D01*
X214743689Y-108675349D01*
X215321868Y-109253528D01*
X215499505Y-109561204D01*
X215313564Y-109747145D01*
X214683063Y-108655085D01*
X213491476Y-109343048D01*
X213517710Y-109626346D01*
X214048031Y-110002958D01*
X214682107Y-110147957D01*
X214947722Y-110112987D01*
X214130710Y-110930000D01*
X206518000Y-110930000D01*
X206160191Y-111001173D01*
X205856855Y-111203855D01*
X204830874Y-112229835D01*
X204793225Y-112229803D01*
X204375914Y-112402233D01*
X204056355Y-112721235D01*
X203883197Y-113138244D01*
X203882803Y-113589775D01*
X204055233Y-114007086D01*
X204374235Y-114326645D01*
X204791244Y-114499803D01*
X205242775Y-114500197D01*
X205393126Y-114438072D01*
X205184248Y-114941110D01*
X205183680Y-115591553D01*
X205432070Y-116192701D01*
X205891601Y-116653036D01*
X206492316Y-116902474D01*
X207142759Y-116903042D01*
X207358145Y-116814045D01*
X207717100Y-118618629D01*
X208786873Y-120219658D01*
X210387902Y-121289431D01*
X212276445Y-121665086D01*
X214164988Y-121289431D01*
X214420106Y-121118966D01*
X214503865Y-121540050D01*
X215952991Y-123708820D01*
X218046028Y-125107342D01*
G36*
X225367925Y-107703738D02*
X224902946Y-107895864D01*
X224509620Y-108288504D01*
X224296492Y-108801774D01*
X224296007Y-109357535D01*
X224508239Y-109871177D01*
X224611120Y-109974238D01*
X224539378Y-109955015D01*
X224288920Y-109987989D01*
X224070146Y-110114298D01*
X223916361Y-110314713D01*
X223850979Y-110558724D01*
X223670532Y-111232160D01*
X223156227Y-110717855D01*
X222852891Y-110515173D01*
X222495082Y-110444000D01*
X222158363Y-110444000D01*
X222131765Y-110417355D01*
X221714756Y-110244197D01*
X221263225Y-110243803D01*
X221212286Y-110264850D01*
X221271168Y-110123048D01*
X221271736Y-109472605D01*
X221023346Y-108871457D01*
X220563815Y-108411122D01*
X219963100Y-108161684D01*
X219312657Y-108161116D01*
X218711509Y-108409506D01*
X218668423Y-108452516D01*
X218569894Y-108214057D01*
X218110363Y-107753722D01*
X217968944Y-107695000D01*
X225251405Y-107695000D01*
X225367925Y-107703738D01*
X225367925Y-107703738D01*
G37*
X225367925Y-107703738D02*
X224902946Y-107895864D01*
X224509620Y-108288504D01*
X224296492Y-108801774D01*
X224296007Y-109357535D01*
X224508239Y-109871177D01*
X224611120Y-109974238D01*
X224539378Y-109955015D01*
X224288920Y-109987989D01*
X224070146Y-110114298D01*
X223916361Y-110314713D01*
X223850979Y-110558724D01*
X223670532Y-111232160D01*
X223156227Y-110717855D01*
X222852891Y-110515173D01*
X222495082Y-110444000D01*
X222158363Y-110444000D01*
X222131765Y-110417355D01*
X221714756Y-110244197D01*
X221263225Y-110243803D01*
X221212286Y-110264850D01*
X221271168Y-110123048D01*
X221271736Y-109472605D01*
X221023346Y-108871457D01*
X220563815Y-108411122D01*
X219963100Y-108161684D01*
X219312657Y-108161116D01*
X218711509Y-108409506D01*
X218668423Y-108452516D01*
X218569894Y-108214057D01*
X218110363Y-107753722D01*
X217968944Y-107695000D01*
X225251405Y-107695000D01*
X225367925Y-107703738D01*
G36*
X233338280Y-120803658D02*
X228626941Y-125514996D01*
X228181820Y-125395727D01*
X227931363Y-125428700D01*
X227749730Y-125533564D01*
X227644867Y-125351934D01*
X227444451Y-125198149D01*
X227200440Y-125132767D01*
X226341732Y-124902677D01*
X226200836Y-124921226D01*
X226030286Y-124750378D01*
X225633668Y-124585687D01*
X225204216Y-124585313D01*
X224807311Y-124749311D01*
X224503378Y-125052714D01*
X224338687Y-125449332D01*
X224338313Y-125878784D01*
X224502311Y-126275689D01*
X224805714Y-126579622D01*
X225202332Y-126744313D01*
X225321603Y-126744416D01*
X225291763Y-126855784D01*
X225324736Y-127106241D01*
X225328794Y-127113270D01*
X225192500Y-127191959D01*
X225038716Y-127392375D01*
X224973333Y-127636386D01*
X224954552Y-127706475D01*
X222633157Y-127706475D01*
X222370854Y-127444171D01*
X222597302Y-126599060D01*
X222564329Y-126348602D01*
X222438020Y-126129828D01*
X222237604Y-125976043D01*
X221993593Y-125910661D01*
X220911603Y-125620742D01*
X223238239Y-125157946D01*
X225407009Y-123708820D01*
X226856135Y-121540050D01*
X227365000Y-118981811D01*
X226920245Y-116745875D01*
X229036685Y-118862315D01*
X229099042Y-118903980D01*
X229038687Y-119049332D01*
X229038313Y-119478784D01*
X229114453Y-119663056D01*
X229001241Y-119662958D01*
X228400093Y-119911348D01*
X227939758Y-120370879D01*
X227690320Y-120971594D01*
X227689752Y-121622037D01*
X227938142Y-122223185D01*
X228397673Y-122683520D01*
X228998388Y-122932958D01*
X229648831Y-122933526D01*
X230249979Y-122685136D01*
X230710314Y-122225605D01*
X230959752Y-121624890D01*
X230960320Y-120974447D01*
X230840896Y-120685420D01*
X233338280Y-120685420D01*
X233338280Y-120803658D01*
X233338280Y-120803658D01*
G37*
X233338280Y-120803658D02*
X228626941Y-125514996D01*
X228181820Y-125395727D01*
X227931363Y-125428700D01*
X227749730Y-125533564D01*
X227644867Y-125351934D01*
X227444451Y-125198149D01*
X227200440Y-125132767D01*
X226341732Y-124902677D01*
X226200836Y-124921226D01*
X226030286Y-124750378D01*
X225633668Y-124585687D01*
X225204216Y-124585313D01*
X224807311Y-124749311D01*
X224503378Y-125052714D01*
X224338687Y-125449332D01*
X224338313Y-125878784D01*
X224502311Y-126275689D01*
X224805714Y-126579622D01*
X225202332Y-126744313D01*
X225321603Y-126744416D01*
X225291763Y-126855784D01*
X225324736Y-127106241D01*
X225328794Y-127113270D01*
X225192500Y-127191959D01*
X225038716Y-127392375D01*
X224973333Y-127636386D01*
X224954552Y-127706475D01*
X222633157Y-127706475D01*
X222370854Y-127444171D01*
X222597302Y-126599060D01*
X222564329Y-126348602D01*
X222438020Y-126129828D01*
X222237604Y-125976043D01*
X221993593Y-125910661D01*
X220911603Y-125620742D01*
X223238239Y-125157946D01*
X225407009Y-123708820D01*
X226856135Y-121540050D01*
X227365000Y-118981811D01*
X226920245Y-116745875D01*
X229036685Y-118862315D01*
X229099042Y-118903980D01*
X229038687Y-119049332D01*
X229038313Y-119478784D01*
X229114453Y-119663056D01*
X229001241Y-119662958D01*
X228400093Y-119911348D01*
X227939758Y-120370879D01*
X227690320Y-120971594D01*
X227689752Y-121622037D01*
X227938142Y-122223185D01*
X228397673Y-122683520D01*
X228998388Y-122932958D01*
X229648831Y-122933526D01*
X230249979Y-122685136D01*
X230710314Y-122225605D01*
X230959752Y-121624890D01*
X230960320Y-120974447D01*
X230840896Y-120685420D01*
X233338280Y-120685420D01*
X233338280Y-120803658D01*
G36*
X234903031Y-122962660D02*
X234296485Y-123213281D01*
X233807996Y-123700918D01*
X233543301Y-124338373D01*
X233542699Y-125028599D01*
X233806281Y-125666515D01*
X234293918Y-126155004D01*
X234818909Y-126373000D01*
X233863191Y-126373000D01*
X233629802Y-126469673D01*
X233451173Y-126648301D01*
X233354500Y-126881690D01*
X233354500Y-127134309D01*
X233354500Y-128023309D01*
X233451173Y-128256698D01*
X233599474Y-128405000D01*
X233451173Y-128553301D01*
X233441977Y-128575500D01*
X233222306Y-128575500D01*
X233204827Y-128533302D01*
X233056525Y-128385000D01*
X233204827Y-128236698D01*
X233301500Y-128003309D01*
X233301500Y-127718250D01*
X233301500Y-127146750D01*
X233301500Y-126861691D01*
X233204827Y-126628302D01*
X233026199Y-126449673D01*
X232792810Y-126353000D01*
X232540191Y-126353000D01*
X232253750Y-126353000D01*
X232095000Y-126511750D01*
X232095000Y-127305500D01*
X233142750Y-127305500D01*
X233301500Y-127146750D01*
X233301500Y-127718250D01*
X233142750Y-127559500D01*
X232095000Y-127559500D01*
X232095000Y-127579500D01*
X231841000Y-127579500D01*
X231841000Y-127559500D01*
X231821000Y-127559500D01*
X231821000Y-127305500D01*
X231841000Y-127305500D01*
X231841000Y-126511750D01*
X231682250Y-126353000D01*
X231395809Y-126353000D01*
X231143190Y-126353000D01*
X230909801Y-126449673D01*
X230731173Y-126628302D01*
X230634500Y-126861691D01*
X230634500Y-127146750D01*
X230689494Y-127201744D01*
X230313668Y-127045687D01*
X229884216Y-127045313D01*
X229487311Y-127209311D01*
X229374120Y-127322303D01*
X229520247Y-126776951D01*
X234428652Y-121868547D01*
X234428313Y-122258784D01*
X234592311Y-122655689D01*
X234895714Y-122959622D01*
X234903031Y-122962660D01*
X234903031Y-122962660D01*
G37*
X234903031Y-122962660D02*
X234296485Y-123213281D01*
X233807996Y-123700918D01*
X233543301Y-124338373D01*
X233542699Y-125028599D01*
X233806281Y-125666515D01*
X234293918Y-126155004D01*
X234818909Y-126373000D01*
X233863191Y-126373000D01*
X233629802Y-126469673D01*
X233451173Y-126648301D01*
X233354500Y-126881690D01*
X233354500Y-127134309D01*
X233354500Y-128023309D01*
X233451173Y-128256698D01*
X233599474Y-128405000D01*
X233451173Y-128553301D01*
X233441977Y-128575500D01*
X233222306Y-128575500D01*
X233204827Y-128533302D01*
X233056525Y-128385000D01*
X233204827Y-128236698D01*
X233301500Y-128003309D01*
X233301500Y-127718250D01*
X233301500Y-127146750D01*
X233301500Y-126861691D01*
X233204827Y-126628302D01*
X233026199Y-126449673D01*
X232792810Y-126353000D01*
X232540191Y-126353000D01*
X232253750Y-126353000D01*
X232095000Y-126511750D01*
X232095000Y-127305500D01*
X233142750Y-127305500D01*
X233301500Y-127146750D01*
X233301500Y-127718250D01*
X233142750Y-127559500D01*
X232095000Y-127559500D01*
X232095000Y-127579500D01*
X231841000Y-127579500D01*
X231841000Y-127559500D01*
X231821000Y-127559500D01*
X231821000Y-127305500D01*
X231841000Y-127305500D01*
X231841000Y-126511750D01*
X231682250Y-126353000D01*
X231395809Y-126353000D01*
X231143190Y-126353000D01*
X230909801Y-126449673D01*
X230731173Y-126628302D01*
X230634500Y-126861691D01*
X230634500Y-127146750D01*
X230689494Y-127201744D01*
X230313668Y-127045687D01*
X229884216Y-127045313D01*
X229487311Y-127209311D01*
X229374120Y-127322303D01*
X229520247Y-126776951D01*
X234428652Y-121868547D01*
X234428313Y-122258784D01*
X234592311Y-122655689D01*
X234895714Y-122959622D01*
X234903031Y-122962660D01*
G36*
X236102642Y-108508842D02*
X236056803Y-108619507D01*
X235992810Y-108593000D01*
X235740191Y-108593000D01*
X234343191Y-108593000D01*
X234109802Y-108689673D01*
X234108000Y-108691474D01*
X234086199Y-108669673D01*
X233852810Y-108573000D01*
X233600191Y-108573000D01*
X233313750Y-108573000D01*
X233155000Y-108731750D01*
X233155000Y-109525500D01*
X233175000Y-109525500D01*
X233175000Y-109779500D01*
X233155000Y-109779500D01*
X233155000Y-109799500D01*
X232901000Y-109799500D01*
X232901000Y-109779500D01*
X232901000Y-109525500D01*
X232901000Y-108731750D01*
X232742250Y-108573000D01*
X232455809Y-108573000D01*
X232203190Y-108573000D01*
X231969801Y-108669673D01*
X231791173Y-108848302D01*
X231694500Y-109081691D01*
X231694500Y-109366750D01*
X231853250Y-109525500D01*
X232901000Y-109525500D01*
X232901000Y-109779500D01*
X231853250Y-109779500D01*
X231755756Y-109876993D01*
X231754178Y-109876045D01*
X231627178Y-109949368D01*
X231627178Y-109656074D01*
X231622762Y-109404164D01*
X231165486Y-109088302D01*
X230622143Y-108971476D01*
X230210301Y-109025696D01*
X230080522Y-109241649D01*
X230646637Y-110222190D01*
X231627178Y-109656074D01*
X231627178Y-109949368D01*
X230773637Y-110442160D01*
X231339753Y-111422701D01*
X231591663Y-111418285D01*
X231694500Y-111269407D01*
X231694500Y-111863870D01*
X230856815Y-111026185D01*
X230792856Y-110983449D01*
X230572922Y-110602512D01*
X230586011Y-110589424D01*
X230406403Y-110409816D01*
X230013219Y-110803000D01*
X229640644Y-110803000D01*
X230426667Y-110349190D01*
X229860551Y-109368649D01*
X229608641Y-109373065D01*
X229543937Y-109466736D01*
X229543942Y-109461613D01*
X229331710Y-108947971D01*
X228939070Y-108554645D01*
X228425800Y-108341517D01*
X227870039Y-108341032D01*
X227356397Y-108553264D01*
X227090478Y-108818718D01*
X227090491Y-108804213D01*
X226878259Y-108290571D01*
X226485619Y-107897245D01*
X226163257Y-107763388D01*
X236102642Y-108508842D01*
X236102642Y-108508842D01*
G37*
X236102642Y-108508842D02*
X236056803Y-108619507D01*
X235992810Y-108593000D01*
X235740191Y-108593000D01*
X234343191Y-108593000D01*
X234109802Y-108689673D01*
X234108000Y-108691474D01*
X234086199Y-108669673D01*
X233852810Y-108573000D01*
X233600191Y-108573000D01*
X233313750Y-108573000D01*
X233155000Y-108731750D01*
X233155000Y-109525500D01*
X233175000Y-109525500D01*
X233175000Y-109779500D01*
X233155000Y-109779500D01*
X233155000Y-109799500D01*
X232901000Y-109799500D01*
X232901000Y-109779500D01*
X232901000Y-109525500D01*
X232901000Y-108731750D01*
X232742250Y-108573000D01*
X232455809Y-108573000D01*
X232203190Y-108573000D01*
X231969801Y-108669673D01*
X231791173Y-108848302D01*
X231694500Y-109081691D01*
X231694500Y-109366750D01*
X231853250Y-109525500D01*
X232901000Y-109525500D01*
X232901000Y-109779500D01*
X231853250Y-109779500D01*
X231755756Y-109876993D01*
X231754178Y-109876045D01*
X231627178Y-109949368D01*
X231627178Y-109656074D01*
X231622762Y-109404164D01*
X231165486Y-109088302D01*
X230622143Y-108971476D01*
X230210301Y-109025696D01*
X230080522Y-109241649D01*
X230646637Y-110222190D01*
X231627178Y-109656074D01*
X231627178Y-109949368D01*
X230773637Y-110442160D01*
X231339753Y-111422701D01*
X231591663Y-111418285D01*
X231694500Y-111269407D01*
X231694500Y-111863870D01*
X230856815Y-111026185D01*
X230792856Y-110983449D01*
X230572922Y-110602512D01*
X230586011Y-110589424D01*
X230406403Y-110409816D01*
X230013219Y-110803000D01*
X229640644Y-110803000D01*
X230426667Y-110349190D01*
X229860551Y-109368649D01*
X229608641Y-109373065D01*
X229543937Y-109466736D01*
X229543942Y-109461613D01*
X229331710Y-108947971D01*
X228939070Y-108554645D01*
X228425800Y-108341517D01*
X227870039Y-108341032D01*
X227356397Y-108553264D01*
X227090478Y-108818718D01*
X227090491Y-108804213D01*
X226878259Y-108290571D01*
X226485619Y-107897245D01*
X226163257Y-107763388D01*
X236102642Y-108508842D01*
G36*
X244568000Y-112457000D02*
X244011750Y-112457000D01*
X243853000Y-112615750D01*
X243853000Y-113965000D01*
X243873000Y-113965000D01*
X243873000Y-114219000D01*
X243853000Y-114219000D01*
X243853000Y-115568250D01*
X243975000Y-115690250D01*
X243975000Y-116355500D01*
X243995000Y-116355500D01*
X243995000Y-116609500D01*
X243975000Y-116609500D01*
X243975000Y-116629500D01*
X243721000Y-116629500D01*
X243721000Y-116609500D01*
X243721000Y-116355500D01*
X243721000Y-115561750D01*
X243599000Y-115439750D01*
X243599000Y-114219000D01*
X243579000Y-114219000D01*
X243579000Y-113965000D01*
X243599000Y-113965000D01*
X243599000Y-112615750D01*
X243440250Y-112457000D01*
X242599691Y-112457000D01*
X242366302Y-112553673D01*
X242187673Y-112732301D01*
X242091000Y-112965690D01*
X242091000Y-113079510D01*
X242020000Y-113150510D01*
X242020000Y-114599580D01*
X242040000Y-114599580D01*
X242040000Y-114853580D01*
X242020000Y-114853580D01*
X242020000Y-116302650D01*
X242178750Y-116461400D01*
X242319029Y-116461400D01*
X242552418Y-116364727D01*
X242617447Y-116299697D01*
X242673250Y-116355500D01*
X243721000Y-116355500D01*
X243721000Y-116609500D01*
X242673250Y-116609500D01*
X242552945Y-116729804D01*
X230442962Y-116725673D01*
X229205869Y-115488580D01*
X233338280Y-115488580D01*
X233338280Y-115952709D01*
X233434953Y-116186098D01*
X233613581Y-116364727D01*
X233846970Y-116461400D01*
X234099589Y-116461400D01*
X234699029Y-116461400D01*
X234907999Y-116374841D01*
X235116970Y-116461400D01*
X235369589Y-116461400D01*
X235969029Y-116461400D01*
X236177999Y-116374841D01*
X236386970Y-116461400D01*
X236639589Y-116461400D01*
X237239029Y-116461400D01*
X237447999Y-116374841D01*
X237656970Y-116461400D01*
X237909589Y-116461400D01*
X238509029Y-116461400D01*
X238717999Y-116374841D01*
X238926970Y-116461400D01*
X239179589Y-116461400D01*
X239779029Y-116461400D01*
X239987999Y-116374841D01*
X240196970Y-116461400D01*
X240449589Y-116461400D01*
X241049029Y-116461400D01*
X241258000Y-116374841D01*
X241466971Y-116461400D01*
X241607250Y-116461400D01*
X241766000Y-116302650D01*
X241766000Y-114853580D01*
X241746000Y-114853580D01*
X241746000Y-114599580D01*
X241766000Y-114599580D01*
X241766000Y-113150510D01*
X241663060Y-113047570D01*
X243300630Y-111410000D01*
X244314309Y-111410000D01*
X244547698Y-111313327D01*
X244568000Y-111293025D01*
X244568000Y-112457000D01*
X244568000Y-112457000D01*
G37*
X244568000Y-112457000D02*
X244011750Y-112457000D01*
X243853000Y-112615750D01*
X243853000Y-113965000D01*
X243873000Y-113965000D01*
X243873000Y-114219000D01*
X243853000Y-114219000D01*
X243853000Y-115568250D01*
X243975000Y-115690250D01*
X243975000Y-116355500D01*
X243995000Y-116355500D01*
X243995000Y-116609500D01*
X243975000Y-116609500D01*
X243975000Y-116629500D01*
X243721000Y-116629500D01*
X243721000Y-116609500D01*
X243721000Y-116355500D01*
X243721000Y-115561750D01*
X243599000Y-115439750D01*
X243599000Y-114219000D01*
X243579000Y-114219000D01*
X243579000Y-113965000D01*
X243599000Y-113965000D01*
X243599000Y-112615750D01*
X243440250Y-112457000D01*
X242599691Y-112457000D01*
X242366302Y-112553673D01*
X242187673Y-112732301D01*
X242091000Y-112965690D01*
X242091000Y-113079510D01*
X242020000Y-113150510D01*
X242020000Y-114599580D01*
X242040000Y-114599580D01*
X242040000Y-114853580D01*
X242020000Y-114853580D01*
X242020000Y-116302650D01*
X242178750Y-116461400D01*
X242319029Y-116461400D01*
X242552418Y-116364727D01*
X242617447Y-116299697D01*
X242673250Y-116355500D01*
X243721000Y-116355500D01*
X243721000Y-116609500D01*
X242673250Y-116609500D01*
X242552945Y-116729804D01*
X230442962Y-116725673D01*
X229205869Y-115488580D01*
X233338280Y-115488580D01*
X233338280Y-115952709D01*
X233434953Y-116186098D01*
X233613581Y-116364727D01*
X233846970Y-116461400D01*
X234099589Y-116461400D01*
X234699029Y-116461400D01*
X234907999Y-116374841D01*
X235116970Y-116461400D01*
X235369589Y-116461400D01*
X235969029Y-116461400D01*
X236177999Y-116374841D01*
X236386970Y-116461400D01*
X236639589Y-116461400D01*
X237239029Y-116461400D01*
X237447999Y-116374841D01*
X237656970Y-116461400D01*
X237909589Y-116461400D01*
X238509029Y-116461400D01*
X238717999Y-116374841D01*
X238926970Y-116461400D01*
X239179589Y-116461400D01*
X239779029Y-116461400D01*
X239987999Y-116374841D01*
X240196970Y-116461400D01*
X240449589Y-116461400D01*
X241049029Y-116461400D01*
X241258000Y-116374841D01*
X241466971Y-116461400D01*
X241607250Y-116461400D01*
X241766000Y-116302650D01*
X241766000Y-114853580D01*
X241746000Y-114853580D01*
X241746000Y-114599580D01*
X241766000Y-114599580D01*
X241766000Y-113150510D01*
X241663060Y-113047570D01*
X243300630Y-111410000D01*
X244314309Y-111410000D01*
X244547698Y-111313327D01*
X244568000Y-111293025D01*
X244568000Y-112457000D01*
G36*
X165330781Y-85697598D02*
X165184654Y-86242949D01*
X162609902Y-88817701D01*
X162609902Y-86508152D01*
X162609902Y-85714402D01*
X161562152Y-85714402D01*
X161403402Y-85873152D01*
X161403402Y-86158211D01*
X161500075Y-86391600D01*
X161678703Y-86570229D01*
X161912092Y-86666902D01*
X162164711Y-86666902D01*
X162451152Y-86666902D01*
X162609902Y-86508152D01*
X162609902Y-88817701D01*
X160276249Y-91151355D01*
X160276589Y-90761118D01*
X160112591Y-90364213D01*
X159809188Y-90060280D01*
X159801870Y-90057241D01*
X160408417Y-89806621D01*
X160896906Y-89318984D01*
X161161601Y-88681529D01*
X161162203Y-87991303D01*
X160898621Y-87353387D01*
X160410984Y-86864898D01*
X159885992Y-86646902D01*
X160841711Y-86646902D01*
X161075100Y-86550229D01*
X161253729Y-86371601D01*
X161350402Y-86138212D01*
X161350402Y-85885593D01*
X161350402Y-84996593D01*
X161253729Y-84763204D01*
X161105427Y-84614901D01*
X161253729Y-84466601D01*
X161262924Y-84444402D01*
X161482595Y-84444402D01*
X161500075Y-84486600D01*
X161648376Y-84634902D01*
X161500075Y-84783204D01*
X161403402Y-85016593D01*
X161403402Y-85301652D01*
X161562152Y-85460402D01*
X162609902Y-85460402D01*
X162609902Y-85440402D01*
X162863902Y-85440402D01*
X162863902Y-85460402D01*
X162883902Y-85460402D01*
X162883902Y-85714402D01*
X162863902Y-85714402D01*
X162863902Y-86508152D01*
X163022652Y-86666902D01*
X163309093Y-86666902D01*
X163561712Y-86666902D01*
X163795101Y-86570229D01*
X163973729Y-86391600D01*
X164070402Y-86158211D01*
X164070402Y-85873152D01*
X164015407Y-85818157D01*
X164391234Y-85974215D01*
X164820686Y-85974589D01*
X165217591Y-85810591D01*
X165330781Y-85697598D01*
X165330781Y-85697598D01*
G37*
X165330781Y-85697598D02*
X165184654Y-86242949D01*
X162609902Y-88817701D01*
X162609902Y-86508152D01*
X162609902Y-85714402D01*
X161562152Y-85714402D01*
X161403402Y-85873152D01*
X161403402Y-86158211D01*
X161500075Y-86391600D01*
X161678703Y-86570229D01*
X161912092Y-86666902D01*
X162164711Y-86666902D01*
X162451152Y-86666902D01*
X162609902Y-86508152D01*
X162609902Y-88817701D01*
X160276249Y-91151355D01*
X160276589Y-90761118D01*
X160112591Y-90364213D01*
X159809188Y-90060280D01*
X159801870Y-90057241D01*
X160408417Y-89806621D01*
X160896906Y-89318984D01*
X161161601Y-88681529D01*
X161162203Y-87991303D01*
X160898621Y-87353387D01*
X160410984Y-86864898D01*
X159885992Y-86646902D01*
X160841711Y-86646902D01*
X161075100Y-86550229D01*
X161253729Y-86371601D01*
X161350402Y-86138212D01*
X161350402Y-85885593D01*
X161350402Y-84996593D01*
X161253729Y-84763204D01*
X161105427Y-84614901D01*
X161253729Y-84466601D01*
X161262924Y-84444402D01*
X161482595Y-84444402D01*
X161500075Y-84486600D01*
X161648376Y-84634902D01*
X161500075Y-84783204D01*
X161403402Y-85016593D01*
X161403402Y-85301652D01*
X161562152Y-85460402D01*
X162609902Y-85460402D01*
X162609902Y-85440402D01*
X162863902Y-85440402D01*
X162863902Y-85460402D01*
X162883902Y-85460402D01*
X162883902Y-85714402D01*
X162863902Y-85714402D01*
X162863902Y-86508152D01*
X163022652Y-86666902D01*
X163309093Y-86666902D01*
X163561712Y-86666902D01*
X163795101Y-86570229D01*
X163973729Y-86391600D01*
X164070402Y-86158211D01*
X164070402Y-85873152D01*
X164015407Y-85818157D01*
X164391234Y-85974215D01*
X164820686Y-85974589D01*
X165217591Y-85810591D01*
X165330781Y-85697598D01*
G36*
X165551032Y-97531322D02*
X161366622Y-97531322D01*
X161366622Y-97067193D01*
X161269949Y-96833804D01*
X161091321Y-96655175D01*
X160857932Y-96558502D01*
X160605313Y-96558502D01*
X160005873Y-96558502D01*
X159796902Y-96645060D01*
X159587932Y-96558502D01*
X159335313Y-96558502D01*
X158735873Y-96558502D01*
X158526902Y-96645060D01*
X158317932Y-96558502D01*
X158065313Y-96558502D01*
X157465873Y-96558502D01*
X157256902Y-96645060D01*
X157047932Y-96558502D01*
X156795313Y-96558502D01*
X156195873Y-96558502D01*
X155986902Y-96645060D01*
X155777932Y-96558502D01*
X155525313Y-96558502D01*
X154925873Y-96558502D01*
X154716902Y-96645060D01*
X154507932Y-96558502D01*
X154255313Y-96558502D01*
X153655873Y-96558502D01*
X153446902Y-96645060D01*
X153237931Y-96558502D01*
X153097652Y-96558502D01*
X152938902Y-96717252D01*
X152938902Y-98166322D01*
X152958902Y-98166322D01*
X152958902Y-98420322D01*
X152938902Y-98420322D01*
X152938902Y-99869392D01*
X153041842Y-99972332D01*
X152684902Y-100329272D01*
X152684902Y-99869392D01*
X152684902Y-98420322D01*
X152664902Y-98420322D01*
X152664902Y-98166322D01*
X152684902Y-98166322D01*
X152684902Y-96717252D01*
X152526152Y-96558502D01*
X152385873Y-96558502D01*
X152152484Y-96655175D01*
X152087454Y-96720204D01*
X152031652Y-96664402D01*
X150983902Y-96664402D01*
X150983902Y-97458152D01*
X151105902Y-97580152D01*
X151105902Y-98800902D01*
X151125902Y-98800902D01*
X151125902Y-99054902D01*
X151105902Y-99054902D01*
X151105902Y-100404152D01*
X151264652Y-100562902D01*
X152105211Y-100562902D01*
X152338600Y-100466229D01*
X152517229Y-100287601D01*
X152613902Y-100054212D01*
X152613902Y-99940392D01*
X152684902Y-99869392D01*
X152684902Y-100329272D01*
X151404272Y-101609902D01*
X150390593Y-101609902D01*
X150157204Y-101706575D01*
X150136902Y-101726876D01*
X150136902Y-100562902D01*
X150693152Y-100562902D01*
X150851902Y-100404152D01*
X150851902Y-99054902D01*
X150831902Y-99054902D01*
X150831902Y-98800902D01*
X150851902Y-98800902D01*
X150851902Y-97451652D01*
X150729902Y-97329652D01*
X150729902Y-96664402D01*
X150709902Y-96664402D01*
X150709902Y-96410402D01*
X150729902Y-96410402D01*
X150729902Y-96390402D01*
X150983902Y-96390402D01*
X150983902Y-96410402D01*
X152031652Y-96410402D01*
X152152151Y-96289902D01*
X164309612Y-96289902D01*
X165551032Y-97531322D01*
X165551032Y-97531322D01*
G37*
X165551032Y-97531322D02*
X161366622Y-97531322D01*
X161366622Y-97067193D01*
X161269949Y-96833804D01*
X161091321Y-96655175D01*
X160857932Y-96558502D01*
X160605313Y-96558502D01*
X160005873Y-96558502D01*
X159796902Y-96645060D01*
X159587932Y-96558502D01*
X159335313Y-96558502D01*
X158735873Y-96558502D01*
X158526902Y-96645060D01*
X158317932Y-96558502D01*
X158065313Y-96558502D01*
X157465873Y-96558502D01*
X157256902Y-96645060D01*
X157047932Y-96558502D01*
X156795313Y-96558502D01*
X156195873Y-96558502D01*
X155986902Y-96645060D01*
X155777932Y-96558502D01*
X155525313Y-96558502D01*
X154925873Y-96558502D01*
X154716902Y-96645060D01*
X154507932Y-96558502D01*
X154255313Y-96558502D01*
X153655873Y-96558502D01*
X153446902Y-96645060D01*
X153237931Y-96558502D01*
X153097652Y-96558502D01*
X152938902Y-96717252D01*
X152938902Y-98166322D01*
X152958902Y-98166322D01*
X152958902Y-98420322D01*
X152938902Y-98420322D01*
X152938902Y-99869392D01*
X153041842Y-99972332D01*
X152684902Y-100329272D01*
X152684902Y-99869392D01*
X152684902Y-98420322D01*
X152664902Y-98420322D01*
X152664902Y-98166322D01*
X152684902Y-98166322D01*
X152684902Y-96717252D01*
X152526152Y-96558502D01*
X152385873Y-96558502D01*
X152152484Y-96655175D01*
X152087454Y-96720204D01*
X152031652Y-96664402D01*
X150983902Y-96664402D01*
X150983902Y-97458152D01*
X151105902Y-97580152D01*
X151105902Y-98800902D01*
X151125902Y-98800902D01*
X151125902Y-99054902D01*
X151105902Y-99054902D01*
X151105902Y-100404152D01*
X151264652Y-100562902D01*
X152105211Y-100562902D01*
X152338600Y-100466229D01*
X152517229Y-100287601D01*
X152613902Y-100054212D01*
X152613902Y-99940392D01*
X152684902Y-99869392D01*
X152684902Y-100329272D01*
X151404272Y-101609902D01*
X150390593Y-101609902D01*
X150157204Y-101706575D01*
X150136902Y-101726876D01*
X150136902Y-100562902D01*
X150693152Y-100562902D01*
X150851902Y-100404152D01*
X150851902Y-99054902D01*
X150831902Y-99054902D01*
X150831902Y-98800902D01*
X150851902Y-98800902D01*
X150851902Y-97451652D01*
X150729902Y-97329652D01*
X150729902Y-96664402D01*
X150709902Y-96664402D01*
X150709902Y-96410402D01*
X150729902Y-96410402D01*
X150729902Y-96390402D01*
X150983902Y-96390402D01*
X150983902Y-96410402D01*
X152031652Y-96410402D01*
X152152151Y-96289902D01*
X164309612Y-96289902D01*
X165551032Y-97531322D01*
G36*
X168541644Y-105256513D02*
X164624380Y-104962718D01*
X164624380Y-103778253D01*
X164058265Y-102797712D01*
X163077724Y-103363828D01*
X163082140Y-103615738D01*
X163539416Y-103931600D01*
X164082759Y-104048426D01*
X164494601Y-103994206D01*
X164624380Y-103778253D01*
X164624380Y-104962718D01*
X163010402Y-104841669D01*
X163010402Y-103938211D01*
X163010402Y-103653152D01*
X162851652Y-103494402D01*
X161803902Y-103494402D01*
X161803902Y-104288152D01*
X161962652Y-104446902D01*
X162249093Y-104446902D01*
X162501712Y-104446902D01*
X162735101Y-104350229D01*
X162913729Y-104171600D01*
X163010402Y-103938211D01*
X163010402Y-104841669D01*
X158602259Y-104511059D01*
X158648098Y-104400394D01*
X158712092Y-104426902D01*
X158964711Y-104426902D01*
X160361711Y-104426902D01*
X160595100Y-104330229D01*
X160596901Y-104328427D01*
X160618703Y-104350229D01*
X160852092Y-104446902D01*
X161104711Y-104446902D01*
X161391152Y-104446902D01*
X161549902Y-104288152D01*
X161549902Y-103494402D01*
X161529902Y-103494402D01*
X161529902Y-103240402D01*
X161549902Y-103240402D01*
X161549902Y-103220402D01*
X161803902Y-103220402D01*
X161803902Y-103240402D01*
X162851652Y-103240402D01*
X162949145Y-103142908D01*
X162950724Y-103143857D01*
X163931265Y-102577742D01*
X163365149Y-101597201D01*
X163113239Y-101601617D01*
X163010402Y-101750494D01*
X163010402Y-101156032D01*
X163848087Y-101993717D01*
X163912045Y-102036452D01*
X164131979Y-102417389D01*
X164118891Y-102430478D01*
X164298499Y-102610086D01*
X164691683Y-102216902D01*
X165064257Y-102216902D01*
X164278235Y-102670712D01*
X164844351Y-103651253D01*
X165096261Y-103646837D01*
X165160964Y-103553165D01*
X165160960Y-103558289D01*
X165373192Y-104071931D01*
X165765832Y-104465257D01*
X166279102Y-104678385D01*
X166834863Y-104678870D01*
X167348505Y-104466638D01*
X167614423Y-104201183D01*
X167614411Y-104215689D01*
X167826643Y-104729331D01*
X168219283Y-105122657D01*
X168541644Y-105256513D01*
X168541644Y-105256513D01*
G37*
X168541644Y-105256513D02*
X164624380Y-104962718D01*
X164624380Y-103778253D01*
X164058265Y-102797712D01*
X163077724Y-103363828D01*
X163082140Y-103615738D01*
X163539416Y-103931600D01*
X164082759Y-104048426D01*
X164494601Y-103994206D01*
X164624380Y-103778253D01*
X164624380Y-104962718D01*
X163010402Y-104841669D01*
X163010402Y-103938211D01*
X163010402Y-103653152D01*
X162851652Y-103494402D01*
X161803902Y-103494402D01*
X161803902Y-104288152D01*
X161962652Y-104446902D01*
X162249093Y-104446902D01*
X162501712Y-104446902D01*
X162735101Y-104350229D01*
X162913729Y-104171600D01*
X163010402Y-103938211D01*
X163010402Y-104841669D01*
X158602259Y-104511059D01*
X158648098Y-104400394D01*
X158712092Y-104426902D01*
X158964711Y-104426902D01*
X160361711Y-104426902D01*
X160595100Y-104330229D01*
X160596901Y-104328427D01*
X160618703Y-104350229D01*
X160852092Y-104446902D01*
X161104711Y-104446902D01*
X161391152Y-104446902D01*
X161549902Y-104288152D01*
X161549902Y-103494402D01*
X161529902Y-103494402D01*
X161529902Y-103240402D01*
X161549902Y-103240402D01*
X161549902Y-103220402D01*
X161803902Y-103220402D01*
X161803902Y-103240402D01*
X162851652Y-103240402D01*
X162949145Y-103142908D01*
X162950724Y-103143857D01*
X163931265Y-102577742D01*
X163365149Y-101597201D01*
X163113239Y-101601617D01*
X163010402Y-101750494D01*
X163010402Y-101156032D01*
X163848087Y-101993717D01*
X163912045Y-102036452D01*
X164131979Y-102417389D01*
X164118891Y-102430478D01*
X164298499Y-102610086D01*
X164691683Y-102216902D01*
X165064257Y-102216902D01*
X164278235Y-102670712D01*
X164844351Y-103651253D01*
X165096261Y-103646837D01*
X165160964Y-103553165D01*
X165160960Y-103558289D01*
X165373192Y-104071931D01*
X165765832Y-104465257D01*
X166279102Y-104678385D01*
X166834863Y-104678870D01*
X167348505Y-104466638D01*
X167614423Y-104201183D01*
X167614411Y-104215689D01*
X167826643Y-104729331D01*
X168219283Y-105122657D01*
X168541644Y-105256513D01*
G36*
X173793298Y-87399159D02*
X171466663Y-87861956D01*
X169297893Y-89311082D01*
X167848767Y-91479852D01*
X167339902Y-94038091D01*
X167803279Y-96367649D01*
X165589925Y-94154295D01*
X165666215Y-93970570D01*
X165666589Y-93541118D01*
X165590448Y-93356845D01*
X165703661Y-93356944D01*
X166304809Y-93108554D01*
X166765144Y-92649023D01*
X167014582Y-92048308D01*
X167015150Y-91397865D01*
X166766760Y-90796717D01*
X166307229Y-90336382D01*
X165706514Y-90086944D01*
X165056071Y-90086376D01*
X164454923Y-90334766D01*
X163994588Y-90794297D01*
X163745150Y-91395012D01*
X163744582Y-92045455D01*
X163864005Y-92334482D01*
X161366622Y-92334482D01*
X161366622Y-92216243D01*
X166077960Y-87504905D01*
X166523082Y-87624175D01*
X166773539Y-87591202D01*
X166955171Y-87486337D01*
X167060035Y-87667968D01*
X167260451Y-87821753D01*
X167504462Y-87887135D01*
X168363170Y-88117225D01*
X168504065Y-88098675D01*
X168674616Y-88269524D01*
X169071234Y-88434215D01*
X169500686Y-88434589D01*
X169897591Y-88270591D01*
X170201524Y-87967188D01*
X170366215Y-87570570D01*
X170366589Y-87141118D01*
X170202591Y-86744213D01*
X169899188Y-86440280D01*
X169502570Y-86275589D01*
X169383298Y-86275485D01*
X169413139Y-86164118D01*
X169380166Y-85913661D01*
X169376107Y-85906631D01*
X169512402Y-85827943D01*
X169666186Y-85627527D01*
X169731569Y-85383516D01*
X169750349Y-85313427D01*
X172071744Y-85313427D01*
X172334047Y-85575729D01*
X172107600Y-86420842D01*
X172140573Y-86671300D01*
X172266882Y-86890074D01*
X172467298Y-87043859D01*
X172711309Y-87109241D01*
X173793298Y-87399159D01*
X173793298Y-87399159D01*
G37*
X173793298Y-87399159D02*
X171466663Y-87861956D01*
X169297893Y-89311082D01*
X167848767Y-91479852D01*
X167339902Y-94038091D01*
X167803279Y-96367649D01*
X165589925Y-94154295D01*
X165666215Y-93970570D01*
X165666589Y-93541118D01*
X165590448Y-93356845D01*
X165703661Y-93356944D01*
X166304809Y-93108554D01*
X166765144Y-92649023D01*
X167014582Y-92048308D01*
X167015150Y-91397865D01*
X166766760Y-90796717D01*
X166307229Y-90336382D01*
X165706514Y-90086944D01*
X165056071Y-90086376D01*
X164454923Y-90334766D01*
X163994588Y-90794297D01*
X163745150Y-91395012D01*
X163744582Y-92045455D01*
X163864005Y-92334482D01*
X161366622Y-92334482D01*
X161366622Y-92216243D01*
X166077960Y-87504905D01*
X166523082Y-87624175D01*
X166773539Y-87591202D01*
X166955171Y-87486337D01*
X167060035Y-87667968D01*
X167260451Y-87821753D01*
X167504462Y-87887135D01*
X168363170Y-88117225D01*
X168504065Y-88098675D01*
X168674616Y-88269524D01*
X169071234Y-88434215D01*
X169500686Y-88434589D01*
X169897591Y-88270591D01*
X170201524Y-87967188D01*
X170366215Y-87570570D01*
X170366589Y-87141118D01*
X170202591Y-86744213D01*
X169899188Y-86440280D01*
X169502570Y-86275589D01*
X169383298Y-86275485D01*
X169413139Y-86164118D01*
X169380166Y-85913661D01*
X169376107Y-85906631D01*
X169512402Y-85827943D01*
X169666186Y-85627527D01*
X169731569Y-85383516D01*
X169750349Y-85313427D01*
X172071744Y-85313427D01*
X172334047Y-85575729D01*
X172107600Y-86420842D01*
X172140573Y-86671300D01*
X172266882Y-86890074D01*
X172467298Y-87043859D01*
X172711309Y-87109241D01*
X173793298Y-87399159D01*
G36*
X176798827Y-105351007D02*
X176679692Y-105374706D01*
X176423751Y-105480720D01*
X176269634Y-105583698D01*
X176153615Y-105699717D01*
X176087046Y-105633032D01*
X175706777Y-105475131D01*
X175295029Y-105474772D01*
X174914485Y-105632009D01*
X174749968Y-105796238D01*
X174587046Y-105633032D01*
X174206777Y-105475131D01*
X173795029Y-105474772D01*
X173414485Y-105632009D01*
X173249968Y-105796238D01*
X173087046Y-105633032D01*
X172706777Y-105475131D01*
X172295029Y-105474772D01*
X171914485Y-105632009D01*
X171846521Y-105699853D01*
X171795661Y-105648993D01*
X171730366Y-105583698D01*
X171730364Y-105583697D01*
X171576249Y-105480720D01*
X171320308Y-105374706D01*
X171138515Y-105338545D01*
X171068587Y-105338545D01*
X171000000Y-105324902D01*
X169453496Y-105324902D01*
X169336976Y-105316163D01*
X169801956Y-105124038D01*
X170195282Y-104731398D01*
X170408410Y-104218128D01*
X170408895Y-103662367D01*
X170196663Y-103148725D01*
X170093781Y-103045663D01*
X170165524Y-103064887D01*
X170415982Y-103031913D01*
X170634756Y-102905604D01*
X170788541Y-102705189D01*
X170853923Y-102461178D01*
X171034369Y-101787741D01*
X171380773Y-102134145D01*
X171684109Y-102336827D01*
X172041918Y-102408000D01*
X173636723Y-102408000D01*
X173433734Y-102896854D01*
X173433166Y-103547297D01*
X173681556Y-104148445D01*
X174141087Y-104608780D01*
X174741802Y-104858218D01*
X175392245Y-104858786D01*
X175993393Y-104610396D01*
X176036478Y-104567385D01*
X176135008Y-104805845D01*
X176594539Y-105266180D01*
X176798827Y-105351007D01*
X176798827Y-105351007D01*
G37*
X176798827Y-105351007D02*
X176679692Y-105374706D01*
X176423751Y-105480720D01*
X176269634Y-105583698D01*
X176153615Y-105699717D01*
X176087046Y-105633032D01*
X175706777Y-105475131D01*
X175295029Y-105474772D01*
X174914485Y-105632009D01*
X174749968Y-105796238D01*
X174587046Y-105633032D01*
X174206777Y-105475131D01*
X173795029Y-105474772D01*
X173414485Y-105632009D01*
X173249968Y-105796238D01*
X173087046Y-105633032D01*
X172706777Y-105475131D01*
X172295029Y-105474772D01*
X171914485Y-105632009D01*
X171846521Y-105699853D01*
X171795661Y-105648993D01*
X171730366Y-105583698D01*
X171730364Y-105583697D01*
X171576249Y-105480720D01*
X171320308Y-105374706D01*
X171138515Y-105338545D01*
X171068587Y-105338545D01*
X171000000Y-105324902D01*
X169453496Y-105324902D01*
X169336976Y-105316163D01*
X169801956Y-105124038D01*
X170195282Y-104731398D01*
X170408410Y-104218128D01*
X170408895Y-103662367D01*
X170196663Y-103148725D01*
X170093781Y-103045663D01*
X170165524Y-103064887D01*
X170415982Y-103031913D01*
X170634756Y-102905604D01*
X170788541Y-102705189D01*
X170853923Y-102461178D01*
X171034369Y-101787741D01*
X171380773Y-102134145D01*
X171684109Y-102336827D01*
X172041918Y-102408000D01*
X173636723Y-102408000D01*
X173433734Y-102896854D01*
X173433166Y-103547297D01*
X173681556Y-104148445D01*
X174141087Y-104608780D01*
X174741802Y-104858218D01*
X175392245Y-104858786D01*
X175993393Y-104610396D01*
X176036478Y-104567385D01*
X176135008Y-104805845D01*
X176594539Y-105266180D01*
X176798827Y-105351007D01*
G36*
X213282815Y-107695000D02*
X213208190Y-107800083D01*
X213142641Y-108086724D01*
X202577701Y-108157513D01*
X202480767Y-107922914D01*
X202253250Y-107695000D01*
X213282815Y-107695000D01*
X213282815Y-107695000D01*
G37*
X213282815Y-107695000D02*
X213208190Y-107800083D01*
X213142641Y-108086724D01*
X202577701Y-108157513D01*
X202480767Y-107922914D01*
X202253250Y-107695000D01*
X213282815Y-107695000D01*
G36*
X228716902Y-94245496D02*
X228617441Y-94146035D01*
X228384052Y-94049362D01*
X228131433Y-94049362D01*
X227130673Y-94049362D01*
X226897284Y-94146035D01*
X226718655Y-94324663D01*
X226621982Y-94558052D01*
X226621982Y-94810671D01*
X226621982Y-95811431D01*
X226718655Y-96044820D01*
X226761902Y-96088067D01*
X226761902Y-96114538D01*
X226735257Y-96141137D01*
X226562099Y-96558146D01*
X226561705Y-97009677D01*
X226734135Y-97426988D01*
X227053137Y-97746547D01*
X227470146Y-97919705D01*
X227509449Y-97919739D01*
X227901902Y-98312192D01*
X227901902Y-99149682D01*
X227130673Y-99149682D01*
X226897284Y-99246355D01*
X226793576Y-99350062D01*
X221206742Y-99350062D01*
X220848933Y-99421235D01*
X220545597Y-99623917D01*
X219841135Y-100328378D01*
X219444816Y-100492135D01*
X219125257Y-100811137D01*
X218959719Y-101209794D01*
X218849612Y-101319902D01*
X218720687Y-101319902D01*
X218895609Y-101144981D01*
X218992282Y-100911592D01*
X218992282Y-100658973D01*
X218992282Y-100227152D01*
X219779311Y-99440122D01*
X219947591Y-99370591D01*
X220251524Y-99067188D01*
X220416215Y-98670570D01*
X220416589Y-98241118D01*
X220252591Y-97844213D01*
X219949188Y-97540280D01*
X219552570Y-97375589D01*
X219123118Y-97375215D01*
X218992282Y-97429275D01*
X218992282Y-95811591D01*
X218992282Y-95470652D01*
X218992282Y-94899152D01*
X218992282Y-94558213D01*
X218895609Y-94324824D01*
X218716981Y-94146195D01*
X218483592Y-94049522D01*
X218230973Y-94049522D01*
X218142652Y-94049522D01*
X217983902Y-94208272D01*
X217983902Y-95057902D01*
X218833532Y-95057902D01*
X218992282Y-94899152D01*
X218992282Y-95470652D01*
X218833532Y-95311902D01*
X217983902Y-95311902D01*
X217983902Y-96161532D01*
X218142652Y-96320282D01*
X218230973Y-96320282D01*
X218483592Y-96320282D01*
X218716981Y-96223609D01*
X218895609Y-96044980D01*
X218992282Y-95811591D01*
X218992282Y-97429275D01*
X218726213Y-97539213D01*
X218422280Y-97842616D01*
X218257589Y-98239234D01*
X218257215Y-98668686D01*
X218297643Y-98766530D01*
X217979232Y-99084942D01*
X217068902Y-98174612D01*
X217068902Y-96910093D01*
X216972229Y-96676704D01*
X216793601Y-96498075D01*
X216560212Y-96401402D01*
X216307593Y-96401402D01*
X215418593Y-96401402D01*
X215185204Y-96498075D01*
X215036902Y-96646376D01*
X214888600Y-96498075D01*
X214655211Y-96401402D01*
X214370152Y-96401402D01*
X214211402Y-96560152D01*
X214211402Y-97607902D01*
X214231402Y-97607902D01*
X214231402Y-97861902D01*
X214211402Y-97861902D01*
X214211402Y-97881902D01*
X213957402Y-97881902D01*
X213957402Y-97861902D01*
X213957402Y-97607902D01*
X213957402Y-96560152D01*
X213798652Y-96401402D01*
X213513593Y-96401402D01*
X213280204Y-96498075D01*
X213101575Y-96676703D01*
X213004902Y-96910092D01*
X213004902Y-97162711D01*
X213004902Y-97449152D01*
X213163652Y-97607902D01*
X213957402Y-97607902D01*
X213957402Y-97861902D01*
X213163652Y-97861902D01*
X213017592Y-98007961D01*
X212626622Y-97616991D01*
X212626622Y-96461823D01*
X212529949Y-96228434D01*
X212351321Y-96049805D01*
X212117932Y-95953132D01*
X211865313Y-95953132D01*
X211265873Y-95953132D01*
X211056902Y-96039690D01*
X210847931Y-95953132D01*
X210707652Y-95953132D01*
X210548902Y-96111882D01*
X210548902Y-97160902D01*
X210568902Y-97160902D01*
X210568902Y-97414902D01*
X210548902Y-97414902D01*
X210548902Y-98463922D01*
X210707652Y-98622672D01*
X210847931Y-98622672D01*
X211056901Y-98536113D01*
X211265872Y-98622672D01*
X211477041Y-98622672D01*
X212448087Y-99593718D01*
X212649787Y-99728490D01*
X212500075Y-99878204D01*
X212403402Y-100111593D01*
X212403402Y-100396652D01*
X212562152Y-100555402D01*
X213609902Y-100555402D01*
X213609902Y-100535402D01*
X213863902Y-100535402D01*
X213863902Y-100555402D01*
X214911652Y-100555402D01*
X215070402Y-100396652D01*
X215070402Y-100111593D01*
X214973729Y-99878204D01*
X214872106Y-99776581D01*
X214961006Y-99758898D01*
X214961007Y-99758898D01*
X215208217Y-99593717D01*
X215525822Y-99276112D01*
X216721522Y-100471812D01*
X216721522Y-100911591D01*
X216818195Y-101144980D01*
X216993116Y-101319902D01*
X216410593Y-101319902D01*
X216177204Y-101416575D01*
X215998575Y-101595203D01*
X215901902Y-101828592D01*
X215901902Y-102081211D01*
X215901902Y-105081211D01*
X215983449Y-105278084D01*
X215911676Y-105230126D01*
X215851827Y-105140557D01*
X215803260Y-104896389D01*
X215803259Y-104896388D01*
X215803260Y-104896388D01*
X215727140Y-104513706D01*
X215727139Y-104513705D01*
X215665037Y-104363779D01*
X215621125Y-104257765D01*
X215621125Y-104257764D01*
X215404353Y-103933340D01*
X215208464Y-103737452D01*
X215208463Y-103737451D01*
X214884040Y-103520678D01*
X214856187Y-103509141D01*
X214973729Y-103391601D01*
X215070402Y-103158212D01*
X215070402Y-102905593D01*
X215070402Y-102016593D01*
X214973729Y-101783204D01*
X214825427Y-101634902D01*
X214973729Y-101486600D01*
X215070402Y-101253211D01*
X215070402Y-100968152D01*
X214911652Y-100809402D01*
X213863902Y-100809402D01*
X213863902Y-100829402D01*
X213609902Y-100829402D01*
X213609902Y-100809402D01*
X212562152Y-100809402D01*
X212403402Y-100968152D01*
X212403402Y-101253211D01*
X212500075Y-101486600D01*
X212648376Y-101634902D01*
X212596376Y-101686902D01*
X212581505Y-101686902D01*
X212529949Y-101562434D01*
X212351321Y-101383805D01*
X212117932Y-101287132D01*
X211865313Y-101287132D01*
X211265873Y-101287132D01*
X211056902Y-101373690D01*
X210847931Y-101287132D01*
X210707652Y-101287132D01*
X210548902Y-101445882D01*
X210548902Y-102494902D01*
X210568902Y-102494902D01*
X210568902Y-102748902D01*
X210548902Y-102748902D01*
X210548902Y-102768902D01*
X210294902Y-102768902D01*
X210294902Y-102748902D01*
X210294902Y-102494902D01*
X210294902Y-101445882D01*
X210294902Y-98463922D01*
X210294902Y-97414902D01*
X210294902Y-97160902D01*
X210294902Y-96111882D01*
X210136152Y-95953132D01*
X209995873Y-95953132D01*
X209786902Y-96039690D01*
X209577931Y-95953132D01*
X209437652Y-95953132D01*
X209278902Y-96111882D01*
X209278902Y-97160902D01*
X209645932Y-97160902D01*
X209927872Y-97160902D01*
X210294902Y-97160902D01*
X210294902Y-97414902D01*
X209927872Y-97414902D01*
X209645932Y-97414902D01*
X209278902Y-97414902D01*
X209278902Y-98463922D01*
X209437652Y-98622672D01*
X209577931Y-98622672D01*
X209786902Y-98536113D01*
X209995873Y-98622672D01*
X210136152Y-98622672D01*
X210294902Y-98463922D01*
X210294902Y-101445882D01*
X210136152Y-101287132D01*
X209995873Y-101287132D01*
X209786902Y-101373690D01*
X209577931Y-101287132D01*
X209437652Y-101287132D01*
X209278902Y-101445882D01*
X209278902Y-102494902D01*
X209645932Y-102494902D01*
X209927872Y-102494902D01*
X210294902Y-102494902D01*
X210294902Y-102748902D01*
X209927872Y-102748902D01*
X209645932Y-102748902D01*
X209278902Y-102748902D01*
X209278902Y-102768902D01*
X209024902Y-102768902D01*
X209024902Y-102748902D01*
X209004902Y-102748902D01*
X209004902Y-102494902D01*
X209024902Y-102494902D01*
X209024902Y-101445882D01*
X209024902Y-98463922D01*
X209024902Y-97414902D01*
X209004902Y-97414902D01*
X209004902Y-97160902D01*
X209024902Y-97160902D01*
X209024902Y-96111882D01*
X208866152Y-95953132D01*
X208725873Y-95953132D01*
X208516902Y-96039690D01*
X208307932Y-95953132D01*
X208055313Y-95953132D01*
X207455873Y-95953132D01*
X207222484Y-96049805D01*
X207043855Y-96228433D01*
X206947182Y-96461822D01*
X206947182Y-96714441D01*
X206947182Y-98113981D01*
X207043855Y-98347370D01*
X207222483Y-98525999D01*
X207455872Y-98622672D01*
X207708491Y-98622672D01*
X208307931Y-98622672D01*
X208516902Y-98536113D01*
X208725873Y-98622672D01*
X208866152Y-98622672D01*
X209024902Y-98463922D01*
X209024902Y-101445882D01*
X208866152Y-101287132D01*
X208725873Y-101287132D01*
X208516902Y-101373690D01*
X208307932Y-101287132D01*
X208055313Y-101287132D01*
X207455873Y-101287132D01*
X207222484Y-101383805D01*
X207043855Y-101562433D01*
X206955579Y-101775548D01*
X206820402Y-101775430D01*
X206820402Y-101491192D01*
X207028047Y-101283547D01*
X207230729Y-100980211D01*
X207293745Y-100663407D01*
X207328547Y-100628667D01*
X207501705Y-100211658D01*
X207502099Y-99760127D01*
X207329669Y-99342816D01*
X207010667Y-99023257D01*
X206593658Y-98850099D01*
X206417195Y-98849945D01*
X206371652Y-98804402D01*
X205323902Y-98804402D01*
X205323902Y-99537060D01*
X205232099Y-99758146D01*
X205231705Y-100209677D01*
X205248870Y-100251220D01*
X205179402Y-100237402D01*
X205116902Y-100237402D01*
X205019697Y-100256737D01*
X205019696Y-100256737D01*
X204925717Y-100116087D01*
X204925717Y-100116086D01*
X204566532Y-99756902D01*
X204624711Y-99756902D01*
X204911152Y-99756902D01*
X205069902Y-99598152D01*
X205069902Y-98804402D01*
X204022152Y-98804402D01*
X203992152Y-98834402D01*
X203213902Y-98834402D01*
X203213902Y-98854402D01*
X202959902Y-98854402D01*
X202959902Y-98834402D01*
X202939902Y-98834402D01*
X202939902Y-98580402D01*
X202959902Y-98580402D01*
X202959902Y-98560402D01*
X203213902Y-98560402D01*
X203213902Y-98580402D01*
X204261652Y-98580402D01*
X204291652Y-98550402D01*
X205069902Y-98550402D01*
X205069902Y-98530402D01*
X205323902Y-98530402D01*
X205323902Y-98550402D01*
X206371652Y-98550402D01*
X206530402Y-98391652D01*
X206530402Y-98106593D01*
X206433729Y-97873204D01*
X206285427Y-97724901D01*
X206433729Y-97576601D01*
X206530402Y-97343212D01*
X206530402Y-97090593D01*
X206530402Y-96201593D01*
X206433729Y-95968204D01*
X206255101Y-95789575D01*
X206021712Y-95692902D01*
X205944580Y-95692902D01*
X205900898Y-95473298D01*
X205900898Y-95473297D01*
X205766387Y-95271989D01*
X205766589Y-95041118D01*
X205602591Y-94644213D01*
X205299188Y-94340280D01*
X204902570Y-94175589D01*
X204473118Y-94175215D01*
X204076213Y-94339213D01*
X203772280Y-94642616D01*
X203722167Y-94763299D01*
X203699188Y-94740280D01*
X203302570Y-94575589D01*
X202873118Y-94575215D01*
X202476213Y-94739213D01*
X202441040Y-94774323D01*
X202318152Y-94680027D01*
X201023271Y-94333065D01*
X200828843Y-94445318D01*
X200583498Y-95360958D01*
X200583498Y-94379578D01*
X200471244Y-94185150D01*
X199176364Y-93838188D01*
X198925907Y-93871161D01*
X198707132Y-93997470D01*
X198553347Y-94197886D01*
X198487965Y-94441897D01*
X198206385Y-95492767D01*
X198318638Y-95687195D01*
X200104876Y-96165816D01*
X200583498Y-94379578D01*
X200583498Y-95360958D01*
X200350222Y-96231556D01*
X200369540Y-96236732D01*
X200303800Y-96482078D01*
X200284482Y-96476902D01*
X200039136Y-97392543D01*
X199805860Y-98263140D01*
X199910517Y-98444410D01*
X199892280Y-98462616D01*
X199727589Y-98859234D01*
X199727399Y-99076774D01*
X199622271Y-99181902D01*
X197982402Y-99181902D01*
X197982402Y-98947902D01*
X198002402Y-98947902D01*
X198002402Y-98927902D01*
X198256402Y-98927902D01*
X198256402Y-98947902D01*
X198956172Y-98947902D01*
X199114922Y-98789152D01*
X199114922Y-98700831D01*
X199114922Y-98448212D01*
X199019007Y-98216653D01*
X199366087Y-98309653D01*
X199560515Y-98197400D01*
X200039136Y-96411162D01*
X198252898Y-95932540D01*
X198058470Y-96044794D01*
X197776890Y-97095664D01*
X197711507Y-97339675D01*
X197744481Y-97590132D01*
X197870791Y-97808906D01*
X198041011Y-97939522D01*
X198002400Y-97939522D01*
X198002400Y-98098270D01*
X197843652Y-97939522D01*
X197652573Y-97939522D01*
X197419184Y-98036195D01*
X197240555Y-98214823D01*
X197176901Y-98368495D01*
X197113249Y-98214824D01*
X196934621Y-98036195D01*
X196899045Y-98021459D01*
X196885547Y-98001257D01*
X196582211Y-97798575D01*
X196224402Y-97727402D01*
X195866593Y-97798575D01*
X195563257Y-98001257D01*
X195549757Y-98021459D01*
X195514184Y-98036195D01*
X195335555Y-98214823D01*
X195238882Y-98448212D01*
X195238882Y-98700831D01*
X195238882Y-99701591D01*
X195335555Y-99934980D01*
X195514183Y-100113609D01*
X195747572Y-100210282D01*
X195753891Y-100210282D01*
X195220184Y-100743989D01*
X195220184Y-98955381D01*
X194971794Y-98354233D01*
X194512263Y-97893898D01*
X193911548Y-97644460D01*
X193261105Y-97643892D01*
X192659957Y-97892282D01*
X192199622Y-98351813D01*
X191950184Y-98952528D01*
X191949616Y-99602971D01*
X192198006Y-100204119D01*
X192657537Y-100664454D01*
X193258252Y-100913892D01*
X193908695Y-100914460D01*
X194509843Y-100666070D01*
X194970178Y-100206539D01*
X195219616Y-99605824D01*
X195220184Y-98955381D01*
X195220184Y-100743989D01*
X194742771Y-101221402D01*
X194668593Y-101221402D01*
X194435204Y-101318075D01*
X194286902Y-101466376D01*
X194138600Y-101318075D01*
X193905211Y-101221402D01*
X193620152Y-101221402D01*
X193461402Y-101380152D01*
X193461402Y-102427902D01*
X193481402Y-102427902D01*
X193481402Y-102681902D01*
X193461402Y-102681902D01*
X193461402Y-102701902D01*
X193207402Y-102701902D01*
X193207402Y-102681902D01*
X193207402Y-102427902D01*
X193207402Y-101380152D01*
X193048652Y-101221402D01*
X192763593Y-101221402D01*
X192530204Y-101318075D01*
X192351575Y-101496703D01*
X192254902Y-101730092D01*
X192254902Y-101982711D01*
X192254902Y-102269152D01*
X192413652Y-102427902D01*
X193207402Y-102427902D01*
X193207402Y-102681902D01*
X192413652Y-102681902D01*
X192254902Y-102840652D01*
X192254902Y-103127093D01*
X192254902Y-103379712D01*
X192351575Y-103613101D01*
X192387575Y-103649101D01*
X192225257Y-103811137D01*
X192052099Y-104228146D01*
X192051705Y-104679677D01*
X192224135Y-105096988D01*
X192451651Y-105324902D01*
X181422086Y-105324902D01*
X181496712Y-105219819D01*
X181641711Y-104585743D01*
X181572652Y-104061192D01*
X181340426Y-103896824D01*
X180182191Y-104565531D01*
X180169103Y-104552443D01*
X179989495Y-104732051D01*
X180567671Y-105310227D01*
X180576144Y-105324902D01*
X180282851Y-105324902D01*
X179948124Y-104745139D01*
X179961213Y-104732051D01*
X179781605Y-104552443D01*
X179203427Y-105130620D01*
X178866922Y-105324902D01*
X178308638Y-105324902D01*
X178446845Y-105267796D01*
X178566241Y-105148608D01*
X178610282Y-105179780D01*
X179768516Y-104511072D01*
X179781605Y-104524161D01*
X179961213Y-104344553D01*
X179383033Y-103766373D01*
X179205396Y-103458697D01*
X179391337Y-103272756D01*
X180021839Y-104364817D01*
X181213426Y-103676854D01*
X181187192Y-103393556D01*
X180656871Y-103016944D01*
X180022795Y-102871945D01*
X179757179Y-102906914D01*
X180574192Y-102089902D01*
X188186902Y-102089902D01*
X188544711Y-102018729D01*
X188848047Y-101816047D01*
X189874027Y-100790066D01*
X189911677Y-100790099D01*
X190328988Y-100617669D01*
X190648547Y-100298667D01*
X190821705Y-99881658D01*
X190822099Y-99430127D01*
X190649669Y-99012816D01*
X190330667Y-98693257D01*
X189913658Y-98520099D01*
X189462127Y-98519705D01*
X189311775Y-98581829D01*
X189520654Y-98078792D01*
X189521222Y-97428349D01*
X189272832Y-96827201D01*
X188813301Y-96366866D01*
X188212586Y-96117428D01*
X187562143Y-96116860D01*
X187346756Y-96205856D01*
X186987802Y-94401273D01*
X185918029Y-92800244D01*
X184317000Y-91730471D01*
X182428457Y-91354816D01*
X180539914Y-91730471D01*
X180284795Y-91900935D01*
X180201037Y-91479852D01*
X178751911Y-89311082D01*
X176658873Y-87912559D01*
X176998702Y-87772145D01*
X177225469Y-87545772D01*
X177423111Y-88024102D01*
X177826431Y-88428126D01*
X178353663Y-88647052D01*
X178924541Y-88647550D01*
X179452154Y-88429545D01*
X179856178Y-88026225D01*
X180075104Y-87498993D01*
X180075602Y-86928115D01*
X180001513Y-86748806D01*
X181341900Y-87100011D01*
X181321711Y-87175361D01*
X180907600Y-88720842D01*
X180940573Y-88971300D01*
X181066882Y-89190074D01*
X181267298Y-89343859D01*
X181511309Y-89409241D01*
X183056790Y-89823352D01*
X183307248Y-89790379D01*
X183526022Y-89664070D01*
X183679807Y-89463654D01*
X183682149Y-89454912D01*
X183769659Y-89666702D01*
X184172979Y-90070726D01*
X184527749Y-90218039D01*
X185525757Y-91216047D01*
X186451737Y-92142027D01*
X186451705Y-92179677D01*
X186624135Y-92596988D01*
X186943137Y-92916547D01*
X187360146Y-93089705D01*
X187811677Y-93090099D01*
X188228988Y-92917669D01*
X188306890Y-92839902D01*
X192705562Y-92839902D01*
X192692411Y-92888983D01*
X191915954Y-95786760D01*
X191948927Y-96037217D01*
X192075236Y-96255992D01*
X192275652Y-96409777D01*
X192519663Y-96475159D01*
X195417440Y-97251616D01*
X195667897Y-97218643D01*
X195886672Y-97092334D01*
X196040457Y-96891918D01*
X196105839Y-96647907D01*
X196882296Y-93750130D01*
X196849323Y-93499673D01*
X196723014Y-93280898D01*
X196522598Y-93127113D01*
X196278587Y-93061731D01*
X195334125Y-92808663D01*
X195334125Y-92575265D01*
X195360770Y-92548667D01*
X195533928Y-92131658D01*
X195534322Y-91680127D01*
X195361892Y-91262816D01*
X195042890Y-90943257D01*
X194625881Y-90770099D01*
X194174350Y-90769705D01*
X193757039Y-90942135D01*
X193729223Y-90969902D01*
X188174422Y-90969902D01*
X187923056Y-90865525D01*
X188252154Y-90729545D01*
X188656178Y-90326225D01*
X188875104Y-89798993D01*
X188875602Y-89228115D01*
X188804180Y-89055261D01*
X214246944Y-95721717D01*
X214337714Y-95727161D01*
X214426902Y-95744902D01*
X216426902Y-95744902D01*
X216698607Y-95690856D01*
X216721522Y-95675544D01*
X216721522Y-95811591D01*
X216818195Y-96044980D01*
X216996823Y-96223609D01*
X217230212Y-96320282D01*
X217482831Y-96320282D01*
X217571152Y-96320282D01*
X217729902Y-96161532D01*
X217729902Y-95311902D01*
X217709902Y-95311902D01*
X217709902Y-95057902D01*
X217729902Y-95057902D01*
X217729902Y-94208272D01*
X217571152Y-94049522D01*
X217482831Y-94049522D01*
X217230212Y-94049522D01*
X217136902Y-94088172D01*
X217136902Y-76327972D01*
X220492057Y-72956288D01*
X220491654Y-73419089D01*
X220709659Y-73946702D01*
X221112979Y-74350726D01*
X221640211Y-74569652D01*
X222211089Y-74570150D01*
X222738702Y-74352145D01*
X223142726Y-73948825D01*
X223361652Y-73421593D01*
X223362150Y-72850715D01*
X223285373Y-72664902D01*
X223363511Y-72664902D01*
X228716902Y-73628512D01*
X228716902Y-94245496D01*
X228716902Y-94245496D01*
G37*
X228716902Y-94245496D02*
X228617441Y-94146035D01*
X228384052Y-94049362D01*
X228131433Y-94049362D01*
X227130673Y-94049362D01*
X226897284Y-94146035D01*
X226718655Y-94324663D01*
X226621982Y-94558052D01*
X226621982Y-94810671D01*
X226621982Y-95811431D01*
X226718655Y-96044820D01*
X226761902Y-96088067D01*
X226761902Y-96114538D01*
X226735257Y-96141137D01*
X226562099Y-96558146D01*
X226561705Y-97009677D01*
X226734135Y-97426988D01*
X227053137Y-97746547D01*
X227470146Y-97919705D01*
X227509449Y-97919739D01*
X227901902Y-98312192D01*
X227901902Y-99149682D01*
X227130673Y-99149682D01*
X226897284Y-99246355D01*
X226793576Y-99350062D01*
X221206742Y-99350062D01*
X220848933Y-99421235D01*
X220545597Y-99623917D01*
X219841135Y-100328378D01*
X219444816Y-100492135D01*
X219125257Y-100811137D01*
X218959719Y-101209794D01*
X218849612Y-101319902D01*
X218720687Y-101319902D01*
X218895609Y-101144981D01*
X218992282Y-100911592D01*
X218992282Y-100658973D01*
X218992282Y-100227152D01*
X219779311Y-99440122D01*
X219947591Y-99370591D01*
X220251524Y-99067188D01*
X220416215Y-98670570D01*
X220416589Y-98241118D01*
X220252591Y-97844213D01*
X219949188Y-97540280D01*
X219552570Y-97375589D01*
X219123118Y-97375215D01*
X218992282Y-97429275D01*
X218992282Y-95811591D01*
X218992282Y-95470652D01*
X218992282Y-94899152D01*
X218992282Y-94558213D01*
X218895609Y-94324824D01*
X218716981Y-94146195D01*
X218483592Y-94049522D01*
X218230973Y-94049522D01*
X218142652Y-94049522D01*
X217983902Y-94208272D01*
X217983902Y-95057902D01*
X218833532Y-95057902D01*
X218992282Y-94899152D01*
X218992282Y-95470652D01*
X218833532Y-95311902D01*
X217983902Y-95311902D01*
X217983902Y-96161532D01*
X218142652Y-96320282D01*
X218230973Y-96320282D01*
X218483592Y-96320282D01*
X218716981Y-96223609D01*
X218895609Y-96044980D01*
X218992282Y-95811591D01*
X218992282Y-97429275D01*
X218726213Y-97539213D01*
X218422280Y-97842616D01*
X218257589Y-98239234D01*
X218257215Y-98668686D01*
X218297643Y-98766530D01*
X217979232Y-99084942D01*
X217068902Y-98174612D01*
X217068902Y-96910093D01*
X216972229Y-96676704D01*
X216793601Y-96498075D01*
X216560212Y-96401402D01*
X216307593Y-96401402D01*
X215418593Y-96401402D01*
X215185204Y-96498075D01*
X215036902Y-96646376D01*
X214888600Y-96498075D01*
X214655211Y-96401402D01*
X214370152Y-96401402D01*
X214211402Y-96560152D01*
X214211402Y-97607902D01*
X214231402Y-97607902D01*
X214231402Y-97861902D01*
X214211402Y-97861902D01*
X214211402Y-97881902D01*
X213957402Y-97881902D01*
X213957402Y-97861902D01*
X213957402Y-97607902D01*
X213957402Y-96560152D01*
X213798652Y-96401402D01*
X213513593Y-96401402D01*
X213280204Y-96498075D01*
X213101575Y-96676703D01*
X213004902Y-96910092D01*
X213004902Y-97162711D01*
X213004902Y-97449152D01*
X213163652Y-97607902D01*
X213957402Y-97607902D01*
X213957402Y-97861902D01*
X213163652Y-97861902D01*
X213017592Y-98007961D01*
X212626622Y-97616991D01*
X212626622Y-96461823D01*
X212529949Y-96228434D01*
X212351321Y-96049805D01*
X212117932Y-95953132D01*
X211865313Y-95953132D01*
X211265873Y-95953132D01*
X211056902Y-96039690D01*
X210847931Y-95953132D01*
X210707652Y-95953132D01*
X210548902Y-96111882D01*
X210548902Y-97160902D01*
X210568902Y-97160902D01*
X210568902Y-97414902D01*
X210548902Y-97414902D01*
X210548902Y-98463922D01*
X210707652Y-98622672D01*
X210847931Y-98622672D01*
X211056901Y-98536113D01*
X211265872Y-98622672D01*
X211477041Y-98622672D01*
X212448087Y-99593718D01*
X212649787Y-99728490D01*
X212500075Y-99878204D01*
X212403402Y-100111593D01*
X212403402Y-100396652D01*
X212562152Y-100555402D01*
X213609902Y-100555402D01*
X213609902Y-100535402D01*
X213863902Y-100535402D01*
X213863902Y-100555402D01*
X214911652Y-100555402D01*
X215070402Y-100396652D01*
X215070402Y-100111593D01*
X214973729Y-99878204D01*
X214872106Y-99776581D01*
X214961006Y-99758898D01*
X214961007Y-99758898D01*
X215208217Y-99593717D01*
X215525822Y-99276112D01*
X216721522Y-100471812D01*
X216721522Y-100911591D01*
X216818195Y-101144980D01*
X216993116Y-101319902D01*
X216410593Y-101319902D01*
X216177204Y-101416575D01*
X215998575Y-101595203D01*
X215901902Y-101828592D01*
X215901902Y-102081211D01*
X215901902Y-105081211D01*
X215983449Y-105278084D01*
X215911676Y-105230126D01*
X215851827Y-105140557D01*
X215803260Y-104896389D01*
X215803259Y-104896388D01*
X215803260Y-104896388D01*
X215727140Y-104513706D01*
X215727139Y-104513705D01*
X215665037Y-104363779D01*
X215621125Y-104257765D01*
X215621125Y-104257764D01*
X215404353Y-103933340D01*
X215208464Y-103737452D01*
X215208463Y-103737451D01*
X214884040Y-103520678D01*
X214856187Y-103509141D01*
X214973729Y-103391601D01*
X215070402Y-103158212D01*
X215070402Y-102905593D01*
X215070402Y-102016593D01*
X214973729Y-101783204D01*
X214825427Y-101634902D01*
X214973729Y-101486600D01*
X215070402Y-101253211D01*
X215070402Y-100968152D01*
X214911652Y-100809402D01*
X213863902Y-100809402D01*
X213863902Y-100829402D01*
X213609902Y-100829402D01*
X213609902Y-100809402D01*
X212562152Y-100809402D01*
X212403402Y-100968152D01*
X212403402Y-101253211D01*
X212500075Y-101486600D01*
X212648376Y-101634902D01*
X212596376Y-101686902D01*
X212581505Y-101686902D01*
X212529949Y-101562434D01*
X212351321Y-101383805D01*
X212117932Y-101287132D01*
X211865313Y-101287132D01*
X211265873Y-101287132D01*
X211056902Y-101373690D01*
X210847931Y-101287132D01*
X210707652Y-101287132D01*
X210548902Y-101445882D01*
X210548902Y-102494902D01*
X210568902Y-102494902D01*
X210568902Y-102748902D01*
X210548902Y-102748902D01*
X210548902Y-102768902D01*
X210294902Y-102768902D01*
X210294902Y-102748902D01*
X210294902Y-102494902D01*
X210294902Y-101445882D01*
X210294902Y-98463922D01*
X210294902Y-97414902D01*
X210294902Y-97160902D01*
X210294902Y-96111882D01*
X210136152Y-95953132D01*
X209995873Y-95953132D01*
X209786902Y-96039690D01*
X209577931Y-95953132D01*
X209437652Y-95953132D01*
X209278902Y-96111882D01*
X209278902Y-97160902D01*
X209645932Y-97160902D01*
X209927872Y-97160902D01*
X210294902Y-97160902D01*
X210294902Y-97414902D01*
X209927872Y-97414902D01*
X209645932Y-97414902D01*
X209278902Y-97414902D01*
X209278902Y-98463922D01*
X209437652Y-98622672D01*
X209577931Y-98622672D01*
X209786902Y-98536113D01*
X209995873Y-98622672D01*
X210136152Y-98622672D01*
X210294902Y-98463922D01*
X210294902Y-101445882D01*
X210136152Y-101287132D01*
X209995873Y-101287132D01*
X209786902Y-101373690D01*
X209577931Y-101287132D01*
X209437652Y-101287132D01*
X209278902Y-101445882D01*
X209278902Y-102494902D01*
X209645932Y-102494902D01*
X209927872Y-102494902D01*
X210294902Y-102494902D01*
X210294902Y-102748902D01*
X209927872Y-102748902D01*
X209645932Y-102748902D01*
X209278902Y-102748902D01*
X209278902Y-102768902D01*
X209024902Y-102768902D01*
X209024902Y-102748902D01*
X209004902Y-102748902D01*
X209004902Y-102494902D01*
X209024902Y-102494902D01*
X209024902Y-101445882D01*
X209024902Y-98463922D01*
X209024902Y-97414902D01*
X209004902Y-97414902D01*
X209004902Y-97160902D01*
X209024902Y-97160902D01*
X209024902Y-96111882D01*
X208866152Y-95953132D01*
X208725873Y-95953132D01*
X208516902Y-96039690D01*
X208307932Y-95953132D01*
X208055313Y-95953132D01*
X207455873Y-95953132D01*
X207222484Y-96049805D01*
X207043855Y-96228433D01*
X206947182Y-96461822D01*
X206947182Y-96714441D01*
X206947182Y-98113981D01*
X207043855Y-98347370D01*
X207222483Y-98525999D01*
X207455872Y-98622672D01*
X207708491Y-98622672D01*
X208307931Y-98622672D01*
X208516902Y-98536113D01*
X208725873Y-98622672D01*
X208866152Y-98622672D01*
X209024902Y-98463922D01*
X209024902Y-101445882D01*
X208866152Y-101287132D01*
X208725873Y-101287132D01*
X208516902Y-101373690D01*
X208307932Y-101287132D01*
X208055313Y-101287132D01*
X207455873Y-101287132D01*
X207222484Y-101383805D01*
X207043855Y-101562433D01*
X206955579Y-101775548D01*
X206820402Y-101775430D01*
X206820402Y-101491192D01*
X207028047Y-101283547D01*
X207230729Y-100980211D01*
X207293745Y-100663407D01*
X207328547Y-100628667D01*
X207501705Y-100211658D01*
X207502099Y-99760127D01*
X207329669Y-99342816D01*
X207010667Y-99023257D01*
X206593658Y-98850099D01*
X206417195Y-98849945D01*
X206371652Y-98804402D01*
X205323902Y-98804402D01*
X205323902Y-99537060D01*
X205232099Y-99758146D01*
X205231705Y-100209677D01*
X205248870Y-100251220D01*
X205179402Y-100237402D01*
X205116902Y-100237402D01*
X205019697Y-100256737D01*
X205019696Y-100256737D01*
X204925717Y-100116087D01*
X204925717Y-100116086D01*
X204566532Y-99756902D01*
X204624711Y-99756902D01*
X204911152Y-99756902D01*
X205069902Y-99598152D01*
X205069902Y-98804402D01*
X204022152Y-98804402D01*
X203992152Y-98834402D01*
X203213902Y-98834402D01*
X203213902Y-98854402D01*
X202959902Y-98854402D01*
X202959902Y-98834402D01*
X202939902Y-98834402D01*
X202939902Y-98580402D01*
X202959902Y-98580402D01*
X202959902Y-98560402D01*
X203213902Y-98560402D01*
X203213902Y-98580402D01*
X204261652Y-98580402D01*
X204291652Y-98550402D01*
X205069902Y-98550402D01*
X205069902Y-98530402D01*
X205323902Y-98530402D01*
X205323902Y-98550402D01*
X206371652Y-98550402D01*
X206530402Y-98391652D01*
X206530402Y-98106593D01*
X206433729Y-97873204D01*
X206285427Y-97724901D01*
X206433729Y-97576601D01*
X206530402Y-97343212D01*
X206530402Y-97090593D01*
X206530402Y-96201593D01*
X206433729Y-95968204D01*
X206255101Y-95789575D01*
X206021712Y-95692902D01*
X205944580Y-95692902D01*
X205900898Y-95473298D01*
X205900898Y-95473297D01*
X205766387Y-95271989D01*
X205766589Y-95041118D01*
X205602591Y-94644213D01*
X205299188Y-94340280D01*
X204902570Y-94175589D01*
X204473118Y-94175215D01*
X204076213Y-94339213D01*
X203772280Y-94642616D01*
X203722167Y-94763299D01*
X203699188Y-94740280D01*
X203302570Y-94575589D01*
X202873118Y-94575215D01*
X202476213Y-94739213D01*
X202441040Y-94774323D01*
X202318152Y-94680027D01*
X201023271Y-94333065D01*
X200828843Y-94445318D01*
X200583498Y-95360958D01*
X200583498Y-94379578D01*
X200471244Y-94185150D01*
X199176364Y-93838188D01*
X198925907Y-93871161D01*
X198707132Y-93997470D01*
X198553347Y-94197886D01*
X198487965Y-94441897D01*
X198206385Y-95492767D01*
X198318638Y-95687195D01*
X200104876Y-96165816D01*
X200583498Y-94379578D01*
X200583498Y-95360958D01*
X200350222Y-96231556D01*
X200369540Y-96236732D01*
X200303800Y-96482078D01*
X200284482Y-96476902D01*
X200039136Y-97392543D01*
X199805860Y-98263140D01*
X199910517Y-98444410D01*
X199892280Y-98462616D01*
X199727589Y-98859234D01*
X199727399Y-99076774D01*
X199622271Y-99181902D01*
X197982402Y-99181902D01*
X197982402Y-98947902D01*
X198002402Y-98947902D01*
X198002402Y-98927902D01*
X198256402Y-98927902D01*
X198256402Y-98947902D01*
X198956172Y-98947902D01*
X199114922Y-98789152D01*
X199114922Y-98700831D01*
X199114922Y-98448212D01*
X199019007Y-98216653D01*
X199366087Y-98309653D01*
X199560515Y-98197400D01*
X200039136Y-96411162D01*
X198252898Y-95932540D01*
X198058470Y-96044794D01*
X197776890Y-97095664D01*
X197711507Y-97339675D01*
X197744481Y-97590132D01*
X197870791Y-97808906D01*
X198041011Y-97939522D01*
X198002400Y-97939522D01*
X198002400Y-98098270D01*
X197843652Y-97939522D01*
X197652573Y-97939522D01*
X197419184Y-98036195D01*
X197240555Y-98214823D01*
X197176901Y-98368495D01*
X197113249Y-98214824D01*
X196934621Y-98036195D01*
X196899045Y-98021459D01*
X196885547Y-98001257D01*
X196582211Y-97798575D01*
X196224402Y-97727402D01*
X195866593Y-97798575D01*
X195563257Y-98001257D01*
X195549757Y-98021459D01*
X195514184Y-98036195D01*
X195335555Y-98214823D01*
X195238882Y-98448212D01*
X195238882Y-98700831D01*
X195238882Y-99701591D01*
X195335555Y-99934980D01*
X195514183Y-100113609D01*
X195747572Y-100210282D01*
X195753891Y-100210282D01*
X195220184Y-100743989D01*
X195220184Y-98955381D01*
X194971794Y-98354233D01*
X194512263Y-97893898D01*
X193911548Y-97644460D01*
X193261105Y-97643892D01*
X192659957Y-97892282D01*
X192199622Y-98351813D01*
X191950184Y-98952528D01*
X191949616Y-99602971D01*
X192198006Y-100204119D01*
X192657537Y-100664454D01*
X193258252Y-100913892D01*
X193908695Y-100914460D01*
X194509843Y-100666070D01*
X194970178Y-100206539D01*
X195219616Y-99605824D01*
X195220184Y-98955381D01*
X195220184Y-100743989D01*
X194742771Y-101221402D01*
X194668593Y-101221402D01*
X194435204Y-101318075D01*
X194286902Y-101466376D01*
X194138600Y-101318075D01*
X193905211Y-101221402D01*
X193620152Y-101221402D01*
X193461402Y-101380152D01*
X193461402Y-102427902D01*
X193481402Y-102427902D01*
X193481402Y-102681902D01*
X193461402Y-102681902D01*
X193461402Y-102701902D01*
X193207402Y-102701902D01*
X193207402Y-102681902D01*
X193207402Y-102427902D01*
X193207402Y-101380152D01*
X193048652Y-101221402D01*
X192763593Y-101221402D01*
X192530204Y-101318075D01*
X192351575Y-101496703D01*
X192254902Y-101730092D01*
X192254902Y-101982711D01*
X192254902Y-102269152D01*
X192413652Y-102427902D01*
X193207402Y-102427902D01*
X193207402Y-102681902D01*
X192413652Y-102681902D01*
X192254902Y-102840652D01*
X192254902Y-103127093D01*
X192254902Y-103379712D01*
X192351575Y-103613101D01*
X192387575Y-103649101D01*
X192225257Y-103811137D01*
X192052099Y-104228146D01*
X192051705Y-104679677D01*
X192224135Y-105096988D01*
X192451651Y-105324902D01*
X181422086Y-105324902D01*
X181496712Y-105219819D01*
X181641711Y-104585743D01*
X181572652Y-104061192D01*
X181340426Y-103896824D01*
X180182191Y-104565531D01*
X180169103Y-104552443D01*
X179989495Y-104732051D01*
X180567671Y-105310227D01*
X180576144Y-105324902D01*
X180282851Y-105324902D01*
X179948124Y-104745139D01*
X179961213Y-104732051D01*
X179781605Y-104552443D01*
X179203427Y-105130620D01*
X178866922Y-105324902D01*
X178308638Y-105324902D01*
X178446845Y-105267796D01*
X178566241Y-105148608D01*
X178610282Y-105179780D01*
X179768516Y-104511072D01*
X179781605Y-104524161D01*
X179961213Y-104344553D01*
X179383033Y-103766373D01*
X179205396Y-103458697D01*
X179391337Y-103272756D01*
X180021839Y-104364817D01*
X181213426Y-103676854D01*
X181187192Y-103393556D01*
X180656871Y-103016944D01*
X180022795Y-102871945D01*
X179757179Y-102906914D01*
X180574192Y-102089902D01*
X188186902Y-102089902D01*
X188544711Y-102018729D01*
X188848047Y-101816047D01*
X189874027Y-100790066D01*
X189911677Y-100790099D01*
X190328988Y-100617669D01*
X190648547Y-100298667D01*
X190821705Y-99881658D01*
X190822099Y-99430127D01*
X190649669Y-99012816D01*
X190330667Y-98693257D01*
X189913658Y-98520099D01*
X189462127Y-98519705D01*
X189311775Y-98581829D01*
X189520654Y-98078792D01*
X189521222Y-97428349D01*
X189272832Y-96827201D01*
X188813301Y-96366866D01*
X188212586Y-96117428D01*
X187562143Y-96116860D01*
X187346756Y-96205856D01*
X186987802Y-94401273D01*
X185918029Y-92800244D01*
X184317000Y-91730471D01*
X182428457Y-91354816D01*
X180539914Y-91730471D01*
X180284795Y-91900935D01*
X180201037Y-91479852D01*
X178751911Y-89311082D01*
X176658873Y-87912559D01*
X176998702Y-87772145D01*
X177225469Y-87545772D01*
X177423111Y-88024102D01*
X177826431Y-88428126D01*
X178353663Y-88647052D01*
X178924541Y-88647550D01*
X179452154Y-88429545D01*
X179856178Y-88026225D01*
X180075104Y-87498993D01*
X180075602Y-86928115D01*
X180001513Y-86748806D01*
X181341900Y-87100011D01*
X181321711Y-87175361D01*
X180907600Y-88720842D01*
X180940573Y-88971300D01*
X181066882Y-89190074D01*
X181267298Y-89343859D01*
X181511309Y-89409241D01*
X183056790Y-89823352D01*
X183307248Y-89790379D01*
X183526022Y-89664070D01*
X183679807Y-89463654D01*
X183682149Y-89454912D01*
X183769659Y-89666702D01*
X184172979Y-90070726D01*
X184527749Y-90218039D01*
X185525757Y-91216047D01*
X186451737Y-92142027D01*
X186451705Y-92179677D01*
X186624135Y-92596988D01*
X186943137Y-92916547D01*
X187360146Y-93089705D01*
X187811677Y-93090099D01*
X188228988Y-92917669D01*
X188306890Y-92839902D01*
X192705562Y-92839902D01*
X192692411Y-92888983D01*
X191915954Y-95786760D01*
X191948927Y-96037217D01*
X192075236Y-96255992D01*
X192275652Y-96409777D01*
X192519663Y-96475159D01*
X195417440Y-97251616D01*
X195667897Y-97218643D01*
X195886672Y-97092334D01*
X196040457Y-96891918D01*
X196105839Y-96647907D01*
X196882296Y-93750130D01*
X196849323Y-93499673D01*
X196723014Y-93280898D01*
X196522598Y-93127113D01*
X196278587Y-93061731D01*
X195334125Y-92808663D01*
X195334125Y-92575265D01*
X195360770Y-92548667D01*
X195533928Y-92131658D01*
X195534322Y-91680127D01*
X195361892Y-91262816D01*
X195042890Y-90943257D01*
X194625881Y-90770099D01*
X194174350Y-90769705D01*
X193757039Y-90942135D01*
X193729223Y-90969902D01*
X188174422Y-90969902D01*
X187923056Y-90865525D01*
X188252154Y-90729545D01*
X188656178Y-90326225D01*
X188875104Y-89798993D01*
X188875602Y-89228115D01*
X188804180Y-89055261D01*
X214246944Y-95721717D01*
X214337714Y-95727161D01*
X214426902Y-95744902D01*
X216426902Y-95744902D01*
X216698607Y-95690856D01*
X216721522Y-95675544D01*
X216721522Y-95811591D01*
X216818195Y-96044980D01*
X216996823Y-96223609D01*
X217230212Y-96320282D01*
X217482831Y-96320282D01*
X217571152Y-96320282D01*
X217729902Y-96161532D01*
X217729902Y-95311902D01*
X217709902Y-95311902D01*
X217709902Y-95057902D01*
X217729902Y-95057902D01*
X217729902Y-94208272D01*
X217571152Y-94049522D01*
X217482831Y-94049522D01*
X217230212Y-94049522D01*
X217136902Y-94088172D01*
X217136902Y-76327972D01*
X220492057Y-72956288D01*
X220491654Y-73419089D01*
X220709659Y-73946702D01*
X221112979Y-74350726D01*
X221640211Y-74569652D01*
X222211089Y-74570150D01*
X222738702Y-74352145D01*
X223142726Y-73948825D01*
X223361652Y-73421593D01*
X223362150Y-72850715D01*
X223285373Y-72664902D01*
X223363511Y-72664902D01*
X228716902Y-73628512D01*
X228716902Y-94245496D01*
G36*
X229053003Y-107980119D02*
X226584857Y-107996657D01*
X226485619Y-107897245D01*
X226163257Y-107763388D01*
X229053003Y-107980119D01*
X229053003Y-107980119D01*
G37*
X229053003Y-107980119D02*
X226584857Y-107996657D01*
X226485619Y-107897245D01*
X226163257Y-107763388D01*
X229053003Y-107980119D01*
M02*
