%FSLAX46Y46*%
G04 Gerber Fmt 4.6, Leading zero omitted, Abs format (unit mm)*
G04 Created by KiCad (PCBNEW (2014-jul-16 BZR unknown)-product) date Sat 22 Nov 2014 08:56:03 PM CET*
%MOMM*%
G01*
G04 APERTURE LIST*
%ADD10C,0.150000*%
%ADD11C,0.100000*%
G04 APERTURE END LIST*
D10*
X171000000Y-106034902D02*
X169426902Y-106034902D01*
X178593000Y-106985000D02*
X177000000Y-106985000D01*
X177000000Y-106034902D02*
G75*
G03X177000000Y-106985000I0J-475049D01*
G74*
G01*
X171000000Y-106985000D02*
G75*
G03X171000000Y-106034902I0J475049D01*
G74*
G01*
X194000000Y-106985000D02*
G75*
G03X194000000Y-106034902I0J475049D01*
G74*
G01*
X200000000Y-106034902D02*
G75*
G03X200000000Y-106985000I0J-475049D01*
G74*
G01*
X200000000Y-106985000D02*
X225278000Y-106985000D01*
X203426902Y-106034902D02*
X200000000Y-106034902D01*
X171278000Y-141065000D02*
X174218000Y-141065000D01*
X181598000Y-108995000D02*
X191278000Y-106985000D01*
X245278000Y-108485000D02*
X225278000Y-106985000D01*
X180598000Y-108995000D02*
X181598000Y-108995000D01*
X228748000Y-130685000D02*
X245278000Y-130685000D01*
X174218000Y-141065000D02*
X178278000Y-136985000D01*
X191278000Y-106985000D02*
X194000000Y-106985000D01*
X179598000Y-107985000D02*
G75*
G03X180598000Y-108985000I1000000J0D01*
G74*
G01*
X179598000Y-107985000D02*
G75*
G03X178598000Y-106985000I-1000000J0D01*
G74*
G01*
X180278000Y-117985000D02*
X228748000Y-130685000D01*
X178278000Y-117985000D02*
X180278000Y-117985000D01*
X178278000Y-136985000D02*
X178278000Y-117985000D01*
X165278000Y-139985000D02*
X171278000Y-141065000D01*
X165278000Y-139985000D02*
X165278000Y-106985000D01*
X245278000Y-108485000D02*
X245278000Y-130685000D01*
X165278000Y-106985000D02*
X171000000Y-106985000D01*
X223426902Y-71954902D02*
X220486902Y-71954902D01*
X213106902Y-104024902D02*
X203426902Y-106034902D01*
X149426902Y-104534902D02*
X169426902Y-106034902D01*
X214106902Y-104024902D02*
X213106902Y-104024902D01*
X165956902Y-82334902D02*
X149426902Y-82334902D01*
X220486902Y-71954902D02*
X216426902Y-76034902D01*
X194000000Y-106034902D02*
X177000000Y-106034902D01*
X215106902Y-105034902D02*
G75*
G03X214106902Y-104034902I-1000000J0D01*
G74*
G01*
X215106902Y-105034902D02*
G75*
G03X216106902Y-106034902I1000000J0D01*
G74*
G01*
X214426902Y-95034902D02*
X165956902Y-82334902D01*
X216426902Y-95034902D02*
X214426902Y-95034902D01*
X216426902Y-76034902D02*
X216426902Y-95034902D01*
X229426902Y-73034902D02*
X223426902Y-71954902D01*
X229426902Y-73034902D02*
X229426902Y-106034902D01*
X149426902Y-104534902D02*
X149426902Y-82334902D01*
X229426902Y-106034902D02*
X216106902Y-106034902D01*
D11*
X216526445Y-116730086D02*
G75*
G03X216526445Y-116730086I-4250000J0D01*
G74*
G01*
X226680000Y-118981811D02*
G75*
G03X226680000Y-118981811I-6000000J0D01*
G74*
G01*
X186678457Y-96289816D02*
G75*
G03X186678457Y-96289816I-4250000J0D01*
G74*
G01*
X180024902Y-94038091D02*
G75*
G03X180024902Y-94038091I-6000000J0D01*
G74*
G01*
M02*
