M48
;DRILL file {kicad (2014-jul-16 BZR unknown)-product} date Thu 04 Sep 2014 10:50:11 PM CEST
;FORMAT={-:-/ absolute / inch / decimal}
FMAT,2
INCH,TZ
T1C0.025
T2C0.039
T3C0.040
%
G90
G05
M72
T1
X4.0051Y-4.3012
X4.3047Y-4.1173
X4.3343Y-4.2354
X4.5902Y-4.3339
X4.8449Y-4.1752
X4.8732Y-4.3882
X4.9512Y-4.0724
X5.1205Y-4.2299
X5.1906Y-4.324
X5.2961Y-4.2339
X5.3161Y-4.4933
X5.4614Y-4.0815
X6.2551Y-4.7681
X6.3913Y-4.6291
X6.4118Y-3.9894
X6.489Y-4.7693
X6.4925Y-4.0843
X6.5457Y-4.4193
X6.5673Y-4.6933
X6.6Y-4.3055
X6.6012Y-4.2063
X6.6154Y-4.5776
X6.702Y-4.5299
X6.7535Y-4.1283
X6.8024Y-4.5374
T2
X5.5884Y-4.532
X5.685Y-4.5579
X5.7816Y-4.5838
X5.9625Y-4.634
X6.0591Y-4.6598
X6.1556Y-4.6857
X6.9075Y-4.6421
T3
X5.8632Y-4.0662
X5.9598Y-4.0921
X6.0564Y-4.118
X6.2235Y-4.1933
X6.2494Y-4.0967
X6.3201Y-4.2192
X6.346Y-4.1226
X6.4167Y-4.245
X6.4426Y-4.1485
T0
M30
