%FSLAX46Y46*%
G04 Gerber Fmt 4.6, Leading zero omitted, Abs format (unit mm)*
G04 Created by KiCad (PCBNEW (2014-jul-16 BZR unknown)-product) date Thu 04 Sep 2014 10:50:04 PM CEST*
%MOMM*%
G01*
G04 APERTURE LIST*
%ADD10C,0.150000*%
%ADD11R,3.000000X3.000000*%
%ADD12R,1.000760X1.000760*%
%ADD13R,0.701040X1.000760*%
%ADD14R,0.599440X1.399540*%
%ADD15R,1.397000X0.889000*%
%ADD16R,0.889000X1.397000*%
%ADD17R,0.599440X2.199640*%
G04 APERTURE END LIST*
D10*
D11*
X102590000Y-102580000D03*
X111390000Y-102580000D03*
D12*
X101669540Y-105749840D03*
X101669540Y-110850160D03*
X111570000Y-110850000D03*
X111570000Y-105750000D03*
D10*
G36*
X136864894Y-110205797D02*
X136088437Y-113103574D01*
X133190660Y-112327117D01*
X133967117Y-109429340D01*
X136864894Y-110205797D01*
X136864894Y-110205797D01*
G37*
G36*
X131069340Y-108652883D02*
X130292883Y-111550660D01*
X127395106Y-110774203D01*
X128171563Y-107876426D01*
X131069340Y-108652883D01*
X131069340Y-108652883D01*
G37*
D13*
X132250000Y-104420000D03*
X131297500Y-106960000D03*
X133202500Y-106960000D03*
X128710000Y-101020000D03*
X127757500Y-103560000D03*
X129662500Y-103560000D03*
D14*
X118085000Y-107167000D03*
X118085000Y-101833000D03*
X119355000Y-107167000D03*
X120625000Y-107167000D03*
X121895000Y-107167000D03*
X119355000Y-101833000D03*
X120625000Y-101833000D03*
X121895000Y-101833000D03*
D15*
X126520000Y-107352500D03*
X126520000Y-105447500D03*
X124230000Y-107357500D03*
X124230000Y-109262500D03*
X136470000Y-108202500D03*
X136470000Y-106297500D03*
D10*
G36*
X163040183Y-121416871D02*
X162678613Y-122766269D01*
X161819905Y-122536179D01*
X162181475Y-121186781D01*
X163040183Y-121416871D01*
X163040183Y-121416871D01*
G37*
G36*
X161200095Y-120923821D02*
X160838525Y-122273219D01*
X159979817Y-122043129D01*
X160341387Y-120693731D01*
X161200095Y-120923821D01*
X161200095Y-120923821D01*
G37*
G36*
X163720183Y-119286871D02*
X163358613Y-120636269D01*
X162499905Y-120406179D01*
X162861475Y-119056781D01*
X163720183Y-119286871D01*
X163720183Y-119286871D01*
G37*
G36*
X161880095Y-118793821D02*
X161518525Y-120143219D01*
X160659817Y-119913129D01*
X161021387Y-118563731D01*
X161880095Y-118793821D01*
X161880095Y-118793821D01*
G37*
D15*
X167750000Y-104572500D03*
X167750000Y-102667500D03*
X169890000Y-102687500D03*
X169890000Y-104592500D03*
X115690000Y-103447500D03*
X115690000Y-105352500D03*
D16*
X113437500Y-108300000D03*
X115342500Y-108300000D03*
D15*
X178570000Y-111402500D03*
X178570000Y-109497500D03*
X166690000Y-122352500D03*
X166690000Y-120447500D03*
X169410000Y-120467500D03*
X169410000Y-122372500D03*
X124310000Y-102957500D03*
X124310000Y-104862500D03*
X121870000Y-111162500D03*
X121870000Y-109257500D03*
D17*
X176615000Y-112938420D03*
X175345000Y-112938420D03*
X174075000Y-112938420D03*
X172805000Y-112938420D03*
X171535000Y-112938420D03*
X170265000Y-112938420D03*
X168995000Y-112938420D03*
X168995000Y-107741580D03*
X170265000Y-107741580D03*
X171535000Y-107741580D03*
X172805000Y-107741580D03*
X174075000Y-107741580D03*
X175345000Y-107741580D03*
X176615000Y-107741580D03*
M02*
