%FSLAX46Y46*%
G04 Gerber Fmt 4.6, Leading zero omitted, Abs format (unit mm)*
G04 Created by KiCad (PCBNEW (2014-jul-16 BZR unknown)-product) date Thu 04 Sep 2014 10:50:04 PM CEST*
%MOMM*%
G01*
G04 APERTURE LIST*
%ADD10C,0.150000*%
%ADD11C,1.778000*%
%ADD12R,3.000000X3.000000*%
%ADD13C,2.000000*%
%ADD14C,1.600000*%
%ADD15C,2.200000*%
%ADD16C,1.524000*%
%ADD17R,2.000000X2.000000*%
G04 APERTURE END LIST*
D10*
X175450000Y-118710000D02*
X175450000Y-119460000D01*
D11*
X148926548Y-103282600D03*
X151380000Y-103940000D03*
D10*
G36*
X154462070Y-105686198D02*
X152744654Y-105226018D01*
X153204834Y-103508602D01*
X154922250Y-103968782D01*
X154462070Y-105686198D01*
X154462070Y-105686198D01*
G37*
D12*
X112840000Y-108580000D03*
X118840000Y-108580000D03*
X111390000Y-102580000D03*
X102590000Y-102580000D03*
D13*
X141546964Y-108334758D03*
X164053036Y-114365242D03*
D10*
G36*
X176950000Y-118910000D02*
X173950000Y-118910000D01*
X174950000Y-116910000D01*
X175950000Y-116910000D01*
X176950000Y-118910000D01*
X176950000Y-118910000D01*
G37*
G36*
X173950000Y-119310000D02*
X176950000Y-119310000D01*
X175950000Y-121310000D01*
X174950000Y-121310000D01*
X173950000Y-119310000D01*
X173950000Y-119310000D01*
G37*
G36*
X150466752Y-118268285D02*
X150880863Y-116722804D01*
X152426344Y-117136915D01*
X152012233Y-118682396D01*
X150466752Y-118268285D01*
X150466752Y-118268285D01*
G37*
D14*
X153900000Y-118360000D03*
X156353452Y-119017400D03*
D10*
G36*
X136864894Y-110205797D02*
X136088437Y-113103574D01*
X133190660Y-112327117D01*
X133967117Y-109429340D01*
X136864894Y-110205797D01*
X136864894Y-110205797D01*
G37*
G36*
X131069340Y-108652883D02*
X130292883Y-111550660D01*
X127395106Y-110774203D01*
X128171563Y-107876426D01*
X131069340Y-108652883D01*
X131069340Y-108652883D01*
G37*
D15*
X107500000Y-102500000D03*
X170000000Y-117700000D03*
D14*
X107500000Y-132900000D03*
D10*
G36*
X157144592Y-107048140D02*
X157539033Y-105576069D01*
X159011104Y-105970510D01*
X158616663Y-107442581D01*
X157144592Y-107048140D01*
X157144592Y-107048140D01*
G37*
D16*
X158735249Y-104055874D03*
X160531300Y-107166726D03*
X161188700Y-104713274D03*
X162984751Y-107824126D03*
X163642152Y-105370675D03*
D17*
X172410000Y-102770000D03*
X172410000Y-102770000D03*
X175190000Y-102790000D03*
X175190000Y-102790000D03*
X177910000Y-102790000D03*
X177910000Y-102790000D03*
D10*
G36*
X140966752Y-115678285D02*
X141380863Y-114132804D01*
X142926344Y-114546915D01*
X142512233Y-116092396D01*
X140966752Y-115678285D01*
X140966752Y-115678285D01*
G37*
D14*
X144400000Y-115770000D03*
X146853452Y-116427400D03*
M02*
