%FSLAX46Y46*%
G04 Gerber Fmt 4.6, Leading zero omitted, Abs format (unit mm)*
G04 Created by KiCad (PCBNEW (2014-jul-16 BZR unknown)-product) date Thu 04 Sep 2014 10:50:04 PM CEST*
%MOMM*%
G01*
G04 APERTURE LIST*
%ADD10C,0.150000*%
%ADD11C,1.778000*%
%ADD12R,3.000000X3.000000*%
%ADD13C,1.600000*%
%ADD14R,1.000760X1.000760*%
%ADD15R,0.701040X1.000760*%
%ADD16R,0.599440X1.399540*%
%ADD17R,1.397000X0.889000*%
%ADD18R,0.889000X1.397000*%
%ADD19C,1.524000*%
%ADD20R,0.599440X2.199640*%
%ADD21R,2.000000X2.000000*%
%ADD22C,1.000000*%
%ADD23C,0.889000*%
%ADD24C,0.254000*%
%ADD25C,0.600000*%
G04 APERTURE END LIST*
D10*
D11*
X148926548Y-103282600D03*
X151380000Y-103940000D03*
D10*
G36*
X154462070Y-105686198D02*
X152744654Y-105226018D01*
X153204834Y-103508602D01*
X154922250Y-103968782D01*
X154462070Y-105686198D01*
X154462070Y-105686198D01*
G37*
D12*
X102590000Y-102580000D03*
X111390000Y-102580000D03*
D10*
G36*
X176950000Y-118910000D02*
X173950000Y-118910000D01*
X174950000Y-116910000D01*
X175950000Y-116910000D01*
X176950000Y-118910000D01*
X176950000Y-118910000D01*
G37*
G36*
X150466752Y-118268285D02*
X150880863Y-116722804D01*
X152426344Y-117136915D01*
X152012233Y-118682396D01*
X150466752Y-118268285D01*
X150466752Y-118268285D01*
G37*
D13*
X153900000Y-118360000D03*
X156353452Y-119017400D03*
D14*
X101669540Y-105749840D03*
X101669540Y-110850160D03*
X111570000Y-110850000D03*
X111570000Y-105750000D03*
D10*
G36*
X136864894Y-110205797D02*
X136088437Y-113103574D01*
X133190660Y-112327117D01*
X133967117Y-109429340D01*
X136864894Y-110205797D01*
X136864894Y-110205797D01*
G37*
G36*
X131069340Y-108652883D02*
X130292883Y-111550660D01*
X127395106Y-110774203D01*
X128171563Y-107876426D01*
X131069340Y-108652883D01*
X131069340Y-108652883D01*
G37*
D15*
X132250000Y-104420000D03*
X131297500Y-106960000D03*
X133202500Y-106960000D03*
X128710000Y-101020000D03*
X127757500Y-103560000D03*
X129662500Y-103560000D03*
D16*
X118085000Y-107167000D03*
X118085000Y-101833000D03*
X119355000Y-107167000D03*
X120625000Y-107167000D03*
X121895000Y-107167000D03*
X119355000Y-101833000D03*
X120625000Y-101833000D03*
X121895000Y-101833000D03*
D17*
X126520000Y-107352500D03*
X126520000Y-105447500D03*
X124230000Y-107357500D03*
X124230000Y-109262500D03*
X136470000Y-108202500D03*
X136470000Y-106297500D03*
D10*
G36*
X163040183Y-121416871D02*
X162678613Y-122766269D01*
X161819905Y-122536179D01*
X162181475Y-121186781D01*
X163040183Y-121416871D01*
X163040183Y-121416871D01*
G37*
G36*
X161200095Y-120923821D02*
X160838525Y-122273219D01*
X159979817Y-122043129D01*
X160341387Y-120693731D01*
X161200095Y-120923821D01*
X161200095Y-120923821D01*
G37*
G36*
X163720183Y-119286871D02*
X163358613Y-120636269D01*
X162499905Y-120406179D01*
X162861475Y-119056781D01*
X163720183Y-119286871D01*
X163720183Y-119286871D01*
G37*
G36*
X161880095Y-118793821D02*
X161518525Y-120143219D01*
X160659817Y-119913129D01*
X161021387Y-118563731D01*
X161880095Y-118793821D01*
X161880095Y-118793821D01*
G37*
D17*
X167750000Y-104572500D03*
X167750000Y-102667500D03*
X169890000Y-102687500D03*
X169890000Y-104592500D03*
X115690000Y-103447500D03*
X115690000Y-105352500D03*
D18*
X113437500Y-108300000D03*
X115342500Y-108300000D03*
D17*
X178570000Y-111402500D03*
X178570000Y-109497500D03*
X166690000Y-122352500D03*
X166690000Y-120447500D03*
X169410000Y-120467500D03*
X169410000Y-122372500D03*
X124310000Y-102957500D03*
X124310000Y-104862500D03*
X121870000Y-111162500D03*
X121870000Y-109257500D03*
D10*
G36*
X157144592Y-107048140D02*
X157539033Y-105576069D01*
X159011104Y-105970510D01*
X158616663Y-107442581D01*
X157144592Y-107048140D01*
X157144592Y-107048140D01*
G37*
D19*
X158735249Y-104055874D03*
X160531300Y-107166726D03*
X161188700Y-104713274D03*
X162984751Y-107824126D03*
X163642152Y-105370675D03*
D20*
X176615000Y-112938420D03*
X175345000Y-112938420D03*
X174075000Y-112938420D03*
X172805000Y-112938420D03*
X171535000Y-112938420D03*
X170265000Y-112938420D03*
X168995000Y-112938420D03*
X168995000Y-107741580D03*
X170265000Y-107741580D03*
X171535000Y-107741580D03*
X172805000Y-107741580D03*
X174075000Y-107741580D03*
X175345000Y-107741580D03*
X176615000Y-107741580D03*
D21*
X172410000Y-102770000D03*
X175190000Y-102790000D03*
X177910000Y-102790000D03*
D10*
G36*
X140966752Y-115678285D02*
X141380863Y-114132804D01*
X142926344Y-114546915D01*
X142512233Y-116092396D01*
X140966752Y-115678285D01*
X140966752Y-115678285D01*
G37*
D13*
X144400000Y-115770000D03*
X146853452Y-116427400D03*
D22*
X109340000Y-104580000D03*
D23*
X130060000Y-107440000D03*
D22*
X162860000Y-101330000D03*
X134520000Y-107540000D03*
X138720000Y-103670000D03*
X166810000Y-119210000D03*
X167640000Y-109360000D03*
X168030000Y-116270000D03*
X116590000Y-110080000D03*
X131840000Y-109830000D03*
D23*
X170230000Y-115060000D03*
X171540000Y-104860000D03*
X164910000Y-103740000D03*
X167670000Y-106840000D03*
X162340000Y-117580000D03*
X166260000Y-112250000D03*
X110090000Y-107580000D03*
X123780000Y-111460000D03*
X125760000Y-103440000D03*
X172780000Y-115250000D03*
X158880000Y-121110000D03*
X164820000Y-121140000D03*
D22*
X123060000Y-106050000D03*
X101730000Y-109250000D03*
X135027777Y-114130000D03*
D24*
X169700000Y-101980000D02*
X169700000Y-102147500D01*
D25*
X177034080Y-112938420D02*
X178570000Y-111402500D01*
X176615000Y-112938420D02*
X177034080Y-112938420D01*
X170812500Y-120467500D02*
X173620000Y-117660000D01*
X173620000Y-117660000D02*
X173620000Y-116780000D01*
X173620000Y-116780000D02*
X174840000Y-115560000D01*
X174840000Y-115560000D02*
X175640000Y-115560000D01*
X175640000Y-115560000D02*
X176615000Y-114585000D01*
X176615000Y-114585000D02*
X176615000Y-112938420D01*
X169410000Y-120467500D02*
X170812500Y-120467500D01*
X146290000Y-104830000D02*
X146240000Y-104880000D01*
X116470500Y-103447500D02*
X118085000Y-101833000D01*
X115690000Y-103447500D02*
X116470500Y-103447500D01*
X118085000Y-101165000D02*
X118760000Y-100490000D01*
X118760000Y-100490000D02*
X128180000Y-100490000D01*
X128180000Y-100490000D02*
X128710000Y-101020000D01*
X118085000Y-101833000D02*
X118085000Y-101165000D01*
X142480000Y-101020000D02*
X146290000Y-104830000D01*
X128710000Y-101020000D02*
X142480000Y-101020000D01*
X149590000Y-104830000D02*
X146290000Y-104830000D01*
X149600000Y-104830000D02*
X149590000Y-104830000D01*
X175630000Y-110614002D02*
X159090000Y-110614002D01*
X176615000Y-111599002D02*
X175630000Y-110614002D01*
X176615000Y-112938420D02*
X176615000Y-111599002D01*
X151840000Y-106330000D02*
X154840000Y-106330000D01*
X154840000Y-106330000D02*
X159124002Y-110614002D01*
X159124002Y-110614002D02*
X159090000Y-110580000D01*
X159090000Y-110580000D02*
X159090000Y-110614002D01*
X149590000Y-104830000D02*
X151906176Y-106219706D01*
X109340000Y-104630000D02*
X111390000Y-102580000D01*
X108220160Y-105749840D02*
X109340000Y-104630000D01*
X101669540Y-105749840D02*
X108220160Y-105749840D01*
X109340000Y-104580000D02*
X109340000Y-104630000D01*
X109365000Y-104605000D02*
X109340000Y-104580000D01*
X109340000Y-104580000D02*
X109365000Y-104605000D01*
D24*
X159973121Y-102818002D02*
X165294877Y-102874950D01*
X165758577Y-104708577D02*
X166550000Y-105500000D01*
X165761666Y-103344042D02*
X165758577Y-104708577D01*
X165294877Y-102874950D02*
X165761666Y-103344042D01*
X166550000Y-105500000D02*
X170640000Y-105500000D01*
X170640000Y-105500000D02*
X171535000Y-106395000D01*
X171535000Y-106395000D02*
X171535000Y-107741580D01*
X158735249Y-104055874D02*
X159973121Y-102818002D01*
X129972500Y-107352500D02*
X126520000Y-107352500D01*
X129972500Y-107352500D02*
X130060000Y-107440000D01*
D25*
X178370920Y-109497500D02*
X176615000Y-107741580D01*
X178570000Y-109497500D02*
X178370920Y-109497500D01*
X162917500Y-101387500D02*
X162860000Y-101330000D01*
X166920000Y-101387500D02*
X162917500Y-101387500D01*
X176615000Y-108965000D02*
X175820000Y-109760000D01*
X175820000Y-109760000D02*
X168640000Y-109760000D01*
X168640000Y-109760000D02*
X164250675Y-105370675D01*
X164250675Y-105370675D02*
X163642152Y-105370675D01*
X176615000Y-107741580D02*
X176615000Y-108965000D01*
X120625000Y-108012500D02*
X120625000Y-107167000D01*
X121870000Y-109257500D02*
X120625000Y-108012500D01*
X120625000Y-101833000D02*
X119355000Y-101833000D01*
X120625000Y-107167000D02*
X120625000Y-101833000D01*
X121870000Y-109257500D02*
X118582500Y-109257500D01*
X118542500Y-105352500D02*
X115690000Y-105352500D01*
X119355000Y-106165000D02*
X118542500Y-105352500D01*
X119355000Y-107167000D02*
X119355000Y-106165000D01*
X123770000Y-107357500D02*
X121870000Y-109257500D01*
X124230000Y-107357500D02*
X123770000Y-107357500D01*
X124230000Y-107357500D02*
X124427500Y-107357500D01*
X130448957Y-109713543D02*
X133202500Y-106960000D01*
X129232223Y-109713543D02*
X130448957Y-109713543D01*
X134520000Y-107540000D02*
X133202500Y-107372500D01*
X133202500Y-107372500D02*
X133202500Y-106960000D01*
X136470000Y-105920000D02*
X138720000Y-103670000D01*
X136470000Y-106297500D02*
X136470000Y-105920000D01*
X122037500Y-109257500D02*
X123210000Y-110430000D01*
X123210000Y-110430000D02*
X128515766Y-110430000D01*
X128515766Y-110430000D02*
X129232223Y-109713543D01*
X121870000Y-109257500D02*
X122037500Y-109257500D01*
X166810000Y-119210000D02*
X166810000Y-120327500D01*
X166810000Y-120327500D02*
X166690000Y-120447500D01*
X116480000Y-108300000D02*
X117437500Y-109257500D01*
X118570000Y-109257500D02*
X118582500Y-109257500D01*
X117437500Y-109257500D02*
X118570000Y-109257500D01*
X115342500Y-108300000D02*
X116480000Y-108300000D01*
X119342500Y-108485000D02*
X119355000Y-108485000D01*
X119355000Y-108485000D02*
X119355000Y-107167000D01*
X118570000Y-109257500D02*
X119342500Y-108485000D01*
X168240000Y-109360000D02*
X167640000Y-109360000D01*
X168640000Y-109760000D02*
X168240000Y-109360000D01*
X168030000Y-116270000D02*
X168030000Y-117990000D01*
X168030000Y-117990000D02*
X166810000Y-119210000D01*
X112340000Y-110080000D02*
X114340000Y-110080000D01*
X114340000Y-110080000D02*
X115342500Y-109077500D01*
X115342500Y-109077500D02*
X115342500Y-108300000D01*
X112340000Y-110080000D02*
X116590000Y-110080000D01*
X111570000Y-110850000D02*
X112340000Y-110080000D01*
X131840000Y-109830000D02*
X131723543Y-109713543D01*
X131723543Y-109713543D02*
X129232223Y-109713543D01*
X166412500Y-101330000D02*
X167750000Y-102667500D01*
X162860000Y-101330000D02*
X166412500Y-101330000D01*
D24*
X170265000Y-115025000D02*
X170230000Y-115060000D01*
X171540000Y-104860000D02*
X171030000Y-104350000D01*
X171030000Y-104350000D02*
X171030000Y-103827500D01*
X171030000Y-103827500D02*
X169890000Y-102687500D01*
X170265000Y-112938420D02*
X170265000Y-115025000D01*
X158450675Y-106509325D02*
X159990000Y-104970000D01*
X159990000Y-104970000D02*
X159990000Y-104050000D01*
X159990000Y-104050000D02*
X160560000Y-103480000D01*
X160560000Y-103480000D02*
X164650000Y-103480000D01*
X164650000Y-103480000D02*
X164910000Y-103740000D01*
X168571580Y-107741580D02*
X168995000Y-107741580D01*
X167670000Y-106840000D02*
X168571580Y-107741580D01*
X158077848Y-106509325D02*
X158450675Y-106509325D01*
X162480000Y-117720000D02*
X162480000Y-118350000D01*
X161720000Y-121260000D02*
X162480000Y-118350000D01*
X162430044Y-121976525D02*
X161720000Y-121260000D01*
X162340000Y-117580000D02*
X162480000Y-117720000D01*
X168995000Y-113961569D02*
X168995000Y-112938420D01*
X163110044Y-119846525D02*
X168995000Y-113961569D01*
X166948420Y-112938420D02*
X166260000Y-112250000D01*
X168995000Y-112938420D02*
X166948420Y-112938420D01*
D25*
X113437500Y-107617500D02*
X113437500Y-108300000D01*
X111570000Y-105750000D02*
X113437500Y-107617500D01*
X113437500Y-107622500D02*
X114330000Y-106730000D01*
X114330000Y-106730000D02*
X117648000Y-106730000D01*
X117648000Y-106730000D02*
X118085000Y-107167000D01*
X113437500Y-108300000D02*
X113437500Y-107622500D01*
D24*
X110090000Y-107580000D02*
X110090000Y-107230000D01*
X110090000Y-107230000D02*
X111570000Y-105750000D01*
X132250000Y-103490000D02*
X131100000Y-102340000D01*
X131100000Y-102340000D02*
X124927500Y-102340000D01*
X124897500Y-102370000D02*
X124310000Y-102957500D01*
X124927500Y-102340000D02*
X124897500Y-102370000D01*
X132250000Y-104420000D02*
X132250000Y-103490000D01*
X126567500Y-102370000D02*
X124897500Y-102370000D01*
X127757500Y-103560000D02*
X126567500Y-102370000D01*
X122167500Y-111460000D02*
X123780000Y-111460000D01*
X125760000Y-103440000D02*
X125277500Y-102957500D01*
X125277500Y-102957500D02*
X124310000Y-102957500D01*
X121870000Y-111162500D02*
X122167500Y-111460000D01*
X172430000Y-105790000D02*
X172805000Y-106165000D01*
X172805000Y-106165000D02*
X172805000Y-107741580D01*
X172430000Y-101770000D02*
X172430000Y-105790000D01*
X175160000Y-105420000D02*
X174075000Y-106505000D01*
X174075000Y-106505000D02*
X174075000Y-107741580D01*
X175160000Y-101780000D02*
X175160000Y-105420000D01*
X175345000Y-106025000D02*
X177850000Y-103520000D01*
X177850000Y-103520000D02*
X177850000Y-101770000D01*
X175345000Y-107741580D02*
X175345000Y-106025000D01*
X172805000Y-115225000D02*
X172780000Y-115250000D01*
X172805000Y-112938420D02*
X172805000Y-115225000D01*
X158746481Y-116830000D02*
X152319148Y-116830000D01*
X152319148Y-116830000D02*
X151446548Y-117702600D01*
X161269956Y-119353475D02*
X158746481Y-116830000D01*
X158880000Y-121110000D02*
X159253475Y-121483475D01*
X159253475Y-121483475D02*
X160589956Y-121483475D01*
X129785000Y-105447500D02*
X126520000Y-105447500D01*
X131297500Y-106960000D02*
X129785000Y-105447500D01*
X125350000Y-108142500D02*
X125350000Y-106617500D01*
X125350000Y-106617500D02*
X126520000Y-105447500D01*
X124230000Y-109262500D02*
X125350000Y-108142500D01*
X165480000Y-102310000D02*
X166350000Y-103180000D01*
X166350000Y-103180000D02*
X166350000Y-103390000D01*
X166350000Y-103390000D02*
X166550000Y-103590000D01*
X166550000Y-103590000D02*
X168887500Y-103590000D01*
X168887500Y-103590000D02*
X169890000Y-104592500D01*
X153833452Y-104597400D02*
X156120852Y-102310000D01*
X156120852Y-102310000D02*
X165480000Y-102310000D01*
X169870000Y-104572500D02*
X169890000Y-104592500D01*
X167750000Y-104572500D02*
X169870000Y-104572500D01*
X171535000Y-111865000D02*
X170965004Y-111295004D01*
X170965004Y-111295004D02*
X164609249Y-111310751D01*
X164609249Y-111310751D02*
X160840000Y-115080000D01*
X160840000Y-115080000D02*
X146590000Y-115080000D01*
X140840000Y-113330000D02*
X136590000Y-108330000D01*
X146590000Y-115080000D02*
X140840000Y-113330000D01*
X136590000Y-108330000D02*
X136470000Y-108202500D01*
X171535000Y-112938420D02*
X171535000Y-111865000D01*
X129662500Y-103942500D02*
X131180000Y-105460000D01*
X131180000Y-105460000D02*
X133727500Y-105460000D01*
X133727500Y-105460000D02*
X136470000Y-108202500D01*
X129662500Y-103560000D02*
X129662500Y-103942500D01*
X166032500Y-122352500D02*
X166690000Y-122352500D01*
X166032500Y-122352500D02*
X164820000Y-121140000D01*
X169390000Y-122352500D02*
X169410000Y-122372500D01*
X166690000Y-122352500D02*
X169390000Y-122352500D01*
X170265000Y-106255000D02*
X170020021Y-106010021D01*
X170020021Y-106010021D02*
X166262955Y-106008006D01*
X166262955Y-106008006D02*
X164873387Y-104912619D01*
X164160000Y-104160000D02*
X163180000Y-104160000D01*
X164873387Y-104912619D02*
X164160000Y-104160000D01*
X163180000Y-104160000D02*
X162400000Y-104940000D01*
X162400000Y-104940000D02*
X162400000Y-105298026D01*
X162400000Y-105298026D02*
X160531300Y-107166726D01*
X170265000Y-107741580D02*
X170265000Y-106255000D01*
D25*
X124247500Y-104862500D02*
X123060000Y-106050000D01*
X101730000Y-109250000D02*
X101730000Y-110789700D01*
X101730000Y-110789700D02*
X101669540Y-110850160D01*
X124310000Y-104862500D02*
X124247500Y-104862500D01*
X100590000Y-108110000D02*
X100590000Y-104580000D01*
X100590000Y-104580000D02*
X102590000Y-102580000D01*
X101730000Y-109250000D02*
X100590000Y-108110000D01*
X135027777Y-114157777D02*
X136308622Y-115660771D01*
X136308622Y-115660771D02*
X142720000Y-117450000D01*
X142720000Y-117450000D02*
X144400000Y-115770000D01*
X135027777Y-114130000D02*
X135027777Y-114157777D01*
X135027777Y-111266457D02*
X135027777Y-114130000D01*
X152670000Y-119590000D02*
X145315684Y-118039021D01*
X145315684Y-118039021D02*
X142720000Y-117450000D01*
X153900000Y-118360000D02*
X152670000Y-119590000D01*
D24*
G36*
X124947870Y-105942000D02*
X124811185Y-106078685D01*
X124678006Y-106278000D01*
X124515750Y-106278000D01*
X124357000Y-106436750D01*
X124357000Y-107230500D01*
X124377000Y-107230500D01*
X124377000Y-107484500D01*
X124357000Y-107484500D01*
X124357000Y-107504500D01*
X124103000Y-107504500D01*
X124103000Y-107484500D01*
X123055250Y-107484500D01*
X122896500Y-107643250D01*
X122896500Y-107928309D01*
X122993173Y-108161698D01*
X123141474Y-108310000D01*
X123052499Y-108398974D01*
X122928199Y-108274673D01*
X122744583Y-108198616D01*
X122829720Y-107993080D01*
X122829720Y-107740461D01*
X122829720Y-107183339D01*
X122833244Y-107184803D01*
X123009706Y-107184956D01*
X123055250Y-107230500D01*
X124103000Y-107230500D01*
X124103000Y-106497841D01*
X124194803Y-106276756D01*
X124194837Y-106237452D01*
X124490290Y-105942000D01*
X124947870Y-105942000D01*
X124947870Y-105942000D01*
G37*
X124947870Y-105942000D02*
X124811185Y-106078685D01*
X124678006Y-106278000D01*
X124515750Y-106278000D01*
X124357000Y-106436750D01*
X124357000Y-107230500D01*
X124377000Y-107230500D01*
X124377000Y-107484500D01*
X124357000Y-107484500D01*
X124357000Y-107504500D01*
X124103000Y-107504500D01*
X124103000Y-107484500D01*
X123055250Y-107484500D01*
X122896500Y-107643250D01*
X122896500Y-107928309D01*
X122993173Y-108161698D01*
X123141474Y-108310000D01*
X123052499Y-108398974D01*
X122928199Y-108274673D01*
X122744583Y-108198616D01*
X122829720Y-107993080D01*
X122829720Y-107740461D01*
X122829720Y-107183339D01*
X122833244Y-107184803D01*
X123009706Y-107184956D01*
X123055250Y-107230500D01*
X124103000Y-107230500D01*
X124103000Y-106497841D01*
X124194803Y-106276756D01*
X124194837Y-106237452D01*
X124490290Y-105942000D01*
X124947870Y-105942000D01*
G36*
X127724480Y-101578000D02*
X124927500Y-101578000D01*
X124635895Y-101636004D01*
X124388684Y-101801185D01*
X124358687Y-101831182D01*
X124358684Y-101831185D01*
X124311869Y-101878000D01*
X123485191Y-101878000D01*
X123251802Y-101974673D01*
X123073173Y-102153301D01*
X122976500Y-102386690D01*
X122976500Y-102639309D01*
X122976500Y-103528309D01*
X123073173Y-103761698D01*
X123221474Y-103910000D01*
X123073173Y-104058301D01*
X122976500Y-104291690D01*
X122976500Y-104544309D01*
X122976500Y-104811210D01*
X122872874Y-104914835D01*
X122835225Y-104914803D01*
X122417914Y-105087233D01*
X122098355Y-105406235D01*
X121925197Y-105823244D01*
X121925189Y-105832230D01*
X121468971Y-105832230D01*
X121260000Y-105918788D01*
X121051029Y-105832230D01*
X120910750Y-105832230D01*
X120752000Y-105990980D01*
X120752000Y-107040000D01*
X120772000Y-107040000D01*
X120772000Y-107294000D01*
X120752000Y-107294000D01*
X120752000Y-107314000D01*
X120498000Y-107314000D01*
X120498000Y-107294000D01*
X120498000Y-107040000D01*
X120498000Y-105990980D01*
X120498000Y-103009020D01*
X120498000Y-101960000D01*
X120130970Y-101960000D01*
X119849030Y-101960000D01*
X119482000Y-101960000D01*
X119482000Y-103009020D01*
X119640750Y-103167770D01*
X119781029Y-103167770D01*
X119990000Y-103081211D01*
X120198971Y-103167770D01*
X120339250Y-103167770D01*
X120498000Y-103009020D01*
X120498000Y-105990980D01*
X120339250Y-105832230D01*
X120198971Y-105832230D01*
X119990000Y-105918788D01*
X119781029Y-105832230D01*
X119640750Y-105832230D01*
X119482000Y-105990980D01*
X119482000Y-107040000D01*
X119849030Y-107040000D01*
X120130970Y-107040000D01*
X120498000Y-107040000D01*
X120498000Y-107294000D01*
X120130970Y-107294000D01*
X119849030Y-107294000D01*
X119482000Y-107294000D01*
X119482000Y-108343020D01*
X119640750Y-108501770D01*
X119781029Y-108501770D01*
X119990000Y-108415211D01*
X120198971Y-108501770D01*
X120339250Y-108501770D01*
X120497998Y-108343022D01*
X120497998Y-108501770D01*
X120498000Y-108501770D01*
X120613096Y-108501770D01*
X120536500Y-108686691D01*
X120536500Y-108971750D01*
X120695250Y-109130500D01*
X121743000Y-109130500D01*
X121743000Y-109110500D01*
X121997000Y-109110500D01*
X121997000Y-109130500D01*
X122017000Y-109130500D01*
X122017000Y-109384500D01*
X121997000Y-109384500D01*
X121997000Y-109404500D01*
X121743000Y-109404500D01*
X121743000Y-109384500D01*
X120695250Y-109384500D01*
X120536500Y-109543250D01*
X120536500Y-109828309D01*
X120633173Y-110061698D01*
X120781474Y-110210000D01*
X120633173Y-110358301D01*
X120536500Y-110591690D01*
X120536500Y-110844309D01*
X120536500Y-111716694D01*
X120498000Y-111706606D01*
X116422000Y-110638622D01*
X116422000Y-109124810D01*
X116422000Y-108872191D01*
X116422000Y-108585750D01*
X116263250Y-108427000D01*
X115469500Y-108427000D01*
X115469500Y-109474750D01*
X115628250Y-109633500D01*
X115913309Y-109633500D01*
X116146698Y-109536827D01*
X116325327Y-109358199D01*
X116422000Y-109124810D01*
X116422000Y-110638622D01*
X115179958Y-110313185D01*
X115089187Y-110307740D01*
X115000000Y-110290000D01*
X113000000Y-110290000D01*
X112728295Y-110344046D01*
X112705380Y-110359357D01*
X112705380Y-110223311D01*
X112608707Y-109989922D01*
X112430079Y-109811293D01*
X112196690Y-109714620D01*
X111944071Y-109714620D01*
X111855750Y-109714620D01*
X111697000Y-109873370D01*
X111697000Y-110723000D01*
X111717000Y-110723000D01*
X111717000Y-110977000D01*
X111697000Y-110977000D01*
X111697000Y-111826630D01*
X111855750Y-111985380D01*
X111944071Y-111985380D01*
X112196690Y-111985380D01*
X112290000Y-111946729D01*
X112290000Y-129705453D01*
X111443000Y-130550603D01*
X111443000Y-111826630D01*
X111443000Y-110977000D01*
X111443000Y-110723000D01*
X111443000Y-109873370D01*
X111284250Y-109714620D01*
X111195929Y-109714620D01*
X110943310Y-109714620D01*
X110709921Y-109811293D01*
X110531293Y-109989922D01*
X110434620Y-110223311D01*
X110434620Y-110564250D01*
X110593370Y-110723000D01*
X111443000Y-110723000D01*
X111443000Y-110977000D01*
X110593370Y-110977000D01*
X110434620Y-111135750D01*
X110434620Y-111476689D01*
X110531293Y-111710078D01*
X110709921Y-111888707D01*
X110943310Y-111985380D01*
X111195929Y-111985380D01*
X111284250Y-111985380D01*
X111443000Y-111826630D01*
X111443000Y-130550603D01*
X108934866Y-133053261D01*
X108935248Y-132615813D01*
X108717243Y-132088200D01*
X108313923Y-131684176D01*
X107786691Y-131465250D01*
X107215813Y-131464752D01*
X106688200Y-131682757D01*
X106284176Y-132086077D01*
X106065250Y-132613309D01*
X106064752Y-133184187D01*
X106165218Y-133427334D01*
X100710000Y-132410150D01*
X100710000Y-111789405D01*
X100809461Y-111888867D01*
X101042850Y-111985540D01*
X101295469Y-111985540D01*
X102296229Y-111985540D01*
X102529618Y-111888867D01*
X102708247Y-111710239D01*
X102804920Y-111476850D01*
X102804920Y-111224231D01*
X102804920Y-110223471D01*
X102708247Y-109990082D01*
X102665000Y-109946834D01*
X102665000Y-109920363D01*
X102691645Y-109893765D01*
X102864803Y-109476756D01*
X102865197Y-109025225D01*
X102692767Y-108607914D01*
X102373765Y-108288355D01*
X101956756Y-108115197D01*
X101917452Y-108115162D01*
X101525000Y-107722710D01*
X101525000Y-106885220D01*
X102296229Y-106885220D01*
X102529618Y-106788547D01*
X102633325Y-106684840D01*
X108220160Y-106684840D01*
X108577969Y-106613667D01*
X108881305Y-106410985D01*
X109585766Y-105706523D01*
X109982086Y-105542767D01*
X110301645Y-105223765D01*
X110467182Y-104825107D01*
X110577290Y-104715000D01*
X110706214Y-104715000D01*
X110531293Y-104889921D01*
X110434620Y-105123310D01*
X110434620Y-105375929D01*
X110434620Y-105807750D01*
X109647590Y-106594779D01*
X109479311Y-106664311D01*
X109175378Y-106967714D01*
X109010687Y-107364332D01*
X109010313Y-107793784D01*
X109174311Y-108190689D01*
X109477714Y-108494622D01*
X109874332Y-108659313D01*
X110303784Y-108659687D01*
X110700689Y-108495689D01*
X111004622Y-108192286D01*
X111169313Y-107795668D01*
X111169687Y-107366216D01*
X111129258Y-107268371D01*
X111447670Y-106949960D01*
X112358000Y-107860290D01*
X112358000Y-109124809D01*
X112454673Y-109358198D01*
X112633301Y-109536827D01*
X112866690Y-109633500D01*
X113119309Y-109633500D01*
X114008309Y-109633500D01*
X114241698Y-109536827D01*
X114390000Y-109388525D01*
X114538302Y-109536827D01*
X114771691Y-109633500D01*
X115056750Y-109633500D01*
X115215500Y-109474750D01*
X115215500Y-108427000D01*
X115195500Y-108427000D01*
X115195500Y-108173000D01*
X115215500Y-108173000D01*
X115215500Y-108153000D01*
X115469500Y-108153000D01*
X115469500Y-108173000D01*
X116263250Y-108173000D01*
X116422000Y-108014250D01*
X116422000Y-107727809D01*
X116422000Y-107665000D01*
X117150280Y-107665000D01*
X117150280Y-107993079D01*
X117246953Y-108226468D01*
X117425581Y-108405097D01*
X117658970Y-108501770D01*
X117911589Y-108501770D01*
X118511029Y-108501770D01*
X118720000Y-108415211D01*
X118928971Y-108501770D01*
X119069250Y-108501770D01*
X119228000Y-108343020D01*
X119228000Y-107294000D01*
X119208000Y-107294000D01*
X119208000Y-107040000D01*
X119228000Y-107040000D01*
X119228000Y-105990980D01*
X119069250Y-105832230D01*
X118928971Y-105832230D01*
X118720000Y-105918788D01*
X118511030Y-105832230D01*
X118258411Y-105832230D01*
X117835166Y-105832230D01*
X117648000Y-105795000D01*
X117023500Y-105795000D01*
X117023500Y-105638250D01*
X116864750Y-105479500D01*
X115817000Y-105479500D01*
X115817000Y-105499500D01*
X115563000Y-105499500D01*
X115563000Y-105479500D01*
X114515250Y-105479500D01*
X114356500Y-105638250D01*
X114356500Y-105795000D01*
X114330005Y-105795000D01*
X114330000Y-105794999D01*
X114031556Y-105854364D01*
X113972191Y-105866173D01*
X113668855Y-106068855D01*
X113440000Y-106297710D01*
X112705380Y-105563090D01*
X112705380Y-105123311D01*
X112608707Y-104889922D01*
X112433785Y-104715000D01*
X113016309Y-104715000D01*
X113249698Y-104618327D01*
X113428327Y-104439699D01*
X113525000Y-104206310D01*
X113525000Y-103953691D01*
X113525000Y-100953691D01*
X113443452Y-100756817D01*
X113515224Y-100804774D01*
X113575074Y-100894344D01*
X113623642Y-101138513D01*
X113699762Y-101521196D01*
X113730813Y-101596160D01*
X113805776Y-101777138D01*
X114022549Y-102101561D01*
X114022550Y-102101562D01*
X114218438Y-102297451D01*
X114542862Y-102514223D01*
X114542863Y-102514223D01*
X114570714Y-102525759D01*
X114453173Y-102643301D01*
X114356500Y-102876690D01*
X114356500Y-103129309D01*
X114356500Y-104018309D01*
X114453173Y-104251698D01*
X114601474Y-104400000D01*
X114453173Y-104548302D01*
X114356500Y-104781691D01*
X114356500Y-105066750D01*
X114515250Y-105225500D01*
X115563000Y-105225500D01*
X115563000Y-105205500D01*
X115817000Y-105205500D01*
X115817000Y-105225500D01*
X116864750Y-105225500D01*
X117023500Y-105066750D01*
X117023500Y-104781691D01*
X116926827Y-104548302D01*
X116778525Y-104399999D01*
X116926827Y-104251699D01*
X116930377Y-104243127D01*
X117131645Y-104108645D01*
X118072520Y-103167770D01*
X118511029Y-103167770D01*
X118720000Y-103081211D01*
X118928971Y-103167770D01*
X119069250Y-103167770D01*
X119228000Y-103009020D01*
X119228000Y-101960000D01*
X119208000Y-101960000D01*
X119208000Y-101706000D01*
X119228000Y-101706000D01*
X119228000Y-101686000D01*
X119482000Y-101686000D01*
X119482000Y-101706000D01*
X119849030Y-101706000D01*
X120130970Y-101706000D01*
X120498000Y-101706000D01*
X120498000Y-101686000D01*
X120752000Y-101686000D01*
X120752000Y-101706000D01*
X120772000Y-101706000D01*
X120772000Y-101960000D01*
X120752000Y-101960000D01*
X120752000Y-103009020D01*
X120910750Y-103167770D01*
X121051029Y-103167770D01*
X121259999Y-103081211D01*
X121468970Y-103167770D01*
X121721589Y-103167770D01*
X122321029Y-103167770D01*
X122554418Y-103071097D01*
X122733047Y-102892469D01*
X122829720Y-102659080D01*
X122829720Y-102406461D01*
X122829720Y-101425000D01*
X127724480Y-101425000D01*
X127724480Y-101578000D01*
X127724480Y-101578000D01*
G37*
X127724480Y-101578000D02*
X124927500Y-101578000D01*
X124635895Y-101636004D01*
X124388684Y-101801185D01*
X124358687Y-101831182D01*
X124358684Y-101831185D01*
X124311869Y-101878000D01*
X123485191Y-101878000D01*
X123251802Y-101974673D01*
X123073173Y-102153301D01*
X122976500Y-102386690D01*
X122976500Y-102639309D01*
X122976500Y-103528309D01*
X123073173Y-103761698D01*
X123221474Y-103910000D01*
X123073173Y-104058301D01*
X122976500Y-104291690D01*
X122976500Y-104544309D01*
X122976500Y-104811210D01*
X122872874Y-104914835D01*
X122835225Y-104914803D01*
X122417914Y-105087233D01*
X122098355Y-105406235D01*
X121925197Y-105823244D01*
X121925189Y-105832230D01*
X121468971Y-105832230D01*
X121260000Y-105918788D01*
X121051029Y-105832230D01*
X120910750Y-105832230D01*
X120752000Y-105990980D01*
X120752000Y-107040000D01*
X120772000Y-107040000D01*
X120772000Y-107294000D01*
X120752000Y-107294000D01*
X120752000Y-107314000D01*
X120498000Y-107314000D01*
X120498000Y-107294000D01*
X120498000Y-107040000D01*
X120498000Y-105990980D01*
X120498000Y-103009020D01*
X120498000Y-101960000D01*
X120130970Y-101960000D01*
X119849030Y-101960000D01*
X119482000Y-101960000D01*
X119482000Y-103009020D01*
X119640750Y-103167770D01*
X119781029Y-103167770D01*
X119990000Y-103081211D01*
X120198971Y-103167770D01*
X120339250Y-103167770D01*
X120498000Y-103009020D01*
X120498000Y-105990980D01*
X120339250Y-105832230D01*
X120198971Y-105832230D01*
X119990000Y-105918788D01*
X119781029Y-105832230D01*
X119640750Y-105832230D01*
X119482000Y-105990980D01*
X119482000Y-107040000D01*
X119849030Y-107040000D01*
X120130970Y-107040000D01*
X120498000Y-107040000D01*
X120498000Y-107294000D01*
X120130970Y-107294000D01*
X119849030Y-107294000D01*
X119482000Y-107294000D01*
X119482000Y-108343020D01*
X119640750Y-108501770D01*
X119781029Y-108501770D01*
X119990000Y-108415211D01*
X120198971Y-108501770D01*
X120339250Y-108501770D01*
X120497998Y-108343022D01*
X120497998Y-108501770D01*
X120498000Y-108501770D01*
X120613096Y-108501770D01*
X120536500Y-108686691D01*
X120536500Y-108971750D01*
X120695250Y-109130500D01*
X121743000Y-109130500D01*
X121743000Y-109110500D01*
X121997000Y-109110500D01*
X121997000Y-109130500D01*
X122017000Y-109130500D01*
X122017000Y-109384500D01*
X121997000Y-109384500D01*
X121997000Y-109404500D01*
X121743000Y-109404500D01*
X121743000Y-109384500D01*
X120695250Y-109384500D01*
X120536500Y-109543250D01*
X120536500Y-109828309D01*
X120633173Y-110061698D01*
X120781474Y-110210000D01*
X120633173Y-110358301D01*
X120536500Y-110591690D01*
X120536500Y-110844309D01*
X120536500Y-111716694D01*
X120498000Y-111706606D01*
X116422000Y-110638622D01*
X116422000Y-109124810D01*
X116422000Y-108872191D01*
X116422000Y-108585750D01*
X116263250Y-108427000D01*
X115469500Y-108427000D01*
X115469500Y-109474750D01*
X115628250Y-109633500D01*
X115913309Y-109633500D01*
X116146698Y-109536827D01*
X116325327Y-109358199D01*
X116422000Y-109124810D01*
X116422000Y-110638622D01*
X115179958Y-110313185D01*
X115089187Y-110307740D01*
X115000000Y-110290000D01*
X113000000Y-110290000D01*
X112728295Y-110344046D01*
X112705380Y-110359357D01*
X112705380Y-110223311D01*
X112608707Y-109989922D01*
X112430079Y-109811293D01*
X112196690Y-109714620D01*
X111944071Y-109714620D01*
X111855750Y-109714620D01*
X111697000Y-109873370D01*
X111697000Y-110723000D01*
X111717000Y-110723000D01*
X111717000Y-110977000D01*
X111697000Y-110977000D01*
X111697000Y-111826630D01*
X111855750Y-111985380D01*
X111944071Y-111985380D01*
X112196690Y-111985380D01*
X112290000Y-111946729D01*
X112290000Y-129705453D01*
X111443000Y-130550603D01*
X111443000Y-111826630D01*
X111443000Y-110977000D01*
X111443000Y-110723000D01*
X111443000Y-109873370D01*
X111284250Y-109714620D01*
X111195929Y-109714620D01*
X110943310Y-109714620D01*
X110709921Y-109811293D01*
X110531293Y-109989922D01*
X110434620Y-110223311D01*
X110434620Y-110564250D01*
X110593370Y-110723000D01*
X111443000Y-110723000D01*
X111443000Y-110977000D01*
X110593370Y-110977000D01*
X110434620Y-111135750D01*
X110434620Y-111476689D01*
X110531293Y-111710078D01*
X110709921Y-111888707D01*
X110943310Y-111985380D01*
X111195929Y-111985380D01*
X111284250Y-111985380D01*
X111443000Y-111826630D01*
X111443000Y-130550603D01*
X108934866Y-133053261D01*
X108935248Y-132615813D01*
X108717243Y-132088200D01*
X108313923Y-131684176D01*
X107786691Y-131465250D01*
X107215813Y-131464752D01*
X106688200Y-131682757D01*
X106284176Y-132086077D01*
X106065250Y-132613309D01*
X106064752Y-133184187D01*
X106165218Y-133427334D01*
X100710000Y-132410150D01*
X100710000Y-111789405D01*
X100809461Y-111888867D01*
X101042850Y-111985540D01*
X101295469Y-111985540D01*
X102296229Y-111985540D01*
X102529618Y-111888867D01*
X102708247Y-111710239D01*
X102804920Y-111476850D01*
X102804920Y-111224231D01*
X102804920Y-110223471D01*
X102708247Y-109990082D01*
X102665000Y-109946834D01*
X102665000Y-109920363D01*
X102691645Y-109893765D01*
X102864803Y-109476756D01*
X102865197Y-109025225D01*
X102692767Y-108607914D01*
X102373765Y-108288355D01*
X101956756Y-108115197D01*
X101917452Y-108115162D01*
X101525000Y-107722710D01*
X101525000Y-106885220D01*
X102296229Y-106885220D01*
X102529618Y-106788547D01*
X102633325Y-106684840D01*
X108220160Y-106684840D01*
X108577969Y-106613667D01*
X108881305Y-106410985D01*
X109585766Y-105706523D01*
X109982086Y-105542767D01*
X110301645Y-105223765D01*
X110467182Y-104825107D01*
X110577290Y-104715000D01*
X110706214Y-104715000D01*
X110531293Y-104889921D01*
X110434620Y-105123310D01*
X110434620Y-105375929D01*
X110434620Y-105807750D01*
X109647590Y-106594779D01*
X109479311Y-106664311D01*
X109175378Y-106967714D01*
X109010687Y-107364332D01*
X109010313Y-107793784D01*
X109174311Y-108190689D01*
X109477714Y-108494622D01*
X109874332Y-108659313D01*
X110303784Y-108659687D01*
X110700689Y-108495689D01*
X111004622Y-108192286D01*
X111169313Y-107795668D01*
X111169687Y-107366216D01*
X111129258Y-107268371D01*
X111447670Y-106949960D01*
X112358000Y-107860290D01*
X112358000Y-109124809D01*
X112454673Y-109358198D01*
X112633301Y-109536827D01*
X112866690Y-109633500D01*
X113119309Y-109633500D01*
X114008309Y-109633500D01*
X114241698Y-109536827D01*
X114390000Y-109388525D01*
X114538302Y-109536827D01*
X114771691Y-109633500D01*
X115056750Y-109633500D01*
X115215500Y-109474750D01*
X115215500Y-108427000D01*
X115195500Y-108427000D01*
X115195500Y-108173000D01*
X115215500Y-108173000D01*
X115215500Y-108153000D01*
X115469500Y-108153000D01*
X115469500Y-108173000D01*
X116263250Y-108173000D01*
X116422000Y-108014250D01*
X116422000Y-107727809D01*
X116422000Y-107665000D01*
X117150280Y-107665000D01*
X117150280Y-107993079D01*
X117246953Y-108226468D01*
X117425581Y-108405097D01*
X117658970Y-108501770D01*
X117911589Y-108501770D01*
X118511029Y-108501770D01*
X118720000Y-108415211D01*
X118928971Y-108501770D01*
X119069250Y-108501770D01*
X119228000Y-108343020D01*
X119228000Y-107294000D01*
X119208000Y-107294000D01*
X119208000Y-107040000D01*
X119228000Y-107040000D01*
X119228000Y-105990980D01*
X119069250Y-105832230D01*
X118928971Y-105832230D01*
X118720000Y-105918788D01*
X118511030Y-105832230D01*
X118258411Y-105832230D01*
X117835166Y-105832230D01*
X117648000Y-105795000D01*
X117023500Y-105795000D01*
X117023500Y-105638250D01*
X116864750Y-105479500D01*
X115817000Y-105479500D01*
X115817000Y-105499500D01*
X115563000Y-105499500D01*
X115563000Y-105479500D01*
X114515250Y-105479500D01*
X114356500Y-105638250D01*
X114356500Y-105795000D01*
X114330005Y-105795000D01*
X114330000Y-105794999D01*
X114031556Y-105854364D01*
X113972191Y-105866173D01*
X113668855Y-106068855D01*
X113440000Y-106297710D01*
X112705380Y-105563090D01*
X112705380Y-105123311D01*
X112608707Y-104889922D01*
X112433785Y-104715000D01*
X113016309Y-104715000D01*
X113249698Y-104618327D01*
X113428327Y-104439699D01*
X113525000Y-104206310D01*
X113525000Y-103953691D01*
X113525000Y-100953691D01*
X113443452Y-100756817D01*
X113515224Y-100804774D01*
X113575074Y-100894344D01*
X113623642Y-101138513D01*
X113699762Y-101521196D01*
X113730813Y-101596160D01*
X113805776Y-101777138D01*
X114022549Y-102101561D01*
X114022550Y-102101562D01*
X114218438Y-102297451D01*
X114542862Y-102514223D01*
X114542863Y-102514223D01*
X114570714Y-102525759D01*
X114453173Y-102643301D01*
X114356500Y-102876690D01*
X114356500Y-103129309D01*
X114356500Y-104018309D01*
X114453173Y-104251698D01*
X114601474Y-104400000D01*
X114453173Y-104548302D01*
X114356500Y-104781691D01*
X114356500Y-105066750D01*
X114515250Y-105225500D01*
X115563000Y-105225500D01*
X115563000Y-105205500D01*
X115817000Y-105205500D01*
X115817000Y-105225500D01*
X116864750Y-105225500D01*
X117023500Y-105066750D01*
X117023500Y-104781691D01*
X116926827Y-104548302D01*
X116778525Y-104399999D01*
X116926827Y-104251699D01*
X116930377Y-104243127D01*
X117131645Y-104108645D01*
X118072520Y-103167770D01*
X118511029Y-103167770D01*
X118720000Y-103081211D01*
X118928971Y-103167770D01*
X119069250Y-103167770D01*
X119228000Y-103009020D01*
X119228000Y-101960000D01*
X119208000Y-101960000D01*
X119208000Y-101706000D01*
X119228000Y-101706000D01*
X119228000Y-101686000D01*
X119482000Y-101686000D01*
X119482000Y-101706000D01*
X119849030Y-101706000D01*
X120130970Y-101706000D01*
X120498000Y-101706000D01*
X120498000Y-101686000D01*
X120752000Y-101686000D01*
X120752000Y-101706000D01*
X120772000Y-101706000D01*
X120772000Y-101960000D01*
X120752000Y-101960000D01*
X120752000Y-103009020D01*
X120910750Y-103167770D01*
X121051029Y-103167770D01*
X121259999Y-103081211D01*
X121468970Y-103167770D01*
X121721589Y-103167770D01*
X122321029Y-103167770D01*
X122554418Y-103071097D01*
X122733047Y-102892469D01*
X122829720Y-102659080D01*
X122829720Y-102406461D01*
X122829720Y-101425000D01*
X127724480Y-101425000D01*
X127724480Y-101578000D01*
G36*
X135375894Y-109149420D02*
X134188020Y-108831130D01*
X134009462Y-108783286D01*
X133759005Y-108816259D01*
X133540230Y-108942568D01*
X133386445Y-109142984D01*
X133321063Y-109386995D01*
X132544606Y-112284772D01*
X132577579Y-112535229D01*
X132703888Y-112754004D01*
X132904304Y-112907789D01*
X133148315Y-112973171D01*
X134092777Y-113226238D01*
X134092777Y-113459636D01*
X134066132Y-113486235D01*
X133892974Y-113903244D01*
X133892580Y-114354775D01*
X134065010Y-114772086D01*
X134384012Y-115091645D01*
X134710785Y-115227333D01*
X134933816Y-115489046D01*
X131220517Y-114516095D01*
X131220517Y-110542135D01*
X131108264Y-110347707D01*
X129322026Y-109869086D01*
X129076680Y-110784727D01*
X129076680Y-109803346D01*
X127290442Y-109324724D01*
X127096014Y-109436978D01*
X126814434Y-110487848D01*
X126749051Y-110731859D01*
X126782025Y-110982316D01*
X126908335Y-111201090D01*
X127108750Y-111354875D01*
X128403631Y-111701837D01*
X128598059Y-111589584D01*
X129076680Y-109803346D01*
X129076680Y-110784727D01*
X128843404Y-111655324D01*
X128955658Y-111849752D01*
X130250538Y-112196714D01*
X130500995Y-112163741D01*
X130719770Y-112037432D01*
X130873555Y-111837016D01*
X130938937Y-111593005D01*
X131220517Y-110542135D01*
X131220517Y-114516095D01*
X123676426Y-112539410D01*
X123993784Y-112539687D01*
X124390689Y-112375689D01*
X124694622Y-112072286D01*
X124859313Y-111675668D01*
X124859687Y-111246216D01*
X124695689Y-110849311D01*
X124392286Y-110545378D01*
X123995668Y-110380687D01*
X123566216Y-110380313D01*
X123181746Y-110539172D01*
X123106827Y-110358302D01*
X122958525Y-110210000D01*
X123047500Y-110121025D01*
X123171801Y-110245327D01*
X123405190Y-110342000D01*
X123657809Y-110342000D01*
X125054809Y-110342000D01*
X125288198Y-110245327D01*
X125466827Y-110066699D01*
X125563500Y-109833310D01*
X125563500Y-109580691D01*
X125563500Y-109006630D01*
X125888815Y-108681316D01*
X125888815Y-108681315D01*
X126053996Y-108434105D01*
X126054414Y-108432000D01*
X127344809Y-108432000D01*
X127367854Y-108422454D01*
X127243929Y-108884951D01*
X127356182Y-109079379D01*
X129142420Y-109558000D01*
X129147596Y-109538681D01*
X129392942Y-109604421D01*
X129387766Y-109623740D01*
X131174004Y-110102362D01*
X131368432Y-109990108D01*
X131650012Y-108939238D01*
X131715395Y-108695227D01*
X131682421Y-108444770D01*
X131556111Y-108225996D01*
X131385890Y-108095380D01*
X131774329Y-108095380D01*
X132007718Y-107998707D01*
X132186347Y-107820079D01*
X132250000Y-107666407D01*
X132313653Y-107820079D01*
X132492282Y-107998707D01*
X132725671Y-108095380D01*
X132916750Y-108095380D01*
X133075500Y-107936630D01*
X133075500Y-107087000D01*
X133055500Y-107087000D01*
X133055500Y-106833000D01*
X133075500Y-106833000D01*
X133075500Y-106813000D01*
X133329500Y-106813000D01*
X133329500Y-106833000D01*
X133349500Y-106833000D01*
X133349500Y-107087000D01*
X133329500Y-107087000D01*
X133329500Y-107936630D01*
X133488250Y-108095380D01*
X133679329Y-108095380D01*
X133912718Y-107998707D01*
X134091347Y-107820079D01*
X134188020Y-107586690D01*
X134188020Y-107334071D01*
X134188020Y-107245750D01*
X134029272Y-107087002D01*
X134188020Y-107087002D01*
X134188020Y-106998150D01*
X135136500Y-107946630D01*
X135136500Y-108773309D01*
X135233173Y-109006698D01*
X135375894Y-109149420D01*
X135375894Y-109149420D01*
G37*
X135375894Y-109149420D02*
X134188020Y-108831130D01*
X134009462Y-108783286D01*
X133759005Y-108816259D01*
X133540230Y-108942568D01*
X133386445Y-109142984D01*
X133321063Y-109386995D01*
X132544606Y-112284772D01*
X132577579Y-112535229D01*
X132703888Y-112754004D01*
X132904304Y-112907789D01*
X133148315Y-112973171D01*
X134092777Y-113226238D01*
X134092777Y-113459636D01*
X134066132Y-113486235D01*
X133892974Y-113903244D01*
X133892580Y-114354775D01*
X134065010Y-114772086D01*
X134384012Y-115091645D01*
X134710785Y-115227333D01*
X134933816Y-115489046D01*
X131220517Y-114516095D01*
X131220517Y-110542135D01*
X131108264Y-110347707D01*
X129322026Y-109869086D01*
X129076680Y-110784727D01*
X129076680Y-109803346D01*
X127290442Y-109324724D01*
X127096014Y-109436978D01*
X126814434Y-110487848D01*
X126749051Y-110731859D01*
X126782025Y-110982316D01*
X126908335Y-111201090D01*
X127108750Y-111354875D01*
X128403631Y-111701837D01*
X128598059Y-111589584D01*
X129076680Y-109803346D01*
X129076680Y-110784727D01*
X128843404Y-111655324D01*
X128955658Y-111849752D01*
X130250538Y-112196714D01*
X130500995Y-112163741D01*
X130719770Y-112037432D01*
X130873555Y-111837016D01*
X130938937Y-111593005D01*
X131220517Y-110542135D01*
X131220517Y-114516095D01*
X123676426Y-112539410D01*
X123993784Y-112539687D01*
X124390689Y-112375689D01*
X124694622Y-112072286D01*
X124859313Y-111675668D01*
X124859687Y-111246216D01*
X124695689Y-110849311D01*
X124392286Y-110545378D01*
X123995668Y-110380687D01*
X123566216Y-110380313D01*
X123181746Y-110539172D01*
X123106827Y-110358302D01*
X122958525Y-110210000D01*
X123047500Y-110121025D01*
X123171801Y-110245327D01*
X123405190Y-110342000D01*
X123657809Y-110342000D01*
X125054809Y-110342000D01*
X125288198Y-110245327D01*
X125466827Y-110066699D01*
X125563500Y-109833310D01*
X125563500Y-109580691D01*
X125563500Y-109006630D01*
X125888815Y-108681316D01*
X125888815Y-108681315D01*
X126053996Y-108434105D01*
X126054414Y-108432000D01*
X127344809Y-108432000D01*
X127367854Y-108422454D01*
X127243929Y-108884951D01*
X127356182Y-109079379D01*
X129142420Y-109558000D01*
X129147596Y-109538681D01*
X129392942Y-109604421D01*
X129387766Y-109623740D01*
X131174004Y-110102362D01*
X131368432Y-109990108D01*
X131650012Y-108939238D01*
X131715395Y-108695227D01*
X131682421Y-108444770D01*
X131556111Y-108225996D01*
X131385890Y-108095380D01*
X131774329Y-108095380D01*
X132007718Y-107998707D01*
X132186347Y-107820079D01*
X132250000Y-107666407D01*
X132313653Y-107820079D01*
X132492282Y-107998707D01*
X132725671Y-108095380D01*
X132916750Y-108095380D01*
X133075500Y-107936630D01*
X133075500Y-107087000D01*
X133055500Y-107087000D01*
X133055500Y-106833000D01*
X133075500Y-106833000D01*
X133075500Y-106813000D01*
X133329500Y-106813000D01*
X133329500Y-106833000D01*
X133349500Y-106833000D01*
X133349500Y-107087000D01*
X133329500Y-107087000D01*
X133329500Y-107936630D01*
X133488250Y-108095380D01*
X133679329Y-108095380D01*
X133912718Y-107998707D01*
X134091347Y-107820079D01*
X134188020Y-107586690D01*
X134188020Y-107334071D01*
X134188020Y-107245750D01*
X134029272Y-107087002D01*
X134188020Y-107087002D01*
X134188020Y-106998150D01*
X135136500Y-107946630D01*
X135136500Y-108773309D01*
X135233173Y-109006698D01*
X135375894Y-109149420D01*
G36*
X145133765Y-104996055D02*
X139973712Y-106403343D01*
X138771322Y-109108720D01*
X139836613Y-110972981D01*
X137803500Y-108581082D01*
X137803500Y-108520691D01*
X137803500Y-107631691D01*
X137706827Y-107398302D01*
X137558525Y-107250000D01*
X137706827Y-107101698D01*
X137803500Y-106868309D01*
X137803500Y-106583250D01*
X137803500Y-106011750D01*
X137803500Y-105726691D01*
X137706827Y-105493302D01*
X137528199Y-105314673D01*
X137294810Y-105218000D01*
X137042191Y-105218000D01*
X136755750Y-105218000D01*
X136597000Y-105376750D01*
X136597000Y-106170500D01*
X137644750Y-106170500D01*
X137803500Y-106011750D01*
X137803500Y-106583250D01*
X137644750Y-106424500D01*
X136597000Y-106424500D01*
X136597000Y-106444500D01*
X136343000Y-106444500D01*
X136343000Y-106424500D01*
X136323000Y-106424500D01*
X136323000Y-106170500D01*
X136343000Y-106170500D01*
X136343000Y-105376750D01*
X136184250Y-105218000D01*
X135897809Y-105218000D01*
X135645190Y-105218000D01*
X135411801Y-105314673D01*
X135233173Y-105493302D01*
X135136500Y-105726691D01*
X135136500Y-105791369D01*
X134266315Y-104921185D01*
X134019105Y-104756004D01*
X133727500Y-104698000D01*
X133235520Y-104698000D01*
X133235520Y-103793311D01*
X133138847Y-103559922D01*
X132997865Y-103418939D01*
X132953997Y-103198396D01*
X132953996Y-103198395D01*
X132788816Y-102951185D01*
X131792630Y-101955000D01*
X142092710Y-101955000D01*
X145133765Y-104996055D01*
X145133765Y-104996055D01*
G37*
X145133765Y-104996055D02*
X139973712Y-106403343D01*
X138771322Y-109108720D01*
X139836613Y-110972981D01*
X137803500Y-108581082D01*
X137803500Y-108520691D01*
X137803500Y-107631691D01*
X137706827Y-107398302D01*
X137558525Y-107250000D01*
X137706827Y-107101698D01*
X137803500Y-106868309D01*
X137803500Y-106583250D01*
X137803500Y-106011750D01*
X137803500Y-105726691D01*
X137706827Y-105493302D01*
X137528199Y-105314673D01*
X137294810Y-105218000D01*
X137042191Y-105218000D01*
X136755750Y-105218000D01*
X136597000Y-105376750D01*
X136597000Y-106170500D01*
X137644750Y-106170500D01*
X137803500Y-106011750D01*
X137803500Y-106583250D01*
X137644750Y-106424500D01*
X136597000Y-106424500D01*
X136597000Y-106444500D01*
X136343000Y-106444500D01*
X136343000Y-106424500D01*
X136323000Y-106424500D01*
X136323000Y-106170500D01*
X136343000Y-106170500D01*
X136343000Y-105376750D01*
X136184250Y-105218000D01*
X135897809Y-105218000D01*
X135645190Y-105218000D01*
X135411801Y-105314673D01*
X135233173Y-105493302D01*
X135136500Y-105726691D01*
X135136500Y-105791369D01*
X134266315Y-104921185D01*
X134019105Y-104756004D01*
X133727500Y-104698000D01*
X133235520Y-104698000D01*
X133235520Y-103793311D01*
X133138847Y-103559922D01*
X132997865Y-103418939D01*
X132953997Y-103198396D01*
X132953996Y-103198395D01*
X132788816Y-102951185D01*
X131792630Y-101955000D01*
X142092710Y-101955000D01*
X145133765Y-104996055D01*
G36*
X169217835Y-101403332D02*
X169161185Y-101441185D01*
X169043802Y-101616859D01*
X168831802Y-101704673D01*
X168830000Y-101706474D01*
X168808199Y-101684673D01*
X168574810Y-101588000D01*
X168322191Y-101588000D01*
X168035750Y-101588000D01*
X167877000Y-101746750D01*
X167877000Y-102540500D01*
X167897000Y-102540500D01*
X167897000Y-102794500D01*
X167877000Y-102794500D01*
X167877000Y-102814500D01*
X167623000Y-102814500D01*
X167623000Y-102794500D01*
X167603000Y-102794500D01*
X167603000Y-102540500D01*
X167623000Y-102540500D01*
X167623000Y-101746750D01*
X167464250Y-101588000D01*
X167177809Y-101588000D01*
X166925190Y-101588000D01*
X166691801Y-101684673D01*
X166513173Y-101863302D01*
X166416500Y-102096691D01*
X166416500Y-102168869D01*
X166018815Y-101771185D01*
X165771605Y-101606004D01*
X165480000Y-101548000D01*
X156120852Y-101548000D01*
X155829247Y-101606004D01*
X155582037Y-101771185D01*
X154227892Y-103125329D01*
X153247179Y-102862548D01*
X152996722Y-102895521D01*
X152777947Y-103021830D01*
X152694516Y-103130559D01*
X152672738Y-103077851D01*
X152244404Y-102648769D01*
X151684472Y-102416265D01*
X151078188Y-102415736D01*
X150517851Y-102647262D01*
X150358097Y-102806736D01*
X150193229Y-102697928D01*
X150066229Y-102771251D01*
X150066229Y-102477958D01*
X150050157Y-102209300D01*
X149553893Y-101861014D01*
X148962122Y-101729152D01*
X148490124Y-101791291D01*
X148341876Y-102015919D01*
X148973033Y-103109115D01*
X150066229Y-102477958D01*
X150066229Y-102771251D01*
X149133385Y-103309829D01*
X149120297Y-103296741D01*
X148940689Y-103476349D01*
X149359340Y-103895000D01*
X149133470Y-103895000D01*
X148899318Y-103489437D01*
X148912407Y-103476349D01*
X148753063Y-103317005D01*
X148753063Y-103236115D01*
X148121906Y-102142919D01*
X147853248Y-102158991D01*
X147504962Y-102655255D01*
X147373100Y-103247026D01*
X147435239Y-103719024D01*
X147659867Y-103867272D01*
X148753063Y-103236115D01*
X148753063Y-103317005D01*
X148732799Y-103296741D01*
X148154621Y-103874918D01*
X148119839Y-103895000D01*
X146677290Y-103895000D01*
X143492290Y-100710000D01*
X159973405Y-100710000D01*
X169217835Y-101403332D01*
X169217835Y-101403332D01*
G37*
X169217835Y-101403332D02*
X169161185Y-101441185D01*
X169043802Y-101616859D01*
X168831802Y-101704673D01*
X168830000Y-101706474D01*
X168808199Y-101684673D01*
X168574810Y-101588000D01*
X168322191Y-101588000D01*
X168035750Y-101588000D01*
X167877000Y-101746750D01*
X167877000Y-102540500D01*
X167897000Y-102540500D01*
X167897000Y-102794500D01*
X167877000Y-102794500D01*
X167877000Y-102814500D01*
X167623000Y-102814500D01*
X167623000Y-102794500D01*
X167603000Y-102794500D01*
X167603000Y-102540500D01*
X167623000Y-102540500D01*
X167623000Y-101746750D01*
X167464250Y-101588000D01*
X167177809Y-101588000D01*
X166925190Y-101588000D01*
X166691801Y-101684673D01*
X166513173Y-101863302D01*
X166416500Y-102096691D01*
X166416500Y-102168869D01*
X166018815Y-101771185D01*
X165771605Y-101606004D01*
X165480000Y-101548000D01*
X156120852Y-101548000D01*
X155829247Y-101606004D01*
X155582037Y-101771185D01*
X154227892Y-103125329D01*
X153247179Y-102862548D01*
X152996722Y-102895521D01*
X152777947Y-103021830D01*
X152694516Y-103130559D01*
X152672738Y-103077851D01*
X152244404Y-102648769D01*
X151684472Y-102416265D01*
X151078188Y-102415736D01*
X150517851Y-102647262D01*
X150358097Y-102806736D01*
X150193229Y-102697928D01*
X150066229Y-102771251D01*
X150066229Y-102477958D01*
X150050157Y-102209300D01*
X149553893Y-101861014D01*
X148962122Y-101729152D01*
X148490124Y-101791291D01*
X148341876Y-102015919D01*
X148973033Y-103109115D01*
X150066229Y-102477958D01*
X150066229Y-102771251D01*
X149133385Y-103309829D01*
X149120297Y-103296741D01*
X148940689Y-103476349D01*
X149359340Y-103895000D01*
X149133470Y-103895000D01*
X148899318Y-103489437D01*
X148912407Y-103476349D01*
X148753063Y-103317005D01*
X148753063Y-103236115D01*
X148121906Y-102142919D01*
X147853248Y-102158991D01*
X147504962Y-102655255D01*
X147373100Y-103247026D01*
X147435239Y-103719024D01*
X147659867Y-103867272D01*
X148753063Y-103236115D01*
X148753063Y-103317005D01*
X148732799Y-103296741D01*
X148154621Y-103874918D01*
X148119839Y-103895000D01*
X146677290Y-103895000D01*
X143492290Y-100710000D01*
X159973405Y-100710000D01*
X169217835Y-101403332D01*
G36*
X169625031Y-115977660D02*
X169018485Y-116228281D01*
X168529996Y-116715918D01*
X168265301Y-117353373D01*
X168264699Y-118043599D01*
X168528281Y-118681515D01*
X169015918Y-119170004D01*
X169540909Y-119388000D01*
X168585191Y-119388000D01*
X168351802Y-119484673D01*
X168173173Y-119663301D01*
X168076500Y-119896690D01*
X168076500Y-120149309D01*
X168076500Y-121038309D01*
X168173173Y-121271698D01*
X168321474Y-121420000D01*
X168173173Y-121568301D01*
X168163977Y-121590500D01*
X167944306Y-121590500D01*
X167926827Y-121548302D01*
X167778525Y-121400000D01*
X167926827Y-121251698D01*
X168023500Y-121018309D01*
X168023500Y-120733250D01*
X168023500Y-120161750D01*
X168023500Y-119876691D01*
X167926827Y-119643302D01*
X167748199Y-119464673D01*
X167514810Y-119368000D01*
X167262191Y-119368000D01*
X166975750Y-119368000D01*
X166817000Y-119526750D01*
X166817000Y-120320500D01*
X167864750Y-120320500D01*
X168023500Y-120161750D01*
X168023500Y-120733250D01*
X167864750Y-120574500D01*
X166817000Y-120574500D01*
X166817000Y-120594500D01*
X166563000Y-120594500D01*
X166563000Y-120574500D01*
X166543000Y-120574500D01*
X166543000Y-120320500D01*
X166563000Y-120320500D01*
X166563000Y-119526750D01*
X166404250Y-119368000D01*
X166117809Y-119368000D01*
X165865190Y-119368000D01*
X165631801Y-119464673D01*
X165453173Y-119643302D01*
X165356500Y-119876691D01*
X165356500Y-120161750D01*
X165411494Y-120216744D01*
X165035668Y-120060687D01*
X164606216Y-120060313D01*
X164209311Y-120224311D01*
X164096120Y-120337303D01*
X164242247Y-119791951D01*
X169150652Y-114883547D01*
X169150313Y-115273784D01*
X169314311Y-115670689D01*
X169617714Y-115974622D01*
X169625031Y-115977660D01*
X169625031Y-115977660D01*
G37*
X169625031Y-115977660D02*
X169018485Y-116228281D01*
X168529996Y-116715918D01*
X168265301Y-117353373D01*
X168264699Y-118043599D01*
X168528281Y-118681515D01*
X169015918Y-119170004D01*
X169540909Y-119388000D01*
X168585191Y-119388000D01*
X168351802Y-119484673D01*
X168173173Y-119663301D01*
X168076500Y-119896690D01*
X168076500Y-120149309D01*
X168076500Y-121038309D01*
X168173173Y-121271698D01*
X168321474Y-121420000D01*
X168173173Y-121568301D01*
X168163977Y-121590500D01*
X167944306Y-121590500D01*
X167926827Y-121548302D01*
X167778525Y-121400000D01*
X167926827Y-121251698D01*
X168023500Y-121018309D01*
X168023500Y-120733250D01*
X168023500Y-120161750D01*
X168023500Y-119876691D01*
X167926827Y-119643302D01*
X167748199Y-119464673D01*
X167514810Y-119368000D01*
X167262191Y-119368000D01*
X166975750Y-119368000D01*
X166817000Y-119526750D01*
X166817000Y-120320500D01*
X167864750Y-120320500D01*
X168023500Y-120161750D01*
X168023500Y-120733250D01*
X167864750Y-120574500D01*
X166817000Y-120574500D01*
X166817000Y-120594500D01*
X166563000Y-120594500D01*
X166563000Y-120574500D01*
X166543000Y-120574500D01*
X166543000Y-120320500D01*
X166563000Y-120320500D01*
X166563000Y-119526750D01*
X166404250Y-119368000D01*
X166117809Y-119368000D01*
X165865190Y-119368000D01*
X165631801Y-119464673D01*
X165453173Y-119643302D01*
X165356500Y-119876691D01*
X165356500Y-120161750D01*
X165411494Y-120216744D01*
X165035668Y-120060687D01*
X164606216Y-120060313D01*
X164209311Y-120224311D01*
X164096120Y-120337303D01*
X164242247Y-119791951D01*
X169150652Y-114883547D01*
X169150313Y-115273784D01*
X169314311Y-115670689D01*
X169617714Y-115974622D01*
X169625031Y-115977660D01*
G36*
X179290000Y-108418000D02*
X179142191Y-108418000D01*
X178855750Y-108418000D01*
X178697000Y-108576750D01*
X178697000Y-109370500D01*
X178717000Y-109370500D01*
X178717000Y-109624500D01*
X178697000Y-109624500D01*
X178697000Y-109644500D01*
X178443000Y-109644500D01*
X178443000Y-109624500D01*
X178443000Y-109370500D01*
X178443000Y-108576750D01*
X178284250Y-108418000D01*
X177997809Y-108418000D01*
X177745190Y-108418000D01*
X177549720Y-108498966D01*
X177549720Y-108027330D01*
X177549720Y-107455830D01*
X177549720Y-106768069D01*
X177549720Y-106515450D01*
X177453047Y-106282061D01*
X177274418Y-106103433D01*
X177041029Y-106006760D01*
X176900750Y-106006760D01*
X176742000Y-106165510D01*
X176742000Y-107614580D01*
X177390970Y-107614580D01*
X177549720Y-107455830D01*
X177549720Y-108027330D01*
X177390970Y-107868580D01*
X176742000Y-107868580D01*
X176742000Y-109317650D01*
X176900750Y-109476400D01*
X177041029Y-109476400D01*
X177274418Y-109379727D01*
X177339447Y-109314697D01*
X177395250Y-109370500D01*
X178443000Y-109370500D01*
X178443000Y-109624500D01*
X177395250Y-109624500D01*
X177236500Y-109783250D01*
X177236500Y-110068309D01*
X177333173Y-110301698D01*
X177481474Y-110450000D01*
X177333173Y-110598301D01*
X177236500Y-110831690D01*
X177236500Y-110898212D01*
X176291145Y-109952857D01*
X175987809Y-109750175D01*
X175630000Y-109679002D01*
X159511292Y-109679002D01*
X157681765Y-107849475D01*
X158574318Y-108088635D01*
X158824776Y-108055661D01*
X159043550Y-107929352D01*
X159197335Y-107728937D01*
X159218856Y-107648616D01*
X159346290Y-107957029D01*
X159738930Y-108350355D01*
X160252200Y-108563483D01*
X160807961Y-108563968D01*
X161321603Y-108351736D01*
X161587521Y-108086281D01*
X161587509Y-108100787D01*
X161799741Y-108614429D01*
X162192381Y-109007755D01*
X162705651Y-109220883D01*
X163261412Y-109221368D01*
X163775054Y-109009136D01*
X164168380Y-108616496D01*
X164381508Y-108103226D01*
X164381993Y-107547465D01*
X164169761Y-107033823D01*
X163895096Y-106758678D01*
X164032003Y-106740654D01*
X164161782Y-106524701D01*
X163614922Y-105577512D01*
X163628011Y-105564424D01*
X163448403Y-105384816D01*
X162870225Y-105962993D01*
X162734028Y-106041627D01*
X162938815Y-105836841D01*
X163103996Y-105589631D01*
X163103996Y-105589630D01*
X163116332Y-105527610D01*
X163435314Y-105343445D01*
X163448403Y-105356534D01*
X163628011Y-105176926D01*
X163434357Y-104983272D01*
X163495630Y-104922000D01*
X163529756Y-104922000D01*
X163669381Y-105163837D01*
X163656293Y-105176926D01*
X163835901Y-105356534D01*
X164045535Y-105146899D01*
X164129787Y-105235785D01*
X163815637Y-105417160D01*
X164381753Y-106397701D01*
X164633663Y-106393285D01*
X164946431Y-105940487D01*
X165791222Y-106606430D01*
X165884217Y-106653810D01*
X165970972Y-106711846D01*
X166015594Y-106720746D01*
X166056137Y-106741403D01*
X166160187Y-106749588D01*
X166262546Y-106770006D01*
X166590559Y-106770181D01*
X166590313Y-107053784D01*
X166754311Y-107450689D01*
X167057714Y-107754622D01*
X167454332Y-107919313D01*
X167671871Y-107919502D01*
X168032765Y-108280396D01*
X168060280Y-108298780D01*
X168060280Y-108967709D01*
X168156953Y-109201098D01*
X168335581Y-109379727D01*
X168568970Y-109476400D01*
X168821589Y-109476400D01*
X169421029Y-109476400D01*
X169629999Y-109389841D01*
X169838970Y-109476400D01*
X170091589Y-109476400D01*
X170691029Y-109476400D01*
X170899999Y-109389841D01*
X171108970Y-109476400D01*
X171361589Y-109476400D01*
X171961029Y-109476400D01*
X172169999Y-109389841D01*
X172378970Y-109476400D01*
X172631589Y-109476400D01*
X173231029Y-109476400D01*
X173439999Y-109389841D01*
X173648970Y-109476400D01*
X173901589Y-109476400D01*
X174501029Y-109476400D01*
X174709999Y-109389841D01*
X174918970Y-109476400D01*
X175171589Y-109476400D01*
X175771029Y-109476400D01*
X175980000Y-109389841D01*
X176188971Y-109476400D01*
X176329250Y-109476400D01*
X176488000Y-109317650D01*
X176488000Y-107868580D01*
X176468000Y-107868580D01*
X176468000Y-107614580D01*
X176488000Y-107614580D01*
X176488000Y-106165510D01*
X176385060Y-106062570D01*
X178022630Y-104425000D01*
X179036309Y-104425000D01*
X179269698Y-104328327D01*
X179290000Y-104308025D01*
X179290000Y-108418000D01*
X179290000Y-108418000D01*
G37*
X179290000Y-108418000D02*
X179142191Y-108418000D01*
X178855750Y-108418000D01*
X178697000Y-108576750D01*
X178697000Y-109370500D01*
X178717000Y-109370500D01*
X178717000Y-109624500D01*
X178697000Y-109624500D01*
X178697000Y-109644500D01*
X178443000Y-109644500D01*
X178443000Y-109624500D01*
X178443000Y-109370500D01*
X178443000Y-108576750D01*
X178284250Y-108418000D01*
X177997809Y-108418000D01*
X177745190Y-108418000D01*
X177549720Y-108498966D01*
X177549720Y-108027330D01*
X177549720Y-107455830D01*
X177549720Y-106768069D01*
X177549720Y-106515450D01*
X177453047Y-106282061D01*
X177274418Y-106103433D01*
X177041029Y-106006760D01*
X176900750Y-106006760D01*
X176742000Y-106165510D01*
X176742000Y-107614580D01*
X177390970Y-107614580D01*
X177549720Y-107455830D01*
X177549720Y-108027330D01*
X177390970Y-107868580D01*
X176742000Y-107868580D01*
X176742000Y-109317650D01*
X176900750Y-109476400D01*
X177041029Y-109476400D01*
X177274418Y-109379727D01*
X177339447Y-109314697D01*
X177395250Y-109370500D01*
X178443000Y-109370500D01*
X178443000Y-109624500D01*
X177395250Y-109624500D01*
X177236500Y-109783250D01*
X177236500Y-110068309D01*
X177333173Y-110301698D01*
X177481474Y-110450000D01*
X177333173Y-110598301D01*
X177236500Y-110831690D01*
X177236500Y-110898212D01*
X176291145Y-109952857D01*
X175987809Y-109750175D01*
X175630000Y-109679002D01*
X159511292Y-109679002D01*
X157681765Y-107849475D01*
X158574318Y-108088635D01*
X158824776Y-108055661D01*
X159043550Y-107929352D01*
X159197335Y-107728937D01*
X159218856Y-107648616D01*
X159346290Y-107957029D01*
X159738930Y-108350355D01*
X160252200Y-108563483D01*
X160807961Y-108563968D01*
X161321603Y-108351736D01*
X161587521Y-108086281D01*
X161587509Y-108100787D01*
X161799741Y-108614429D01*
X162192381Y-109007755D01*
X162705651Y-109220883D01*
X163261412Y-109221368D01*
X163775054Y-109009136D01*
X164168380Y-108616496D01*
X164381508Y-108103226D01*
X164381993Y-107547465D01*
X164169761Y-107033823D01*
X163895096Y-106758678D01*
X164032003Y-106740654D01*
X164161782Y-106524701D01*
X163614922Y-105577512D01*
X163628011Y-105564424D01*
X163448403Y-105384816D01*
X162870225Y-105962993D01*
X162734028Y-106041627D01*
X162938815Y-105836841D01*
X163103996Y-105589631D01*
X163103996Y-105589630D01*
X163116332Y-105527610D01*
X163435314Y-105343445D01*
X163448403Y-105356534D01*
X163628011Y-105176926D01*
X163434357Y-104983272D01*
X163495630Y-104922000D01*
X163529756Y-104922000D01*
X163669381Y-105163837D01*
X163656293Y-105176926D01*
X163835901Y-105356534D01*
X164045535Y-105146899D01*
X164129787Y-105235785D01*
X163815637Y-105417160D01*
X164381753Y-106397701D01*
X164633663Y-106393285D01*
X164946431Y-105940487D01*
X165791222Y-106606430D01*
X165884217Y-106653810D01*
X165970972Y-106711846D01*
X166015594Y-106720746D01*
X166056137Y-106741403D01*
X166160187Y-106749588D01*
X166262546Y-106770006D01*
X166590559Y-106770181D01*
X166590313Y-107053784D01*
X166754311Y-107450689D01*
X167057714Y-107754622D01*
X167454332Y-107919313D01*
X167671871Y-107919502D01*
X168032765Y-108280396D01*
X168060280Y-108298780D01*
X168060280Y-108967709D01*
X168156953Y-109201098D01*
X168335581Y-109379727D01*
X168568970Y-109476400D01*
X168821589Y-109476400D01*
X169421029Y-109476400D01*
X169629999Y-109389841D01*
X169838970Y-109476400D01*
X170091589Y-109476400D01*
X170691029Y-109476400D01*
X170899999Y-109389841D01*
X171108970Y-109476400D01*
X171361589Y-109476400D01*
X171961029Y-109476400D01*
X172169999Y-109389841D01*
X172378970Y-109476400D01*
X172631589Y-109476400D01*
X173231029Y-109476400D01*
X173439999Y-109389841D01*
X173648970Y-109476400D01*
X173901589Y-109476400D01*
X174501029Y-109476400D01*
X174709999Y-109389841D01*
X174918970Y-109476400D01*
X175171589Y-109476400D01*
X175771029Y-109476400D01*
X175980000Y-109389841D01*
X176188971Y-109476400D01*
X176329250Y-109476400D01*
X176488000Y-109317650D01*
X176488000Y-107868580D01*
X176468000Y-107868580D01*
X176468000Y-107614580D01*
X176488000Y-107614580D01*
X176488000Y-106165510D01*
X176385060Y-106062570D01*
X178022630Y-104425000D01*
X179036309Y-104425000D01*
X179269698Y-104328327D01*
X179290000Y-104308025D01*
X179290000Y-108418000D01*
M02*
