%FSLAX46Y46*%
G04 Gerber Fmt 4.6, Leading zero omitted, Abs format (unit mm)*
G04 Created by KiCad (PCBNEW (2014-jul-16 BZR unknown)-product) date Thu 04 Sep 2014 10:50:04 PM CEST*
%MOMM*%
G01*
G04 APERTURE LIST*
%ADD10C,0.150000*%
%ADD11C,1.778000*%
%ADD12R,3.000000X3.000000*%
%ADD13C,1.600000*%
%ADD14C,1.524000*%
%ADD15R,2.000000X2.000000*%
%ADD16C,1.000000*%
%ADD17C,0.889000*%
%ADD18C,0.600000*%
%ADD19C,0.254000*%
G04 APERTURE END LIST*
D10*
X175450000Y-119410000D02*
X175450000Y-118760000D01*
D11*
X148926548Y-103282600D03*
X151380000Y-103940000D03*
D10*
G36*
X154462070Y-105686198D02*
X152744654Y-105226018D01*
X153204834Y-103508602D01*
X154922250Y-103968782D01*
X154462070Y-105686198D01*
X154462070Y-105686198D01*
G37*
D12*
X112840000Y-108580000D03*
X118840000Y-108580000D03*
X111390000Y-102580000D03*
X102590000Y-102580000D03*
D10*
G36*
X176950000Y-118910000D02*
X173950000Y-118910000D01*
X174950000Y-116910000D01*
X175950000Y-116910000D01*
X176950000Y-118910000D01*
X176950000Y-118910000D01*
G37*
G36*
X173950000Y-119310000D02*
X176950000Y-119310000D01*
X175950000Y-121310000D01*
X174950000Y-121310000D01*
X173950000Y-119310000D01*
X173950000Y-119310000D01*
G37*
G36*
X150466752Y-118268285D02*
X150880863Y-116722804D01*
X152426344Y-117136915D01*
X152012233Y-118682396D01*
X150466752Y-118268285D01*
X150466752Y-118268285D01*
G37*
D13*
X153900000Y-118360000D03*
X156353452Y-119017400D03*
D10*
G36*
X136864894Y-110205797D02*
X136088437Y-113103574D01*
X133190660Y-112327117D01*
X133967117Y-109429340D01*
X136864894Y-110205797D01*
X136864894Y-110205797D01*
G37*
G36*
X131069340Y-108652883D02*
X130292883Y-111550660D01*
X127395106Y-110774203D01*
X128171563Y-107876426D01*
X131069340Y-108652883D01*
X131069340Y-108652883D01*
G37*
G36*
X157144592Y-107048140D02*
X157539033Y-105576069D01*
X159011104Y-105970510D01*
X158616663Y-107442581D01*
X157144592Y-107048140D01*
X157144592Y-107048140D01*
G37*
D14*
X158735249Y-104055874D03*
X160531300Y-107166726D03*
X161188700Y-104713274D03*
X162984751Y-107824126D03*
X163642152Y-105370675D03*
D15*
X172410000Y-102770000D03*
X175190000Y-102790000D03*
X177910000Y-102790000D03*
D10*
G36*
X140966752Y-115678285D02*
X141380863Y-114132804D01*
X142926344Y-114546915D01*
X142512233Y-116092396D01*
X140966752Y-115678285D01*
X140966752Y-115678285D01*
G37*
D13*
X144400000Y-115770000D03*
X146853452Y-116427400D03*
D16*
X109340000Y-104580000D03*
D17*
X130060000Y-107440000D03*
D16*
X162860000Y-101330000D03*
X134520000Y-107540000D03*
X138720000Y-103670000D03*
X166810000Y-119210000D03*
X167640000Y-109360000D03*
X168030000Y-116270000D03*
X116590000Y-110080000D03*
X131840000Y-109830000D03*
D17*
X170230000Y-115060000D03*
X171540000Y-104860000D03*
X164910000Y-103740000D03*
X167670000Y-106840000D03*
X162340000Y-117580000D03*
X166260000Y-112250000D03*
X110090000Y-107580000D03*
X123780000Y-111460000D03*
X125760000Y-103440000D03*
X172780000Y-115250000D03*
X158880000Y-121110000D03*
X164820000Y-121140000D03*
D16*
X123060000Y-106050000D03*
X101730000Y-109250000D03*
X135027777Y-114130000D03*
D18*
X109390000Y-104580000D02*
X109340000Y-104580000D01*
X111390000Y-102580000D02*
X109390000Y-104580000D01*
X149750000Y-115430000D02*
X148752600Y-116427400D01*
X148752600Y-116427400D02*
X146853452Y-116427400D01*
X156353452Y-117733452D02*
X154050000Y-115430000D01*
X154050000Y-115430000D02*
X149750000Y-115430000D01*
X156353452Y-119017400D02*
X156353452Y-117733452D01*
X152840000Y-106330000D02*
X151380000Y-104870000D01*
X151380000Y-104870000D02*
X151380000Y-103940000D01*
X154840000Y-106330000D02*
X152840000Y-106330000D01*
X160090000Y-115280852D02*
X160090000Y-111580000D01*
X160090000Y-111580000D02*
X154840000Y-106330000D01*
X156353452Y-119017400D02*
X160090000Y-115280852D01*
D19*
X158245874Y-104055874D02*
X156370000Y-102180000D01*
X156370000Y-102180000D02*
X151267426Y-102180000D01*
X151267426Y-102180000D02*
X150239190Y-103229008D01*
X150239190Y-103229008D02*
X150055200Y-104052532D01*
X150055200Y-104052532D02*
X149340000Y-104920000D01*
X149340000Y-104920000D02*
X145900000Y-104920000D01*
X140920000Y-104920000D02*
X145900000Y-104920000D01*
X137280000Y-108560000D02*
X140920000Y-104920000D01*
X133610000Y-108560000D02*
X137280000Y-108560000D01*
X133120000Y-108070000D02*
X133610000Y-108560000D01*
X130690000Y-108070000D02*
X133120000Y-108070000D01*
X130060000Y-107440000D02*
X130690000Y-108070000D01*
X158735249Y-104055874D02*
X158245874Y-104055874D01*
D18*
X150779148Y-101430000D02*
X160210000Y-101430000D01*
X160210000Y-101430000D02*
X161140000Y-102360000D01*
X161140000Y-102360000D02*
X163642152Y-104862152D01*
X163642152Y-104862152D02*
X163642152Y-105370675D01*
X148926548Y-103282600D02*
X150779148Y-101430000D01*
X162860000Y-101330000D02*
X161830000Y-102360000D01*
X161830000Y-102360000D02*
X161140000Y-102360000D01*
X139107400Y-103282600D02*
X134520000Y-107540000D01*
X148926548Y-103282600D02*
X139107400Y-103282600D01*
X138720000Y-103670000D02*
X139107400Y-103282600D01*
X168020000Y-118000000D02*
X166810000Y-119210000D01*
X168020000Y-109748523D02*
X168020000Y-118000000D01*
X163642152Y-105370675D02*
X168020000Y-109748523D01*
X167640000Y-109360000D02*
X167640000Y-109368523D01*
X167640000Y-109368523D02*
X168020000Y-109748523D01*
X168030000Y-117990000D02*
X168030000Y-116270000D01*
X166810000Y-119210000D02*
X168030000Y-117990000D01*
X116590000Y-110080000D02*
X117340000Y-110080000D01*
X117340000Y-110080000D02*
X118840000Y-108580000D01*
X131723543Y-109713543D02*
X131840000Y-109830000D01*
X129232223Y-109713543D02*
X131723543Y-109713543D01*
D19*
X170230000Y-115060000D02*
X171540000Y-113750000D01*
X171540000Y-113750000D02*
X171540000Y-104860000D01*
X158077848Y-106509325D02*
X158030000Y-106557173D01*
X164910000Y-103740000D02*
X167670000Y-106500000D01*
X167670000Y-106500000D02*
X167670000Y-106840000D01*
X162340000Y-110771477D02*
X158077848Y-106509325D01*
X162340000Y-110771477D02*
X162340000Y-117580000D01*
X166260000Y-112250000D02*
X166260000Y-109130000D01*
X166260000Y-109130000D02*
X163700000Y-106570000D01*
X163700000Y-106570000D02*
X163045426Y-106570000D01*
X163045426Y-106570000D02*
X161188700Y-104713274D01*
X111090000Y-108580000D02*
X110090000Y-107580000D01*
X112840000Y-108580000D02*
X111090000Y-108580000D01*
X123780000Y-111460000D02*
X123780000Y-107300000D01*
X123780000Y-107300000D02*
X125560000Y-105520000D01*
X125560000Y-105520000D02*
X125560000Y-103640000D01*
X125560000Y-103640000D02*
X125760000Y-103440000D01*
X172780000Y-115250000D02*
X175440000Y-117910000D01*
X175440000Y-117910000D02*
X175450000Y-117910000D01*
X141946548Y-116096548D02*
X143300127Y-117581644D01*
X157510000Y-121400000D02*
X158880000Y-121110000D01*
X143300127Y-117581644D02*
X157510000Y-121400000D01*
X141946548Y-115112600D02*
X141946548Y-116096548D01*
X162984751Y-110924751D02*
X165660000Y-113600000D01*
X165660000Y-113600000D02*
X165660000Y-120300000D01*
X165660000Y-120300000D02*
X165620000Y-120340000D01*
X165610000Y-120350000D02*
X165620000Y-120340000D01*
X164820000Y-121140000D02*
X165610000Y-120350000D01*
X162984751Y-107824126D02*
X162984751Y-110924751D01*
X175410000Y-120350000D02*
X175450000Y-120310000D01*
X165610000Y-120350000D02*
X175410000Y-120350000D01*
D18*
X123060000Y-106050000D02*
X104930000Y-106050000D01*
X104930000Y-106050000D02*
X101730000Y-109250000D01*
X100590000Y-108110000D02*
X100590000Y-104580000D01*
X100590000Y-104580000D02*
X102590000Y-102580000D01*
X101730000Y-109250000D02*
X100590000Y-108110000D01*
X135027777Y-114130000D02*
X135027777Y-111266457D01*
M02*
